<svg xmlns="http://www.w3.org/2000/svg" xmlns:xlink="http://www.w3.org/1999/xlink" preserveAspectRatio="xMidYMid meet" version="1.0" viewBox="0.0 0.0 500.0 392.9" zoomAndPan="magnify" style="fill: rgb(0, 0, 0);" original_string_length="3126"><g id="__id1368_skrriydd9r"><path d="M491.1,98.2v219.4l-9,57.4l-8.9,8.9H250H26.8l-8.9-8.9l-9-57.4V98.2h17.9V68l8.9-14.4l17.9-17.9l17.8-17.8l9-9 H250h169.6l9,9l17.8,17.8l17.9,17.9l8.9,14.4v30.2H491.1z" style="fill: rgb(167, 124, 223);"/></g><g id="__id1369_skrriydd9r"><path d="M491.1,100.1v107.7H9.6V100.1H491.1z M125,89.3h17.9V71.4h17.8V53.6h17.9V35.7h17.8V17.9h-17.8h-17.9h-17.8 v17.8H125v17.9h-17.9v17.8H89.3v17.9h17.8C107.1,89.3,125,89.3,125,89.3z M232.2,35.8H250V17.9h-17.9v17.8h-17.8v17.9h17.9V35.8z M196.4,71.4h-17.8v17.9h17.9L196.4,71.4l17.9,0.1V53.6h-17.9V71.4z" style="fill: rgb(255, 255, 255);"/></g><g id="__id1370_skrriydd9r"><path d="M53.6,53.6H35.7V35.7h17.9V17.9h17.8V0h17.9h17.8H125h17.9h17.8h17.9h17.8h17.9h17.8H250h17.9h17.8h17.9h17.8 h17.9h17.8H375h17.9h17.8h17.9v17.9h-17.9h-17.8H375h-17.9h-17.8h-17.9h-17.8h-17.9h-17.8H250h-17.9h-17.8h-17.9h-17.8h-17.9h-17.8 H125h-17.9H89.3H71.5v17.9H53.6V53.6z M446.4,35.8v17.8h17.9V35.7h-17.8V17.9h-17.9v17.9H446.4z M500,89.3v17.8V125v17.9v17.8v17.9 v17.8v17.9v17.8V250v17.9v17.8v17.9v17.8v17.9v17.8V375h-17.9v-17.9v-17.8v-17.9v-17.8v-17.9v-17.8V250v-17.9v-17.8v-0.1h-17.6 h-17.9v17.9V250v17.9v17.9v17.9v17.9h-17.9v-17.9v-17.9v-17.9V250v-17.9v-17.9h-17.9h-17.9H375h-17.7h-17.9h-17.9h-17.9h-17.9h-17.9 H250h-17.6h-17.9h-17.9h-17.9h-17.9h-17.9H125h-17.6H89.5H71.6v17.9V250v17.9v17.9v17.9v17.7h17.7h17.8H125h17.9h17.8h17.9h17.8 h17.9h17.8H250h17.8h17.9h17.8h17.9h17.9h17.8H375h17.8h17.9h17.8v17.9h-17.8h-17.9H375h-17.9h-17.8h-17.9h-17.9h-17.8h-17.9H250 h-17.9h-17.8h-17.9h-17.8h-17.9h-17.8H125h-17.9H89.3H71.4v-17.7H53.7v-17.9v-17.9v-17.9V250v-17.9v-17.9H35.8H17.9v17.9V250v17.7 v17.9v17.9v17.9v17.9v17.8V375H0v-17.6v-17.9v-17.9v-17.9v-17.9v-17.9V250v-17.6v-17.9v-17.9v-17.9v-17.9v-17.9V125v-17.7V89.4h17.9 V71.5V53.6h17.8v17.8v18h17.9h17.8h17.9h17.8H125h17.7h17.9h17.9h17.9h17.9h17.9H250h17.6h17.9h17.9h17.9h17.9h17.9H375h17.9h17.9 h17.9h17.9h17.9V71.5V53.6h17.9v17.8v17.9C482.4,89.3,500,89.3,500,89.3z M214.5,178.6h-17.9v-17.9h-17.9h-17.9h-17.9H125h-17.6 H89.5H71.6H53.7H35.8H17.9v17.9v17.9h17.8h17.9h17.8h17.9h17.8H125h17.9h17.9h17.9h17.9h17.9L214.5,178.6L214.5,178.6z M214.5,107.1 h-17.9h-17.9h-17.9h-17.9H125h-17.6H89.5H71.6H53.7H35.8H17.9V125v17.9h17.8h17.9h17.8h17.9h17.8H125h17.9h17.9h17.9h17.9V125h17.9 L214.5,107.1L214.5,107.1z M285.5,125h17.9v17.6h17.9h17.9h17.9H375h17.9h17.9h17.9h17.9h17.9h17.6V125v-17.9h-17.6h-17.9h-17.9 h-17.9h-17.9H375h-17.9h-17.9h-17.9h-17.9h-17.9L285.5,125L285.5,125z M464.5,196.3h17.6v-17.7v-17.9v-0.2h-17.6h-17.9h-17.9h-17.9 h-17.9H375h-17.9h-17.9h-17.9h-17.9v17.9h-17.9v17.9h17.9h17.9h17.9h17.9H375h17.9h17.9h17.9h17.9H464.5z M446.4,375h-17.8h-17.9 h-17.8H375h-17.9h-17.8h-17.9h-17.8h-17.9h-17.8H250h-17.9h-17.8h-17.9h-17.8h-17.9h-17.8H125h-17.9H89.3H71.4H53.6H35.7H17.9v17.9 h17.8h17.9h17.8h17.9h17.8H125h17.9h17.8h17.9h17.8h17.9h17.8H250h17.9h17.8h17.9h17.8h17.9h17.8H375h17.9h17.8h17.9h17.8h17.9h17.8 V375h-17.8H446.4z" style="fill: rgb(118, 88, 157);"/></g></svg>