<?xml version="1.0" encoding="UTF-8"?>
<svg xmlns="http://www.w3.org/2000/svg" xmlns:xlink="http://www.w3.org/1999/xlink" height="362.5" preserveAspectRatio="xMidYMid meet" version="1.0" viewBox="0.0 0.0 362.5 362.5" width="362.5" zoomAndPan="magnify"><g id="change1_1"><path d="M350 287.5L350 275 350 262.5 337.5 262.5 337.5 250 337.5 237.5 325 237.5 325 225 325 212.5 312.5 212.5 312.5 200 312.5 187.5 300 187.5 300 175 300 162.5 287.5 162.5 287.5 150 287.5 137.5 275 137.5 275 125 275 112.5 262.5 112.5 262.5 100 262.5 87.5 250 87.5 250 75 250 62.5 237.5 62.5 237.5 50 237.5 37.5 225 37.5 225 25 212.5 25 212.5 12.5 200 12.5 187.5 12.5 175 12.5 175 25 162.5 25 162.5 37.5 150 37.5 150 50 150 62.5 137.5 62.5 137.5 75 137.5 87.5 125 87.5 125 100 125 112.5 112.5 112.5 112.5 125 112.5 137.5 100 137.5 100 150 100 162.5 87.5 162.5 87.5 175 87.5 187.5 75 187.5 75 200 75 212.5 62.5 212.5 62.5 225 62.5 237.5 50 237.5 50 250 50 262.5 37.5 262.5 37.5 275 37.5 287.5 25 287.5 25 300 25 312.5 25 325 25 337.5 37.5 337.5 37.5 350 50 350 50 362.5 62.5 362.5 75 362.5 87.5 362.5 100 362.5 112.5 362.5 125 362.5 137.5 362.5 150 362.5 162.5 362.5 175 362.5 187.5 362.5 200 362.5 212.5 362.5 225 362.5 237.5 362.5 250 362.5 262.5 362.5 275 362.5 287.5 362.5 300 362.5 312.5 362.5 325 362.5 337.5 362.5 337.5 350 350 350 350 337.5 362.5 337.5 362.5 325 362.5 312.5 362.5 300 362.5 287.5z" opacity=".3"/></g><g id="change2_1"><path d="M175 12.5L187.5 12.5 200 25 212.5 50 325 275 325 325 312.5 337.5 25 337.5 12.5 325 12.5 275 137.5 25 150 12.5z" fill="#fdff00"/></g><g id="change1_2"><path d="M162.5,12.5H150V0h12.5H175h12.5v12.5H175H162.5z M150,12.5h-12.5V25H150V12.5z M200,25V12.5h-12.5V25H200z M137.5,37.5V25 H125v12.5V50h12.5V37.5z M200,50h12.5V37.5V25H200v12.5V50z M125,62.5V50h-12.5v12.5V75H125V62.5z M212.5,75H225V62.5V50h-12.5v12.5 V75z M112.5,87.5V75H100v12.5V100h12.5V87.5z M225,100h12.5V87.5V75H225v12.5V100z M187.5,100H175h-12.5H150v12.5h-12.5V125v12.5 V150v12.5V175H150v12.5V200v12.5h12.5V225v12.5V250H175v-12.5V225v-12.5h12.5V200v-12.5V175H200v-12.5V150v-12.5V125v-12.5h-12.5 V100z M100,112.5V100H87.5v12.5V125H100V112.5z M237.5,125H250v-12.5V100h-12.5v12.5V125z M87.5,137.5V125H75v12.5V150h12.5V137.5z M250,150h12.5v-12.5V125H250v12.5V150z M75,162.5V150H62.5v12.5V175H75V162.5z M262.5,175H275v-12.5V150h-12.5v12.5V175z M62.5,187.5V175H50v12.5V200h12.5V187.5z M275,200h12.5v-12.5V175H275v12.5V200z M50,212.5V200H37.5v12.5V225H50V212.5z M287.5,225 H300v-12.5V200h-12.5v12.5V225z M37.5,237.5V225H25v12.5V250h12.5V237.5z M300,250h12.5v-12.5V225H300v12.5V250z M25,262.5V250H12.5 v12.5V275H25V262.5z M175,262.5h-12.5V275H150v12.5h12.5V300H175v-12.5h12.5V275H175V262.5z M312.5,275H325v-12.5V250h-12.5v12.5 V275z M325,275v12.5V300v12.5V325h12.5v-12.5V300v-12.5V275H325z M12.5,300v-12.5V275H0v12.5V300v12.5V325h12.5v-12.5V300z M12.5,325v12.5H25V325H12.5z M312.5,337.5H325V325h-12.5V337.5z M287.5,337.5H275h-12.5H250h-12.5H225h-12.5H200h-12.5H175h-12.5 H150h-12.5H125h-12.5H100H87.5H75H62.5H50H37.5H25V350h12.5H50h12.5H75h12.5H100h12.5H125h12.5H150h12.5H175h12.5H200h12.5H225h12.5 H250h12.5H275h12.5H300h12.5v-12.5H300H287.5z"/></g><g id="change1_3"><path d="M162.5,275H150v-12.5h12.5V275z M162.5,212.5H150V225h12.5V212.5z M150,175h-12.5v12.5H150V175z M187.5,212.5 H175V225h12.5V212.5z M200,175h-12.5v12.5H200V175z M162.5,287.5H150V300h12.5V287.5z M187.5,262.5H175V275h12.5V262.5z M187.5,287.5H175V300h12.5V287.5z M25,325v12.5h287.5V325H25z M12.5,275v50H25v-50H12.5z M37.5,250H25v25h12.5V250z M50,225H37.5 v25H50V225z M62.5,200H50v25h12.5V200z M75,175H62.5v25H75V175z M87.5,150H75v25h12.5V150z M100,125H87.5v25H100V125z M112.5,100 H100v25h12.5V100z M125,75h-12.5v25H125V75z M137.5,50H125v25h12.5V50z M150,25h-12.5v25H150V25z" opacity=".3"/></g><g fill="#fff" id="change3_1"><path d="M312.5 275H325V325H312.5z" opacity=".5"/><path d="M300 250H312.5V275H300z" opacity=".5"/><path d="M287.5 225H300V250H287.5z" opacity=".5"/><path d="M275 200H287.5V225H275z" opacity=".5"/><path d="M262.5 175H275V200H262.5z" opacity=".5"/><path d="M250 150H262.5V175H250z" opacity=".5"/><path d="M237.5 125H250V150H237.5z" opacity=".5"/><path d="M225 100H237.5V125H225z" opacity=".5"/><path d="M212.5 75H225V100H212.5z" opacity=".5"/><path d="M200 50H212.5V75H200z" opacity=".5"/><path d="M187.5 25H200V50H187.5z" opacity=".5"/><path d="M150 12.5H187.5V25H150z" opacity=".5"/></g></svg>