<?xml version="1.0" encoding="UTF-8"?><svg xmlns="http://www.w3.org/2000/svg" xmlns:xlink="http://www.w3.org/1999/xlink" height="105.0" preserveAspectRatio="xMidYMid meet" version="1.0" viewBox="0.0 0.0 70.0 105.0" width="70.0" zoomAndPan="magnify"><g fill="#160059" id="change1_33"><path d="M60 0H65V5H60z"/><path d="M65 50L65 45 60 45 60 35 55 35 55 30 55 20 55 15 60 15 60 10 60 5 55 5 50 5 45 5 45 10 35 10 35 15 25 15 25 20 20 20 20 25 15 25 15 30 10 30 10 35 5 35 5 45 0 45 0 70 5 70 5 80 10 80 10 85 15 85 15 90 10 90 10 95 5 95 5 100 5 105 10 105 25 105 25 100 30 100 30 95 40 95 40 100 45 100 45 105 60 105 65 105 65 100 65 95 60 95 60 90 55 90 55 85 60 85 60 80 65 80 65 75 70 75 70 50z"/></g><g><g fill="#F34327" id="change2_1"><path d="M60 0H65V5H60z"/><path d="M65 50L65 45 60 45 60 35 55 35 55 30 55 20 55 15 60 15 60 5 55 5 50 5 45 5 45 10 35 10 35 15 25 15 25 20 20 20 20 25 15 25 15 30 10 30 10 35 10 40 10 45 5 45 5 70 10 70 10 75 10 80 15 80 15 85 25 85 25 90 45 90 45 85 55 85 55 80 60 80 60 75 65 75 70 75 70 50z"/></g><g id="change3_1"><path d="M35 25H40V30H35z" fill="#FFB200"/></g><g id="change3_2"><path d="M45 20H50V30H45z" fill="#FFB200"/></g><g id="change3_3"><path d="M50 40H55V45H50z" fill="#FFB200"/></g><g id="change3_4"><path d="M25 30H45V75H25z" fill="#FFB200"/></g><g id="change3_5"><path d="M20 35H30V80H20z" fill="#FFB200"/></g><g id="change3_6"><path d="M15 55H20V70H15z" fill="#FFB200"/></g><g id="change3_7"><path d="M15 45H20V50H15z" fill="#FFB200"/></g><g id="change3_8"><path d="M40 45H50V80H40z" fill="#FFB200"/></g><g id="change3_9"><path d="M45 50H55V75H45z" fill="#FFB200"/></g><g id="change3_10"><path d="M55 55H60V70H55z" fill="#FFB200" opacity=".5"/></g><g id="change3_11"><path d="M15 50H20V55H15z" fill="#FFB200" opacity=".5"/></g><g id="change3_12"><path d="M15 70H20V75H15z" fill="#FFB200" opacity=".5"/></g><g id="change3_13"><path d="M10 65H15V70H10z" fill="#FFB200" opacity=".5"/></g><g id="change3_14"><path d="M10 55H15V60H10z" fill="#FFB200" opacity=".5"/></g><g id="change3_15"><path d="M40 20H45V25H40z" fill="#FFB200" opacity=".5"/></g><g id="change3_16"><path d="M45 15H50V20H45z" fill="#FFB200" opacity=".5"/></g><g id="change3_17"><path d="M30 25H35V30H30z" fill="#FFB200" opacity=".5"/></g><g id="change3_18"><path d="M15 35H20V40H15z" fill="#FFB200" opacity=".5"/></g><g id="change3_19"><path d="M10 45H15V50H10z" fill="#FFB200" opacity=".5"/></g><g id="change3_20"><path d="M20 30H25V35H20z" fill="#FFB200" opacity=".5"/></g><g id="change3_21"><path d="M45 35H50V40H45z" fill="#FFB200" opacity=".5"/></g><g id="change3_22"><path d="M60 50H65V55H60z" fill="#FFB200" opacity=".5"/></g><g id="change3_23"><path d="M55 75H60V80H55z" fill="#FFB200" opacity=".5"/></g><g id="change3_24"><path d="M25 75H45V85H25z" fill="#FFB200"/></g><g id="change1_1"><path d="M35 10H45V15H35z" fill="#160059" opacity=".5"/></g><g id="change1_2"><path d="M25 15H35V20H25z" fill="#160059" opacity=".5"/></g><g id="change1_3"><path d="M20 20H25V25H20z" fill="#160059" opacity=".5"/></g><g id="change1_4"><path d="M45 5L45 10 55 10 55 15 60 15 60 10 60 5z" fill="#160059" opacity=".5"/></g><g id="change1_5"><path d="M60 0H65V5H60z" fill="#160059" opacity=".5"/></g><g id="change1_6"><path d="M15 25H20V30H15z" fill="#160059" opacity=".5"/></g><g id="change1_7"><path d="M10 30H15V35H10z" fill="#160059" opacity=".5"/></g><g id="change1_8"><path d="M5 35H10V45H5z" fill="#160059"/></g><g id="change1_9"><path d="M0 45H5V70H0z" fill="#160059"/></g><g id="change1_10"><path d="M5 70H10V80H5z" fill="#160059"/></g><g id="change1_11"><path d="M10 80H15V85H10z" fill="#160059"/></g><g id="change1_12"><path d="M15 85H25V90H15z" fill="#160059"/></g><g id="change1_13"><path d="M45 85H55V90H45z" fill="#160059"/></g><g id="change1_14"><path d="M50 15H55V35H50z" fill="#160059" opacity=".5"/></g><g id="change1_15"><path d="M55 35H60V45H55z" fill="#160059" opacity=".5"/></g><g id="change1_16"><path d="M60 45H65V50H60z" fill="#160059" opacity=".5"/></g><g id="change1_17"><path d="M65 50H70V75H65z" fill="#160059" opacity=".5"/></g><g id="change1_18"><path d="M60 75H65V80H60z" fill="#160059"/></g><g id="change1_19"><path d="M55 80H60V85H55z" fill="#160059"/></g><g fill="#F8E374" id="change4_1"><path d="M20 65H25V70H20z"/><path d="M50 70H55V75H50z"/><path d="M25 45H30V50H25z"/><path d="M40 40H45V45H40z"/><path d="M30 35H35V40H30z"/><path d="M35 50H40V55H35z"/><path d="M45,70h5v-5h-5v-5v-5h-5v5h-5v-5h-5v5h-5v5h5v5h-5v5h-5v5h5h5v5h10v-5h5h5v-5h-5V70z M35,75v-5h5v5H35z"/></g><g id="change2_2"><path d="M10 90H30V100H10z" fill="#F34327"/></g><g id="change2_3"><path d="M40 90H60V100H40z" fill="#F34327"/></g><g id="change2_4"><path d="M5 95H25V105H5z" fill="#F34327"/></g><g id="change2_5"><path d="M45 95H65V105H45z" fill="#F34327"/></g><g id="change1_20"><path d="M10 90H15V95H10z" fill="#160059"/></g><g id="change1_21"><path d="M5 95H10V105H5z" fill="#160059"/></g><g id="change1_22"><path d="M5 100H25V105H5z" fill="#160059"/></g><g id="change1_23"><path d="M40 90L30 90 25 90 25 95 25 100 30 100 30 95 40 95 40 100 45 100 45 95 45 90z" fill="#160059"/></g><g id="change1_24"><path d="M45 100H65V105H45z" fill="#160059"/></g><g id="change1_25"><path d="M60 95H65V105H60z" fill="#160059"/></g><g id="change1_26"><path d="M55 90H60V95H55z" fill="#160059"/></g><g id="change1_27"><path d="M40 90L40 95 45 95 45 100 50 100 50 95 55 95 55 90z" fill="#160059" opacity=".5"/></g><g id="change1_28"><path d="M15 90L15 95 20 95 20 100 25 100 25 95 30 95 30 90z" fill="#160059" opacity=".5"/></g><g id="change1_29"><path d="M40 55H50V60H40z" fill="#160059"/></g><g id="change1_30"><path d="M20 55H30V60H20z" fill="#160059"/></g><g id="change1_31"><path d="M15 60H20V65H15z" fill="#160059"/></g><g id="change1_32"><path d="M50 60H55V65H50z" fill="#160059"/></g><g id="change5_1"><path d="M40 60H45V65H40z" fill="#FF1200"/></g><g id="change5_2"><path d="M25 60H30V65H25z" fill="#FF1200"/></g></g></svg>