<svg width="1235" height="3185" viewBox="0 0 1235 3185" fill="none" xmlns="http://www.w3.org/2000/svg">
<g clip-path="url(#clip0_288_169)">
<path d="M412.463 104.291H310.613L310.613 2155.1H208.692L208.692 2257.7H106.701L106.701 2360.09H4.85004L4.85004 2872.9H106.701L106.701 2975.43H208.692V3078.04H412.534V3180.5H820.217V3078.04H1024.06V2975.43H1125.91V2872.9H1227.9L1227.9 2360.09H1125.91V2257.56H1024.06V2154.96H820.217L820.217 1027.23H1125.91V924.698L1227.9 924.698V822.094L1125.91 822.094V719.631H820.217L820.217 412.102H1125.91V309.428L1227.9 309.428V206.895L1125.91 206.895L1125.91 104.291H718.226V1.82833H412.463V104.291ZM925.161 2567.27V2772.55H309.84L309.84 2464.74H925.161V2567.27Z" fill="#FFD07F"/>
<path d="M1027.08 2465.37V2567.2V2669.8V2771.77H924.458V2875.78H925.161H1028.49V2773.18H1130.97V2669.8V2567.2V2463.96H1028.49V2361.29H924.458V2465.37H1027.08Z" fill="#F8B44E"/>
<path d="M720.124 2874.38H617.5H514.946H411.62V2978.32H514.946H617.5H720.124H823.31V2874.38H720.124Z" fill="#F8B44E"/>
<path d="M411.62 207.106L411.62 309.639V412.313V514.917L411.62 617.45V720.194V822.727L411.62 925.401V1028V1130.54L411.62 1233.21V1335.82V1438.49L411.62 1541.09V1643.63V1746.3L411.62 1848.9V1951.58V2054.18L411.62 2156.71V2260.09H515.649V2156.71V2054.18V1951.58L515.649 1848.9V1746.3V1643.63V1541.09V1438.49L515.649 1335.82V1233.21V1130.54V1028V925.401V822.727V720.194L515.649 617.45V514.917V412.313V309.639V207.106L515.649 103.729H411.62V207.106Z" fill="#F8B44E"/>
<path d="M310.472 2874.38H207.989L207.989 2772.48V2669.8V2567.2L207.989 2464.67V2362.69H310.472V2258.68H309.769H206.583V2361.29H103.959L103.959 2464.67L103.959 2567.2L103.959 2669.8L103.959 2772.48L103.959 2875.78H206.583V2978.32H310.472V2977.61V2874.38Z" fill="#F8B44E"/>
<path d="M410.214 102.322H307.66L307.66 2154.6H205.177L205.177 2257.28H102.553L102.553 2360.09H0L0 2877.19H102.553L102.553 2979.72H205.177V3082.4H410.214V3185H824.927V3082.4H1030.1V2979.72H1132.38V2877.19H1235.07L1235.07 2360.09H1132.38V2257.49H1029.89V2154.82H824.505L824.505 1030.33H1132.38V927.722L1235.07 927.722V820.829L1132.38 820.829V718.295H824.505L824.505 414.634H1132.38V311.96L1235.07 311.96V205.207L1132.38 205.207L1132.38 102.533H722.232V-0.0700703H410.214V102.322ZM514.946 106.542H718.015V209.216H1128.16V307.67H718.015L718.015 824.837H1128.16V923.291H718.015L718.015 2261.64H1025.68V2364.1H1128.16L1128.16 2872.97H1025.68V2975.5H820.498V3078.18H414.431L414.431 2975.5H209.395L209.395 2872.97H106.771L106.771 2364.1H209.395L209.395 2261.64H414.431L414.431 106.542H514.946Z" fill="black"/>
<path d="M205.177 2462.56L205.177 2774.59H307.661V2877.19H927.269V2774.59H1029.89V2462.56H927.269V2360.09H307.661L307.661 2462.77L205.177 2462.56ZM412.323 2466.78H922.911L922.911 2770.37H311.386L311.386 2466.78H412.323Z" fill="black"/>
</g>
<defs>
<clipPath id="clip0_288_169">
<rect width="3185" height="1235" fill="white" transform="matrix(0 -1 1 0 0 3185)"/>
</clipPath>
</defs>
</svg>
