<svg xmlns="http://www.w3.org/2000/svg" xmlns:xlink="http://www.w3.org/1999/xlink" preserveAspectRatio="xMidYMid meet" version="1.0" viewBox="0.0 0.0 482.2 500.0" zoomAndPan="magnify" style="fill: rgb(0, 0, 0);" original_string_length="4434"><g id="__id1362_skrriydd9r"><path d="M473.2,48.7v202.6l-8.9,16.6l-8.9,8.9v26.8l-9,17.8l-8.9,6.2v6.1l-8.9,23.4l-6.2,4.4l-2.8,13.5l-8.9,18.2 L392.9,411L375,428.6l-17.9,17.8l-17.8,17.9l-35.7,17.8l-13.1,9h-49.4h-49.5l-13-9l-35.7-17.8L125,446.4l-17.9-17.8L89.3,411 l-17.9-17.8L62.5,375l-2.7-13.5l-6.2-4.4l-9-23.4v-6.1l-8.9-6.2l-8.9-17.8v-26.8l-8.9-8.9l-9-16.6V48.7l9-13l24.3-8.9l11.4,8.9 l12.2,8.9h103.8l9-8.9l20.3-11.8l15.4-6l8.9-9h17.9h17.8l9,9l15.3,6l20.4,11.8l8.9,8.9h103.8l12.3-8.9l11.3-8.9l24.4,8.9L473.2,48.7 z" style="fill: rgb(189, 219, 64);"/></g><g id="__id1363_skrriydd9r"><path d="M400,81.8l-7.1,7.5l-8.9,8.9h-54.5l-8-8.9l-8.9-6.7H271l-3.1-11.2l-12.6-10.6h-14.1h-14.1l-12.6,10.6l-3.1,11.2 h-41.6l-8.9,6.7l-8,8.9H98.2l-8.9-8.9l-7.1-7.5H64.4V273l7,12.8l8.9,6.6V315l8.9,6.5l8.9,8.9l4.1,17.9l4.8,8.9l8.9,8.9v12.5 l8.9,14.2l17.9,17.9l20,8.9l15.8,8.9l17.9,17.9l8.9,8.9H241h35.7l8.9-8.9l17.9-17.9l15.8-8.9l20-8.9l17.9-17.9l8.9-14.2v-12.5 l8.9-8.9l4.8-8.9l4.1-17.9l8.9-8.9l8.9-6.5v-22.6l8.9-6.6l7-12.8V81.8H400z M348.2,274.6l-8.9,11.1l-6.6,11.8l-11.2,23.9l-17.9,17.9 l-35.7,17.9L254,369.3h-12.9h-12.9l-13.9-12.2l-35.7-17.9l-17.9-17.9l-11.2-23.9l-6.6-11.8l-8.9-11.1v-54l8.9-6.2l17.9-35.7 l17.9-17.9l35.7-17.9l11.8-8.9h14.9H256l11.8,8.9l35.7,17.9l17.9,17.9l17.9,35.7l8.9,6.2V274.6z M178.6,285.2h17.9v17.9h-17.9V285.2 z M196.5,214.3h17.8v17.9h-17.8V250v17.9h-17.9V250v-17.8v-0.1v-17.8H196.5L196.5,214.3z" style="fill: rgb(254, 247, 230);"/></g><g id="__id1364_skrriydd9r"><path d="M53.6,17.9v17.8H35.7H17.9V17.9h17.8H53.6z M35.7,285.7v-17.8H17.9v17.8v17.9v17.8h17.8v-17.8V285.7z M53.6,321.4H35.7v17.9v17.8h17.9v-17.8V321.4z M71.4,373.1v-16H53.6v16v1.9v18.2h17.8V375V373.1z M107.1,428.6V411H89.3v-17.8H71.4 v17.9h17.9v17.8h17.8v17.5H125v-17.8H107.1z M125,446.4v17.9h17.9v-17.9H125z M160.7,464.3h-17.8v17.8h17.8h17.9v-17.8H160.7z M0,267.8h17.9V35.7H0V267.8z M178.6,17.9v17.8h-17.8v0.2l-0.1-0.2h-17.8H53.6v17.9h89.3h17.8l0.1-0.1v0.1h17.9V35.7h17.7h17.9V17.9 h-17.9H178.6z M196.4,89.3h17.9V71.4h-17.9h-17.8h-17.9v17.9h17.9H196.4z M71.4,71.4H53.6v17.9v17.8V125v160.7h17.8V125v-17.9V89.3 h17.9V71.4H71.4z M89.3,285.7H71.4v17.9v17.8h17.9v-17.8V285.7z M107.1,321.4H89.3v17.9v17.8h17.8v-17.8V321.4z M125,392.8V375 v-17.9h-17.9V375v17.9L125,392.8v17.9h17.9v-17.9H125z M160.7,410.7h-17.8v17.8h17.8h17.9v-17.8H160.7z M142.9,107.1h17.8V89.3 h-17.8H89.3v17.8H142.9z M250,0h-17.9h-17.8v17.9h17.8H250h17.9V0H250z M285.7,17.9h-17.8v17.8h17.8h17.9V17.9H285.7z M446.4,17.9 h-17.8v17.8h17.8h17.9V17.9H446.4z M446.4,285.7v17.9v17.8h17.9v-17.8v-17.9v-17.8h-17.9V285.7z M428.6,339.3v17.8h17.8v-17.8v-17.9 h-17.8V339.3z M410.7,374.1v0.9v18.2h-17.8V411H375v17.6h-17.9v17.8h-17.8v17.9h17.9v-17.9H375v-17.5h17.9v-17.8h17.9v-17.9h17.8 V375v-0.9v-17h-17.9V374.1z M303.6,464.3v17.8h17.8h17.9v-17.8h-17.9H303.6z M267.9,482.1H250h-17.9h-17.8h-17.9h-17.8V500h17.8 h17.9h17.8H250h17.9h17.8h17.9v-17.9h-17.9H267.9z M464.3,35.7v232.1h17.9V35.7H464.3z M321.4,35.7h-17.8v17.9h17.8h17.9h89.3V35.7 h-89.3H321.4z M250,71.4h17.9V53.6H250h-17.9h-17.8v17.8h17.8H250z M285.7,89.3h17.9h17.8V71.4h-17.8h-17.9h-17.8v17.9H285.7z M410.7,107.1V125v160.7h17.9V125v-17.9V89.3V71.4h-17.9h-17.8v17.9h17.8V107.1z M339.3,107.1h53.6V89.3h-53.6h-17.9v17.8H339.3z M392.9,303.6v17.8h17.8v-17.8v-17.9h-17.8V303.6z M375,339.3v17.8h17.9v-17.8v-17.9H375V339.3z M339.3,410.7h17.8v-17.8h-17.8 V410.7z M357.1,375v17.9H375V375v-17.9h-17.9V375z M303.6,410.7v17.9h17.8h17.9v-17.9h-17.9H303.6z M285.7,446.4h-17.8H250h-17.9 h-17.8h-17.8v-17.9h-17.9v17.9h17.8v17.9h17.9h17.8H250h17.9h17.8v-17.8h17.9v-17.9h-17.9V446.4z M178.6,142.9v17.8h17.8h17.9v-17.8 h-17.9H178.6z M178.6,160.7h-17.9v17.9h17.9V160.7z M160.7,196.4v-17.8h-17.8v17.8v17.9h17.8V196.4z M214.3,357.1v-17.8h-17.9h-17.8 v17.8h17.8H214.3z M178.6,339.3v-17.9h-17.9v17.9H178.6z M142.9,321.4h17.8v-17.8v-17.9h-17.8v17.9V321.4z M142.9,214.3H125v71.4 h17.9V214.3z M250,125h-17.9h-17.8v17.9h17.8H250h17.9V125H250z M285.7,142.9h-17.8v17.8h17.8h17.9v-17.8H285.7z M339.3,178.6h-17.8 v-17.9h-17.9v17.9h17.8v17.8v17.9h17.9v-17.9V178.6z M232.1,375H250h17.9v-17.9H250h-17.9h-17.8V375H232.1z M303.6,357.1v-17.8 h-17.9h-17.8v17.8h17.8H303.6z M321.5,321.4h17.8v-17.8v-17.9h-17.9v17.9L321.5,321.4h-17.9v17.9h17.9V321.4z M357.1,214.3h-17.8 v71.4h17.8V214.3z" style="fill: rgb(34, 191, 126);"/></g></svg>