<svg width="215" height="102" viewBox="0 0 215 102" fill="none" xmlns="http://www.w3.org/2000/svg">
<g clip-path="url(#clip0_73_8190)">
<path d="M204.25 59.0526H198.875H193.5H182.75V53.6842V48.3158H204.25V42.9474V37.5789H182.75V32.2105H204.25V26.8421V21.4737H182.75V16.1053H204.25V10.7368V5.36842H182.75V0H177.375H172V5.36842H166.625H150.5H123.625H107.5H102.125H96.75H91.375H86H43V0H37.625H32.25V5.36842H10.75V10.7368V16.1053H21.5H32.25V21.4737H10.75V26.8421V32.2105H21.5H32.25V37.5789H10.75V42.9474V48.3158H21.5H32.25V53.6842V59.0526H0V64.4211V69.7895H21.5H32.25V75.1579V80.5263V96.6316V102H37.625H43V96.6316V75.1579V69.7895H172V75.1579V80.5263V96.6316V102H177.375H182.75V96.6316V75.1579V69.7895H215V64.4211V59.0526H204.25ZM43 53.6842V48.3158H172V53.6842V59.0526H107.5H43V53.6842ZM43 16.1053H172V21.4737H166.625H150.5H123.625H107.5H102.125H96.75H91.375H86H43V16.1053ZM43 32.2105H172V37.5789H166.625H150.5H123.625H107.5H102.125H96.75H91.375H86H43V32.2105Z" fill="#AB1D8C"/>
<path d="M32.25 0H43V102H32.25V0Z" fill="#AB1D8C"/>
<path opacity="0.2" d="M32.25 0H37.625V102H32.25V0Z" fill="black"/>
<path d="M172 0H182.75V102H172V0Z" fill="#AB1D8C"/>
<path opacity="0.2" d="M172 0H177.375V102H172V0Z" fill="black"/>
<path d="M10.75 21.4737H204.25V32.2105H10.75V21.4737Z" fill="#BC3F1E"/>
<path d="M10.75 5.36842H204.25V16.1053H10.75V5.36842Z" fill="#BC3F1E"/>
<path d="M10.75 37.5789H204.25V48.3158H10.75V37.5789Z" fill="#BC3F1E"/>
<path d="M0 59.0526H215V69.7895H0V59.0526Z" fill="#BC3F1E"/>
<path opacity="0.5" d="M10.75 10.7368H204.25V16.1053H10.75V10.7368Z" fill="#9D7DE6"/>
<path opacity="0.5" d="M10.75 26.8421H204.25V32.2105H10.75V26.8421Z" fill="#9D7DE6"/>
<path opacity="0.5" d="M10.75 42.9474H204.25V48.3158H10.75V42.9474Z" fill="#9D7DE6"/>
<path opacity="0.5" d="M0 64.4211H215V69.7895H0V64.4211Z" fill="#9D7DE6"/>
<path opacity="0.1" d="M37.625 37.5789H204.25V42.9474H37.625V37.5789Z" fill="#FFAAAB"/>
<path opacity="0.1" d="M37.625 21.4737H204.25V26.8421H37.625V21.4737Z" fill="#FFAAAB"/>
<path opacity="0.1" d="M37.625 5.36842H204.25V10.7368H37.625V5.36842Z" fill="#FFAAAB"/>
<path opacity="0.4" d="M107.5 37.5789H204.25V42.9474H107.5V37.5789Z" fill="#FFAAAB"/>
<path opacity="0.1" d="M37.625 59.0526H204.25V64.4211H37.625V59.0526Z" fill="#FFAAAB"/>
<path opacity="0.4" d="M107.5 59.0526H204.25V64.4211H107.5V59.0526Z" fill="#FFAAAB"/>
<path opacity="0.4" d="M107.5 21.4737H204.25V26.8421H107.5V21.4737Z" fill="#FFAAAB"/>
<path opacity="0.4" d="M107.5 5.36842H204.25V10.7368H107.5V5.36842Z" fill="#FFAAAB"/>
<path d="M177.375 5.36842H204.25V10.7368H177.375V5.36842Z" fill="#BC3F1E"/>
<path d="M177.375 21.4737H204.25V26.8421H177.375V21.4737Z" fill="#BC3F1E"/>
<path d="M177.375 37.5789H204.25V42.9474H177.375V37.5789Z" fill="#BC3F1E"/>
<path d="M166.625 5.36842H172V10.7368H166.625V5.36842Z" fill="#BC3F1E"/>
<path d="M166.625 21.4737H172V26.8421H166.625V21.4737Z" fill="#BC3F1E"/>
<path d="M166.625 37.5789H172V42.9474H166.625V37.5789Z" fill="#BC3F1E"/>
<path d="M193.5 59.0526H198.875V64.4211H193.5V59.0526Z" fill="#BC3F1E"/>
<path opacity="0.2" d="M96.75 5.36842H102.125V10.7368H96.75V5.36842Z" fill="#FFAAAB"/>
<path opacity="0.2" d="M96.75 21.4737H102.125V26.8421H96.75V21.4737Z" fill="#FFAAAB"/>
<path opacity="0.2" d="M96.75 37.5789H102.125V42.9474H96.75V37.5789Z" fill="#FFAAAB"/>
<path opacity="0.1" d="M86 5.36842H91.375V10.7368H86V5.36842Z" fill="#FFAAAB"/>
<path opacity="0.1" d="M86 21.4737H91.375V26.8421H86V21.4737Z" fill="#FFAAAB"/>
<path opacity="0.1" d="M86 37.5789H91.375V42.9474H86V37.5789Z" fill="#FFAAAB"/>
<path opacity="0.5" d="M123.625 21.4737H150.5V26.8421H123.625V21.4737Z" fill="#FFAAAB"/>
<path opacity="0.5" d="M123.625 5.36842H150.5V10.7368H123.625V5.36842Z" fill="#FFAAAB"/>
<path opacity="0.5" d="M123.625 37.5789H150.5V42.9474H123.625V37.5789Z" fill="#FFAAAB"/>
<path opacity="0.2" d="M0 64.4211H43V69.7895H0V64.4211Z" fill="black"/>
<path opacity="0.2" d="M10.75 42.9474H43V48.3158H10.75V42.9474Z" fill="black"/>
<path opacity="0.2" d="M10.75 26.8421H43V32.2105H10.75V26.8421Z" fill="black"/>
<path opacity="0.2" d="M10.75 10.7368H43V16.1053H10.75V10.7368Z" fill="black"/>
<path opacity="0.5" d="M32.25 69.7895H43V75.1579H32.25V69.7895Z" fill="black"/>
<path opacity="0.5" d="M172 69.7895H182.75V75.1579H172V69.7895Z" fill="black"/>
<path opacity="0.5" d="M32.25 48.3158H43V53.6842H32.25V48.3158Z" fill="black"/>
<path opacity="0.5" d="M32.25 32.2105H43V37.5789H32.25V32.2105Z" fill="black"/>
<path opacity="0.5" d="M32.25 16.1053H43V21.4737H32.25V16.1053Z" fill="black"/>
<path opacity="0.5" d="M172 32.2105H182.75V37.5789H172V32.2105Z" fill="black"/>
<path opacity="0.5" d="M172 16.1053H182.75V21.4737H172V16.1053Z" fill="black"/>
<path opacity="0.5" d="M172 48.3158H182.75V53.6842H172V48.3158Z" fill="black"/>
<path opacity="0.5" d="M172 75.1579H177.375V80.5263H172V75.1579Z" fill="black"/>
<path opacity="0.5" d="M32.25 75.1579H37.625V80.5263H32.25V75.1579Z" fill="black"/>
<g opacity="0.2">
<path d="M37.625 53.6842H43V59.0526H37.625V53.6842Z" fill="#FFAAAB"/>
<path d="M37.625 0H43V5.36842H37.625V0Z" fill="#FFAAAB"/>
<path d="M177.375 0H182.75V5.36842H177.375V0Z" fill="#FFAAAB"/>
<path d="M177.375 53.6842H182.75V59.0526H177.375V53.6842Z" fill="#FFAAAB"/>
</g>
<path opacity="0.2" d="M10.75 10.7368H21.5V16.1053H10.75V10.7368Z" fill="black"/>
<path opacity="0.2" d="M10.75 26.8421H21.5V32.2105H10.75V26.8421Z" fill="black"/>
<path opacity="0.2" d="M10.75 42.9474H21.5V48.3158H10.75V42.9474Z" fill="black"/>
<path opacity="0.2" d="M0 64.4211H21.5V69.7895H0V64.4211Z" fill="black"/>
<path opacity="0.2" d="M32.25 96.6316H43V102H32.25V96.6316Z" fill="black"/>
<path opacity="0.2" d="M172 96.6316H182.75V102H172V96.6316Z" fill="black"/>
</g>
<defs>
<clipPath id="clip0_73_8190">
<rect width="215" height="102" fill="white"/>
</clipPath>
</defs>
</svg>
