<svg width="22" height="22" viewBox="0 0 22 22" fill="none" xmlns="http://www.w3.org/2000/svg">
<path d="M19.25 19.25L13.75 13.75M15.5833 9.16667C15.5833 10.4358 15.207 11.6764 14.5019 12.7316C13.7969 13.7868 12.7947 14.6092 11.6222 15.0949C10.4497 15.5806 9.15955 15.7076 7.91484 15.46C6.67013 15.2125 5.52679 14.6013 4.6294 13.7039C3.73201 12.8065 3.12089 11.6632 2.8733 10.4185C2.62571 9.17378 2.75278 7.88361 3.23844 6.71111C3.7241 5.53862 4.54655 4.53648 5.60176 3.8314C6.65698 3.12633 7.89757 2.75 9.16667 2.75C10.8685 2.75 12.5006 3.42604 13.7039 4.6294C14.9073 5.83276 15.5833 7.46486 15.5833 9.16667Z" stroke="white" stroke-opacity="0.4" stroke-width="2" stroke-linecap="round" stroke-linejoin="round"/>
</svg>
