<svg width="315" height="110" viewBox="0 0 315 110" fill="none" xmlns="http://www.w3.org/2000/svg">
<g clip-path="url(#clip0_28_737)">
<path d="M299.071 84V78.5H282.679V67.5H266.286V62H249.893V67.5H233.5V73H228.036V62H217.107V56.5H189.786V62H178.857V67.5H173.393V73H167.929V78.5H162.464V84H151.536V78.5H146.071V73H140.607H135.143V67.5H118.75V73H107.821V62H102.357V56.5H96.8929V51H91.4286V45.5H80.5V40H69.5714H58.6429V45.5H53.1786V51H47.7143V56.5H42.25V62H36.7857V56.5H31.3214H25.8571V62H20.3929V67.5H14.9286V73H9.46429V78.5H4V89.5H9.46429V95H80.5H91.4286H96.8929H102.357H118.75H135.143H146.071H151.536H178.857H189.786H217.107H228.036H249.893H266.286H304.536V89.5H310V84H299.071Z" fill="#FF999A"/>
<path d="M260.821 89.5V84H255.357V89.5H249.893V84H238.964V78.5H233.5V73H228.036V78.5H222.571V84H211.643V89.5H184.321V84H178.857V73H184.321V67.5H189.786V62H178.857V67.5H173.393V73H167.929V78.5H162.464V84H151.536V89.5H135.143V84H129.679V89.5H124.214V84H118.75V73H113.286H107.821V78.5H113.286V84H107.821V89.5H96.8929V84H91.4286V89.5H85.9643V84H75.0357H64.1071V89.5H36.7857V84H20.3929V78.5H14.9286V73H9.46429V78.5H4V89.5H9.46429V95H14.9286H20.3929H304.536V89.5H260.821Z" fill="#5561D3"/>
<path d="M42.25 56.5H47.7143V73H42.25V56.5Z" fill="#5561D3"/>
<path d="M47.7143 73H53.1786V78.5H47.7143V73Z" fill="#5561D3"/>
<path d="M53.1786 78.5H64.1072V84H53.1786V78.5Z" fill="#5561D3"/>
<path d="M14.9286 67.5H20.3929V73H14.9286V67.5Z" fill="#5561D3"/>
<path d="M47.7143 51H53.1786V56.5H47.7143V51Z" fill="#5561D3"/>
<path d="M53.1786 45.5H58.6429V51H53.1786V45.5Z" fill="#5561D3"/>
<path d="M233.5 67.5H249.893V73H233.5V67.5Z" fill="#5561D3"/>
<path d="M14.9286 73H20.3929V78.5H14.9286V73Z" fill="#8E68E6"/>
<path d="M20.3929 78.5H36.7857V84H20.3929V78.5Z" fill="#8E68E6"/>
<path d="M20.3929 62H25.8572V73H20.3929V62Z" fill="#8E68E6"/>
<path d="M53.1786 78.5H47.7143V84H36.7857V89.5H64.1071V84H53.1786V78.5Z" fill="#8E68E6"/>
<path d="M64.1072 78.5V73H58.6429V51H53.1786V56.5H47.7143V73H53.1786V78.5H58.6429H64.1072Z" fill="#8E68E6"/>
<path d="M64.1072 78.5H85.9643V84H64.1072V78.5Z" fill="#8E68E6"/>
<path d="M85.9643 84H91.4286V89.5H85.9643V84Z" fill="#8E68E6"/>
<path d="M102.357 84H96.8929V89.5H107.821V84H113.286V78.5H102.357V84Z" fill="#8E68E6"/>
<path d="M64.1072 45.5H69.5715V40H64.1072H58.6429V51H64.1072V45.5Z" fill="#8E68E6"/>
<path d="M25.8572 56.5H31.3215V62H25.8572V56.5Z" fill="#8E68E6"/>
<path d="M178.857 73H184.321V84H178.857V73Z" fill="#8E68E6"/>
<path d="M184.321 84H211.643V89.5H184.321V84Z" fill="#8E68E6"/>
<path d="M211.643 78.5H222.571V84H211.643V78.5Z" fill="#8E68E6"/>
<path d="M195.25 62H200.714V56.5H189.786V62V67.5H195.25V62Z" fill="#8E68E6"/>
<path d="M184.321 67.5H189.786V73H184.321V67.5Z" fill="#8E68E6"/>
<path d="M233.5 78.5H238.964V84H249.893V89.5H255.357V84V78.5H249.893V73H233.5V78.5Z" fill="#8E68E6"/>
<path d="M299.071 84V78.5H293.607V84H260.821V89.5H310V84H299.071Z" fill="#8E68E6"/>
<path d="M249.893 62H255.357V73H249.893V62Z" fill="#8E68E6"/>
<path d="M255.357 62H260.821V67.5H255.357V62Z" fill="#FB6BA2"/>
<path d="M184.321 73H189.786V84H184.321V73Z" fill="#FB6BA2"/>
<path d="M211.643 73H228.036V78.5H211.643V73Z" fill="#FB6BA2"/>
<path d="M85.9643 78.5H102.357V84H85.9643V78.5Z" fill="#FB6BA2"/>
<path d="M102.357 62H107.821V78.5H102.357V62Z" fill="#FB6BA2"/>
<path d="M64.1071 73H85.9643V78.5H64.1071V73Z" fill="#FB6BA2"/>
<path d="M58.6428 62H64.1071V73H58.6428V62Z" fill="#FB6BA2"/>
<path d="M118.75 73H124.214V84H118.75V73Z" fill="#FB6BA2"/>
<path d="M124.214 84H129.679V89.5H124.214V84Z" fill="#FB6BA2"/>
<path d="M135.143 84H151.536V89.5H135.143V84Z" fill="#FB6BA2"/>
<path d="M255.357 78.5H293.607V84H255.357V78.5Z" fill="#FB6BA2"/>
<path d="M249.893 73H255.357V78.5H249.893V73Z" fill="#FB6BA2"/>
<path d="M64.1071 45.5H69.5714V51H64.1071V45.5Z" fill="#FB6BA2"/>
<path d="M69.5714 40H80.5V45.5H69.5714V40Z" fill="#FB6BA2"/>
<path d="M31.3214 56.5H36.7857V62H31.3214V56.5Z" fill="#FB6BA2"/>
<path d="M69.5714 56.5H75.0357V67.5H69.5714V56.5Z" fill="#FB6BA2"/>
<path d="M80.5 62H91.4286V67.5H80.5V62Z" fill="#FB6BA2"/>
<path d="M206.179 62H217.107V67.5H206.179V62Z" fill="#FB6BA2"/>
<path d="M200.714 78.5H211.643V84H200.714V78.5Z" fill="#FB6BA2"/>
<path d="M36.7857 78.5H47.7143V84H36.7857V78.5Z" fill="#FB6BA2"/>
<path d="M200.714 56.5H217.107V62H200.714V56.5Z" fill="#FFE14D"/>
<path d="M222.571 62H228.036V67.5H222.571V62Z" fill="#FFE14D"/>
<path d="M260.821 62H266.286V67.5H260.821V62Z" fill="#FFE14D"/>
<path d="M271.75 67.5H282.679V73H271.75V67.5Z" fill="#FFE14D"/>
<path d="M124.214 67.5H135.143V73H124.214V67.5Z" fill="#FFE14D"/>
<path d="M140.607 73H146.071V78.5H140.607V73Z" fill="#FFE14D"/>
<path d="M85.9643 45.5H91.4286V51H85.9643V45.5Z" fill="#FFE14D"/>
<path d="M91.4286 51H96.8929V56.5H91.4286V51Z" fill="#FFE14D"/>
<path d="M96.8928 56.5H102.357V62H96.8928V56.5Z" fill="#FFE14D"/>
<path d="M36.7857 62H42.25V67.5H36.7857V62Z" fill="#FFE14D"/>
</g>
<defs>
<clipPath id="clip0_28_737">
<rect width="306" height="55" fill="white" transform="translate(4 40)"/>
</clipPath>
</defs>
</svg>
