<svg width="631" height="103" viewBox="0 0 631 103" fill="none" xmlns="http://www.w3.org/2000/svg">
<g clip-path="url(#clip0_290_116)">
<path d="M630.932 0.0225348V17.1124V17.1163V34.1862V51.28H613.248V68.3525H595.797V85.8625H578.328V102.956H560.661H543.193H525.723H508.057H490.588H473.138V85.8625H455.453V68.3525H437.988V51.28H420.536V34.1862V17.1163H403.068V17.1124H385.617H385.616H368.148V34.1862V51.276H350.463V68.3512H333.014V85.8612H315.543V102.954H297.878H280.41H280.408H262.942H245.276H227.808H227.806H210.356V85.8599H192.671V68.3498H175.203V51.2747H157.753V34.1849V17.111H140.285H122.601H105.151H87.683H87.6816H69.9982H52.5451H35.0771V34.1849H17.4099H-0.0581055V17.111H17.4099H35.0771L35.0757 0.0212402H52.5464H69.9968H87.6803H105.15H122.6H140.282H140.284H157.752H175.202H192.67H192.671H210.353H227.804H245.273H262.939H280.407H280.408H297.876H315.542H333.01H333.011H350.461H368.145H385.613H403.065H420.533H437.983H455.453H473.138H490.588H508.057H525.723H543.193H560.661H578.328H595.797H613.248L630.932 0.0225348Z" fill="black"/>
<path d="M613.248 17.1124V34.1862V51.28H595.797V68.3525H578.328V85.8625H560.661H543.193H525.723H508.057H490.588H473.138V68.3525H455.453V51.28V34.1862H437.988V17.1124H455.457H473.142H490.592H508.061H525.727H543.197H560.665H578.332H595.801H613.248ZM333.013 17.1124H315.545H297.879H280.411H280.41H262.942H245.276H227.808H210.356H192.674H192.673H175.205V34.1862H192.673V51.276V68.3512H210.357V85.8612H227.808H227.809H245.277H262.943H280.411H297.88H315.546V68.3512H333.017V51.2747H350.466V34.1849V17.111H333.017H333.013V17.1124Z" fill="#7C6E6E"/>
<path d="M525.726 51.2787V68.3512H508.06V51.2787H525.726ZM490.591 34.1862V51.28H508.06V34.1862H490.591ZM473.14 68.3512H490.591V51.2787H473.14V68.3512ZM490.591 17.1124H473.14V34.1862H490.591V17.1124ZM455.455 34.1862V51.28H473.14V34.1862H455.455ZM437.987 17.1124V34.1862H455.457V17.1124H437.987ZM245.276 68.3499H262.941V51.2747H245.276V68.3499ZM227.808 34.1862V17.1124H210.354V34.1862H227.805V51.276H210.354V68.3512H227.808V51.2747H245.276V34.1849L227.808 34.1862ZM192.672 34.1862V17.1124H175.202V34.1862H192.67V51.276H210.354V34.1862H192.672Z" fill="white"/>
</g>
<defs>
<clipPath id="clip0_290_116">
<rect width="631" height="103" fill="white"/>
</clipPath>
</defs>
</svg>
