<svg width="128" height="128" viewBox="0 0 128 128" fill="none" xmlns="http://www.w3.org/2000/svg">
<path d="M109.72 79.24H115.8V91.44H109.72V79.24Z" fill="white"/>
<path d="M103.6 91.44H109.72V97.52H103.6V91.44Z" fill="white"/>
<path d="M103.6 73.16H109.72V79.24H103.6V73.16Z" fill="white"/>
<path d="M91.4004 97.52H103.6V103.6H91.4004V97.52Z" fill="white"/>
<path d="M97.52 42.68H103.6V73.16H97.52V42.68Z" fill="white"/>
<path d="M91.4004 85.32H97.5204V91.44H91.4004V85.32Z" fill="white"/>
<path d="M91.4004 30.48H97.5204V42.68H91.4004V30.48Z" fill="white"/>
<path d="M36.5601 85.32H48.7601V91.44H54.8401V97.52H73.1201V91.44H79.24V85.32H91.4001V79.24H36.5601V85.32Z" fill="white"/>
<path d="M85.3203 24.4H91.4003V30.48H85.3203V24.4Z" fill="white"/>
<path d="M36.5601 103.6H91.4001V109.72H36.5601V103.6Z" fill="white"/>
<path d="M73.1201 18.28H85.3201V24.4H73.1201V18.28Z" fill="white"/>
<path d="M54.8403 12.2H73.1203V18.28H54.8403V12.2Z" fill="white"/>
<path d="M42.6401 18.28H54.8401V24.4H42.6401V18.28Z" fill="white"/>
<path d="M36.5601 24.4H42.6401V30.48H36.5601V24.4Z" fill="white"/>
<path d="M24.3604 97.52H36.5604V103.6H24.3604V97.52Z" fill="white"/>
<path d="M30.48 85.32H36.56V91.44H30.48V85.32Z" fill="white"/>
<path d="M30.48 30.48H36.56V42.68H30.48V30.48Z" fill="white"/>
<path d="M24.3604 42.68H30.4804V73.16H24.3604V42.68Z" fill="white"/>
<path d="M18.2803 91.44H24.3603V97.52H18.2803V91.44Z" fill="white"/>
<path d="M18.2803 73.16H24.3603V79.24H18.2803V73.16Z" fill="white"/>
<path d="M12.2002 79.24H18.2802V91.44H12.2002V79.24Z" fill="white"/>
</svg>
