<svg width="50" height="50" viewBox="0 0 50 50" fill="none" xmlns="http://www.w3.org/2000/svg">
<g id="Frame" clip-path="url(#clip0_294_333)">
<g id="Group">
<path id="Vector" d="M47.625 40.4687H45.2344V42.8594H50V33.3281H47.625V40.4687Z" fill="white"/>
<path id="Vector_2" d="M45.2344 7.14062V9.51562H47.625V16.6719H50V7.14062H45.2344Z" fill="white"/>
<path id="Vector_3" d="M45.2344 30.9531H47.625V33.3281H45.2344V30.9531Z" fill="white"/>
<path id="Vector_4" d="M45.2344 16.6719H47.625V19.0469H45.2344V16.6719Z" fill="white"/>
<path id="Vector_5" d="M42.8594 38.0938H45.2344V40.4688H42.8594V38.0938Z" fill="white"/>
<path id="Vector_6" d="M42.8594 9.51562H45.2344V11.9062H42.8594V9.51562Z" fill="white"/>
<path id="Vector_7" d="M35.7188 35.7188V42.8594H38.0937V45.2344H40.4844V47.625H33.3438V50H45.2344V45.2344H42.8594V42.8594H40.4844V38.0937H42.8594V35.7188H35.7188Z" fill="white"/>
<path id="Vector_8" d="M35.7188 19.0469H45.2344V21.4219H35.7188V19.0469Z" fill="white"/>
<path id="Vector_9" d="M38.0938 4.76562H40.4844V7.14063H38.0938V4.76562Z" fill="white"/>
<path id="Vector_10" d="M35.7188 14.2813H42.8594V11.9062H38.0937V7.14062H35.7188V14.2813Z" fill="white"/>
<path id="Vector_11" d="M40.4844 2.375V4.76562H42.8594V0H33.3438V2.375H40.4844Z" fill="white"/>
<path id="Vector_12" d="M30.9531 45.2344H33.3438V47.625H30.9531V45.2344Z" fill="white"/>
<path id="Vector_13" d="M30.9531 30.9531H33.3438V33.3281H30.9531V30.9531Z" fill="white"/>
<path id="Vector_14" d="M30.9531 19.0469H28.5781V14.2813H23.8125V4.76562H21.4375V2.375H19.0469V0H7.14062V4.76562H9.53125V2.375H16.6719V4.76562H19.0469V14.2813H21.4375V16.6719H23.8125V19.0469H26.1875V21.4219H28.5781V23.8125H30.9531V26.1875H33.3437V28.5625H35.7188V30.9531H45.2344V28.5625H38.0937V26.1875H35.7188V21.4219H30.9531V19.0469Z" fill="white"/>
<path id="Vector_15" d="M30.9531 2.375H33.3438V4.76563H30.9531V2.375Z" fill="white"/>
<path id="Vector_16" d="M28.5781 35.7188H30.9531V45.2344H28.5781V35.7188Z" fill="white"/>
<path id="Vector_17" d="M28.5781 28.5625H30.9531V30.9531H28.5781V28.5625Z" fill="white"/>
<path id="Vector_18" d="M28.5781 4.76562H30.9531V14.2812H28.5781V4.76562Z" fill="white"/>
<path id="Vector_19" d="M26.1875 33.3281H28.5781V35.7188H26.1875V33.3281Z" fill="white"/>
<path id="Vector_20" d="M26.1875 26.1875H28.5781V28.5625H26.1875V26.1875Z" fill="white"/>
<path id="Vector_21" d="M23.8125 30.9531H26.1875V33.3281H23.8125V30.9531Z" fill="white"/>
<path id="Vector_22" d="M23.8125 23.8125H26.1875V26.1875H23.8125V23.8125Z" fill="white"/>
<path id="Vector_23" d="M21.4375 33.3281H23.8125V35.7188H21.4375V33.3281Z" fill="white"/>
<path id="Vector_24" d="M21.4375 28.5625H23.8125V30.9531H21.4375V28.5625Z" fill="white"/>
<path id="Vector_25" d="M21.4375 21.4219H23.8125V23.8125H21.4375V21.4219Z" fill="white"/>
<path id="Vector_26" d="M19.0469 35.7188H21.4375V45.2344H19.0469V35.7188Z" fill="white"/>
<path id="Vector_27" d="M19.0469 26.1875H21.4375V28.5625H19.0469V26.1875Z" fill="white"/>
<path id="Vector_28" d="M19.0469 19.0469H21.4375V21.4219H19.0469V19.0469Z" fill="white"/>
<path id="Vector_29" d="M16.6719 45.2344H19.0469V47.625H16.6719V45.2344Z" fill="white"/>
<path id="Vector_30" d="M16.6719 23.8125H19.0469V26.1875H16.6719V23.8125Z" fill="white"/>
<path id="Vector_31" d="M16.6719 16.6719H19.0469V19.0469H16.6719V16.6719Z" fill="white"/>
<path id="Vector_32" d="M14.2969 26.1875H16.6719V28.5625H14.2969V26.1875Z" fill="white"/>
<path id="Vector_33" d="M14.2969 21.4219H16.6719V23.8125H14.2969V21.4219Z" fill="white"/>
<path id="Vector_34" d="M9.53125 47.625V45.2344H7.14062V50H16.6719V47.625H9.53125Z" fill="white"/>
<path id="Vector_35" d="M14.2969 35.7188H7.14062V38.0937H11.9062V42.8594H14.2969V35.7188Z" fill="white"/>
<path id="Vector_36" d="M4.76562 19.0469H14.2969V21.4219H4.76562V19.0469Z" fill="white"/>
<path id="Vector_37" d="M9.53125 42.8594H11.9062V45.2344H9.53125V42.8594Z" fill="white"/>
<path id="Vector_38" d="M9.53125 4.76562H11.9062V7.14063H9.53125V4.76562Z" fill="white"/>
<path id="Vector_39" d="M4.76562 28.5625H14.2969V30.9531H4.76562V28.5625Z" fill="white"/>
<path id="Vector_40" d="M14.2969 14.2813V7.14062H11.9062V11.9062H7.14062V14.2813H14.2969Z" fill="white"/>
<path id="Vector_41" d="M4.76562 38.0938H7.14063V40.4688H4.76562V38.0938Z" fill="white"/>
<path id="Vector_42" d="M4.76562 9.51562H7.14063V11.9062H4.76562V9.51562Z" fill="white"/>
<path id="Vector_43" d="M2.39062 30.9531H4.76562V33.3281H2.39062V30.9531Z" fill="white"/>
<path id="Vector_44" d="M2.39062 16.6719H4.76562V19.0469H2.39062V16.6719Z" fill="white"/>
<path id="Vector_45" d="M2.39062 33.3281H0V42.8594H4.76562V40.4687H2.39062V33.3281Z" fill="white"/>
<path id="Vector_46" d="M2.39062 9.51562H4.76562V7.14062H0V16.6719H2.39062V9.51562Z" fill="white"/>
</g>
</g>
<defs>
<clipPath id="clip0_294_333">
<rect width="50" height="50" fill="white"/>
</clipPath>
</defs>
</svg>
