<svg xmlns="http://www.w3.org/2000/svg" xmlns:xlink="http://www.w3.org/1999/xlink" data-name="Layer 1" preserveAspectRatio="xMidYMid meet" version="1.0" viewBox="-0.2 -0.2 217.2 408.5" zoomAndPan="magnify" style="fill: rgb(0, 0, 0);" original_string_length="5241"><g id="__id175_sl94l3r2zn"><path d="M178.1 344.35L178.1 331.6 165.35 331.6 152.61 331.6 139.84 331.6 139.84 306.09 139.84 300.99 139.84 293.34 139.84 267.83 139.84 255.08 139.84 242.32 139.84 229.57 139.84 216.81 127.1 216.81 114.33 216.81 101.59 216.81 88.84 216.81 88.84 229.57 88.84 242.32 88.84 255.08 88.84 267.83 88.84 293.34 88.84 300.99 88.84 306.09 88.84 331.6 76.08 331.6 63.33 331.6 50.56 331.6 50.56 344.35 37.82 344.35 37.82 357.11 37.82 369.86 37.82 382.62 50.56 382.62 50.56 395.37 63.33 395.37 63.33 408.11 76.08 408.11 88.84 408.11 101.59 408.11 114.33 408.11 127.1 408.11 139.84 408.11 152.61 408.11 165.35 408.11 165.35 395.37 178.1 395.37 178.1 382.62 190.86 382.62 190.86 369.86 190.86 357.11 190.86 344.35 178.1 344.35z" style="fill: rgb(35, 31, 32);"/></g><g id="__id176_sl94l3r2zn"><path d="M203.73,64.11V51.45H191V38.81H178.31V26.17h-12.7V13.51h-12.7V.87H64V13.51H51.26V26.17H38.55V38.81H25.85V51.45H13.14V64.11H.44v88.52h12.7v12.66H25.85v12.64h12.7v12.65H51.26v12.65H64v12.64h88.94V203.23h12.7V190.58h12.7V177.93H191V165.29h12.7V152.63h12.71V64.11ZM191,89.3v12.76H178.26V89.3h-12.7V76.55h-12.7V63.81h-12.7V51h-12.7V38.3h25.4V51h12.7V63.81h12.7V76.55H191Zm0,32.2v18.82H178.26V114.81H191Z" style="fill: rgb(237, 28, 36);"/></g><g id="__id177_sl94l3r2zn"><path d="M153.05 344.34L140.29 344.34 127.54 344.34 127.54 357.1 114.78 357.1 102.03 357.1 102.03 344.34 89.28 344.34 76.52 344.34 76.52 357.1 76.52 369.85 76.52 382.61 89.28 382.61 102.03 382.61 114.78 382.61 127.54 382.61 140.29 382.61 153.05 382.61 153.05 369.85 165.8 369.85 165.8 357.1 165.8 344.34 153.05 344.34z" style="fill: rgb(164, 146, 169);"/></g><g id="__id178_sl94l3r2zn"><path d="M127.54 306.08L127.54 300.98 127.54 293.33 127.54 267.82 127.54 255.07 127.54 242.31 127.54 229.56 127.54 216.8 114.78 216.8 114.78 229.56 114.78 242.31 114.78 255.07 114.78 267.82 114.78 293.33 114.78 300.98 114.78 306.08 114.78 331.59 114.78 344.34 127.54 344.34 127.54 331.59 127.54 306.08z" style="fill: rgb(164, 146, 169);"/></g><g id="__id179_sl94l3r2zn"><path d="M165.8 357.1L165.8 369.85 153.05 369.85 153.05 382.61 140.29 382.61 127.54 382.61 114.78 382.61 102.03 382.61 89.28 382.61 76.52 382.61 76.52 369.85 76.52 357.1 76.52 344.34 63.77 344.34 63.77 357.1 51.01 357.1 51.01 369.85 51.01 382.61 63.77 382.61 63.77 395.36 76.52 395.36 89.28 395.36 102.03 395.36 114.78 395.36 127.54 395.36 140.29 395.36 153.05 395.36 165.8 395.36 165.8 382.61 178.54 382.61 178.54 369.85 178.54 357.1 165.8 357.1z" style="fill: rgb(131, 113, 137);"/></g><g id="__id180_sl94l3r2zn"><path d="M114.78 331.59L114.78 306.08 114.78 300.98 114.78 293.33 114.78 267.82 114.78 255.07 114.78 242.31 114.78 229.56 114.78 216.8 102.03 216.8 102.03 229.56 102.03 242.31 102.03 255.07 102.03 267.82 102.03 293.33 102.03 300.98 102.03 306.08 102.03 331.59 102.03 344.34 114.78 344.34 114.78 331.59z" style="fill: rgb(131, 113, 137);"/></g><g id="__id181_sl94l3r2zn"><path d="M140.29 331.59H153.04999999999998V344.34H140.29z" style="fill: rgb(131, 113, 137);"/></g><g id="__id182_sl94l3r2zn"><path d="M76.52 331.59H89.28V344.34H76.52z" style="fill: rgb(131, 113, 137);"/></g><g id="__id183_sl94l3r2zn"><path d="M165.8 89.27L165.8 76.52 153.05 76.52 153.05 63.77 140.29 63.77 140.29 51.01 127.54 51.01 127.54 49.81 127.54 35.87 114.78 35.87 102.03 35.87 89.28 35.87 76.52 35.87 76.52 49.81 63.77 49.81 63.77 63.77 47.44 63.77 47.44 76.52 47.44 89.27 47.44 102.03 47.44 114.78 47.44 121.46 47.44 127.54 47.44 140.29 47.44 153.03 63.77 153.03 63.77 167.96 76.52 167.96 76.52 182.87 89.28 182.87 102.03 182.87 114.78 182.87 127.54 182.87 140.29 182.87 153.05 182.87 153.05 167.96 165.8 167.96 165.8 154.87 178.54 154.87 178.54 140.29 178.54 127.54 178.54 121.46 178.54 114.78 178.54 102.03 178.54 89.27 165.8 89.27z" style="fill: rgb(205, 25, 10);"/></g><g id="__id184_sl94l3r2zn"><path d="M178.75 331.39L178.54 331.39 165.79 331.39 152.85 331.39 152.85 344.54 165.59 344.54 165.59 357.3 178.34 357.3 178.34 369.85 178.34 382.41 165.59 382.41 165.59 395.16 153.05 395.16 140.29 395.16 127.54 395.16 114.78 395.16 102.03 395.16 89.28 395.16 76.52 395.16 63.97 395.16 63.97 382.41 51.21 382.41 51.21 369.85 51.21 357.3 63.97 357.3 63.97 344.54 76.72 344.54 76.72 331.39 63.77 331.39 50.81 331.39 50.81 344.14 38.06 344.14 38.06 357.1 38.06 369.85 38.06 382.81 50.81 382.81 50.81 395.56 63.57 395.56 63.57 408.31 76.52 408.31 89.28 408.31 102.03 408.31 114.78 408.31 127.54 408.31 140.29 408.31 153.05 408.31 166 408.31 166 395.56 178.75 395.56 178.75 382.81 191.5 382.81 191.5 369.85 191.5 357.1 191.5 344.14 178.74 344.14 178.75 331.39z" style="fill: rgb(35, 31, 32);"/></g><g id="__id185_sl94l3r2zn"><path d="M204.25,63.57V50.81H191.51V38.06H178.74V25.31H166V12.55H153.25V-.2H63.57V12.55H50.81V25.31H38.06V38.06H25.31V50.81H12.55V63.57H-.2v89.66H12.55V166H25.31v12.74H38.06v12.77H50.81v12.74H63.57V217H89.08V344.54h12.75V357.3h25.91V344.54h12.75V217h12.76V204.25H166V191.51h12.74V178.74h12.77V166h12.74V153.23H217V63.57Zm-76.91,166V344.14H102.23V217h25.11Zm76.51-153v76.31H191.11V165.6H178.34v12.74H165.6v12.77H152.85v12.74H64V191.11H51.21V178.34H38.46V165.6H25.71V152.83H13V64H25.71V51.21H38.46V38.46H51.21V25.71H64V13h88.88V25.71H165.6V38.46h12.74V51.21h12.77V64h12.74Z" style="fill: rgb(35, 31, 32);"/></g></svg>