<svg xmlns="http://www.w3.org/2000/svg" viewBox="0 0 32 32"><title>email-mail-chat</title><g><path d="m22.1 15.24 0 1.52-3.05 0 0 1.53-9.14 0 0 1.52 4.57 0 0 1.52 1.52 0 0 1.53 1.53 0 0 1.52 6.09 0 0 1.52 1.53 0 0 1.53 1.52 0 0 1.52 1.52 0 0-6.09 1.53 0 0-1.53 1.52 0 0-6.09-1.52 0 0-1.53-1.53 0 0-1.52-3.04 0 0-4.57-1.53 0 0 7.62-1.52 0z" fill="#ffffff"></path><path d="M22.1 6.09h1.52v1.53H22.1Z" fill="#ffffff"></path><path d="M17.53 10.67h3.04v3.04h-3.04Z" fill="#ffffff"></path><path d="M19.05 4.57h3.05v1.52h-3.05Z" fill="#ffffff"></path><path d="M11.43 10.67h3.05v3.04h-3.05Z" fill="#ffffff"></path><path d="M8.38 19.81h1.53v1.52H8.38Z" fill="#ffffff"></path><path d="M6.86 3.05h12.19v1.52H6.86Z" fill="#ffffff"></path><path d="m6.86 18.29-1.52 0 0 6.09 1.52 0 0-1.52 1.52 0 0-1.53-1.52 0 0-3.04z" fill="#ffffff"></path><path d="M5.34 10.67h3.04v3.04H5.34Z" fill="#ffffff"></path><path d="M3.81 4.57h3.05v1.52H3.81Z" fill="#ffffff"></path><path d="M3.81 16.76h1.53v1.53H3.81Z" fill="#ffffff"></path><path d="M2.29 15.24h1.52v1.52H2.29Z" fill="#ffffff"></path><path d="M2.29 6.09h1.52v1.53H2.29Z" fill="#ffffff"></path><path d="M.76 7.62h1.53v7.62H.76Z" fill="#ffffff"></path></g></svg>