<svg height="64" preserveAspectRatio="none" viewBox="0 0 64 64" width="64" xmlns="http://www.w3.org/2000/svg" xmlns:xlink="http://www.w3.org/1999/xlink"><radialGradient id="a" cx="46.859375" cy="12.007812" fx="44.987671" fy="9.916715" gradientUnits="userSpaceOnUse" r="5.649414"><stop offset="0" stop-color="#fff"/><stop offset=".2946429" stop-color="#f5f5f5"/><stop offset="1" stop-color="#9c9c9d"/></radialGradient><g transform="matrix(5.0351096 0 0 5.0351096 -203.86237 -28.520635)"><path d="m46.859375 17.657227c-3.115234 0-5.649414-2.53418-5.649414-5.649414 0-3.1152349 2.53418-5.6494146 5.649414-5.6494146s5.649414 2.5341797 5.649414 5.6494146c0 3.115234-2.53418 5.649414-5.649414 5.649414z" fill="url(#a)"/><path d="m46.859245 6.6082916c2.977261 0 5.39943 2.4221687 5.39943 5.3994294 0 2.977261-2.422169 5.399441-5.39943 5.399441-2.97726 0-5.399441-2.42218-5.399441-5.399441 0-2.9772607 2.422181-5.3994294 5.399441-5.3994294m0-.5c-3.258171 0-5.899441 2.6412582-5.899441 5.8994294 0 3.258171 2.64127 5.899441 5.899441 5.899441 3.25816 0 5.89943-2.64127 5.89943-5.899441 0-3.2581712-2.64127-5.8994294-5.89943-5.8994294z" fill="#c6c7c8"/><path d="m46.859375 18.157227c-3.390625 0-6.149414-2.758789-6.149414-6.149414 0-3.3906255 2.758789-6.1494146 6.149414-6.1494146s6.149414 2.7587891 6.149414 6.1494146c0 3.390625-2.758789 6.149414-6.149414 6.149414zm0-11.7988286c-3.115234 0-5.649414 2.5341797-5.649414 5.6494146 0 3.115234 2.53418 5.649414 5.649414 5.649414s5.649414-2.53418 5.649414-5.649414c0-3.1152349-2.53418-5.6494146-5.649414-5.6494146z" fill="#595757"/></g></svg>