<svg width="126" height="118" viewBox="0 0 126 118" fill="none" xmlns="http://www.w3.org/2000/svg">
<g id="diamond 1" clip-path="url(#clip0_45_6069)">
<g id="__id149_sa53wlxsnp">
<path id="Vector" d="M95.7014 21.2917L94.1125 18.5396L91.3019 20.1623L89.7129 17.4101L86.9005 19.0339L85.3095 16.2782L82.4989 17.9009L80.91 15.1488L78.0993 16.7715L76.5114 14.0212L73.699 15.6449L72.108 12.8892L69.2974 14.5119L67.7085 11.7598L64.896 13.3835L62.0854 15.0062L59.2748 16.629L56.4624 18.2527L53.6518 19.8754L50.8394 21.4992L48.0287 23.1219L45.2181 24.7446L42.4057 26.3683L39.5951 27.991L36.7845 29.6137L33.9721 31.2375L31.1615 32.8602L28.349 34.484L25.5384 36.1067L22.7278 37.7294L19.9154 39.3531L21.5043 42.1052L18.6937 43.728L20.2847 46.4837L17.4723 48.1074L19.0602 50.8577L16.2496 52.4804L17.8385 55.2326L15.0279 56.8553L16.6189 59.611L13.8065 61.2347L15.3955 63.9869L12.5848 65.6096L14.1738 68.3617L11.3596 69.9865L12.9495 72.7404L14.5385 75.4925L17.3527 73.8677L18.9437 76.6234L21.7543 75.0007L23.3422 77.7511L26.1546 76.1273L27.7436 78.8794L30.5542 77.2567L32.1452 80.0124L34.9558 78.3897L36.5447 81.1418L39.3572 79.5181L40.9471 82.272L43.7578 80.6493L45.3467 83.4014L48.1591 81.7777L49.748 84.5298L52.5587 82.9071L54.1497 85.6628L56.9603 84.0401L58.5482 86.7904L61.3606 85.1667L62.9516 87.9224L65.7622 86.2996L67.3512 89.0518L70.1636 87.428L71.7525 90.1801L74.5631 88.5574L76.1531 91.3113L78.9637 89.6886L80.5527 92.4408L83.3651 90.817L81.7761 88.0649L84.5867 86.4422L82.9968 83.6883L85.8074 82.0656L84.2185 79.3134L87.0309 77.6897L85.4419 74.9376L88.2525 73.3149L86.6615 70.5591L89.474 68.9354L87.8861 66.1851L90.6967 64.5624L89.1057 61.8067L91.9163 60.1839L90.3273 57.4318L93.1398 55.8081L91.5508 53.056L94.3614 51.4332L92.7715 48.6793L95.5839 47.0556L93.9949 44.3035L96.8055 42.6807L95.2145 39.925L98.0252 38.3023L96.4362 35.5502L99.2486 33.9265L97.6607 31.1761L100.471 29.5534L98.8803 26.7977L101.695 25.1729L100.106 22.4208L98.5156 19.6669L95.7014 21.2917Z" fill="#FF786E"/>
</g>
<g id="__id150_sa53wlxsnp">
<path id="Vector_2" d="M94.4845 25.6375L91.6703 27.2623L88.8615 28.8839L86.0509 30.5066L83.2384 32.1304L80.4278 33.7531L77.6136 35.3779L74.8048 36.9996L76.4165 39.7911L78.0292 42.5844L75.2186 44.2071L76.8303 46.9986L78.4419 49.7901L75.6277 51.4149L77.2404 54.2082L78.8521 56.9997L76.0433 58.6214L77.656 61.4147L79.2677 64.2062L76.4535 65.831L78.0652 68.6225L79.6779 71.4158L76.8691 73.0375L78.4808 75.829L80.0935 78.6223L77.2829 80.245L78.8945 83.0365L80.5062 85.8281L83.3168 84.2053L81.7051 81.4138L84.514 79.7922L82.9023 77.0006L85.7165 75.3759L84.1038 72.5826L86.9126 70.9609L85.3009 68.1694L88.1151 66.5446L86.5024 63.7513L89.313 62.1286L87.7013 59.337L90.5102 57.7154L88.8985 54.9239L91.7127 53.2991L90.1 50.5058L92.9106 48.8831L91.2989 46.0915L94.1113 44.4678L92.4986 41.6745L95.3092 40.0518L93.6975 37.2603L96.5064 35.6386L94.8947 32.8471L97.7089 31.2223L96.0962 28.429L98.9068 26.8063L97.2951 24.0148L94.4845 25.6375Z" fill="#F84B90"/>
</g>
<g id="__id151_sa53wlxsnp">
<path id="Vector_3" d="M71.5804 31.4147L69.9688 28.6232L68.356 25.8299L65.5454 27.4526L63.9337 24.6611L62.3221 21.8696L59.5078 23.4944L57.8951 20.7011L55.0863 22.3227L52.2721 23.9475L49.4633 25.5692L46.6527 27.1919L43.8384 28.8167L41.0296 30.4384L38.219 32.0611L35.4048 33.6859L32.596 35.3075L34.2087 38.1008L31.3945 39.7256L33.0062 42.5171L34.6179 45.3087L31.8072 46.9314L33.42 49.7247L35.0316 52.5162L32.2228 54.1379L33.8345 56.9294L35.4472 59.7227L32.633 61.3475L29.8242 62.9691L27.01 64.5939L24.1994 66.2166L21.3905 67.8383L18.5763 69.4631L15.7657 71.0858L17.3774 73.8773L20.188 72.2546L21.8007 75.0479L24.6149 73.4231L26.2266 76.2146L29.0354 74.593L30.6471 77.3845L33.4577 75.7618L35.0705 78.5551L37.8847 76.9303L39.4964 79.7218L42.3052 78.1001L43.9179 80.8934L46.7321 79.2687L48.3438 82.0602L51.1526 80.4385L52.7643 83.23L55.5749 81.6073L57.1876 84.4006L60.0018 82.7758L61.6135 85.5673L64.4223 83.9457L66.035 86.739L68.8493 85.1142L70.4609 87.9057L73.2716 86.283L74.8832 89.0745L77.692 87.4528L76.0804 84.6613L74.4687 81.8698L71.6599 83.4915L70.0472 80.6982L68.4355 77.9067L65.6249 79.5294L64.0121 76.7361L62.4005 73.9445L59.5862 75.5693L57.9746 72.7778L56.3618 69.9845L53.553 71.6062L51.9413 68.8147L50.3286 66.0214L47.5144 67.6462L45.9027 64.8546L44.291 62.0631L41.4804 63.6858L39.8677 60.8925L38.256 58.101L41.0666 56.4783L43.8809 54.8535L46.6897 53.2318L49.5039 51.6071L52.3145 49.9843L55.1233 48.3627L57.9375 46.7379L60.7482 45.1152L63.557 43.4935L66.3712 41.8687L69.18 40.247L71.9942 38.6223L74.8048 36.9996L77.6136 35.3779L76.0009 32.5846L74.3893 29.7931L71.5804 31.4147Z" fill="#FFC5DF"/>
</g>
<g id="__id152_sa53wlxsnp">
<path id="Vector_4" d="M29.7818 36.9323L26.9712 38.555L24.1623 40.1767L21.3481 41.8015L22.9608 44.5948L20.152 46.2165L21.7637 49.008L18.9495 50.6328L20.5612 53.4243L17.7506 55.047L19.3633 57.8403L16.5545 59.462L18.1661 62.2535L15.3519 63.8783L16.9636 66.6698L14.153 68.2925L15.7657 71.0858L18.5763 69.4631L21.3905 67.8383L24.1994 66.2166L27.01 64.5939L29.8242 62.9691L32.633 61.3475L35.4472 59.7227L33.8345 56.9294L32.2228 54.1379L35.0316 52.5162L33.42 49.7247L31.8072 46.9314L34.6179 45.3087L33.0062 42.5171L31.3945 39.7256L34.2087 38.1008L32.596 35.3075L29.7818 36.9323Z" fill="white"/>
</g>
<g id="__id153_sa53wlxsnp">
<path id="Vector_5" d="M95.6976 21.1769L94.0807 18.3764L91.2755 19.996L89.6639 17.2045L86.8496 18.8293L85.2369 16.036L82.4281 17.6576L80.8164 14.8661L78.0058 16.4888L76.3952 13.6991L73.5827 15.3229L71.969 12.5278L69.1584 14.1505L67.5467 11.359L19.6869 38.9908L21.2986 41.7823L18.4808 43.4092L20.0945 46.2043L17.2821 47.828L18.8928 50.6178L16.0821 52.2405L17.6938 55.032L14.885 56.6537L16.4977 59.447L13.6853 61.0707L15.297 63.8622L12.4846 65.486L14.1014 68.2864L11.289 69.9102L14.5548 75.5666L17.3672 73.9429L18.9799 76.7362L21.7923 75.1124L23.404 77.904L26.2164 76.2802L27.8281 79.0717L30.6369 77.4501L32.2496 80.2434L35.0602 78.6207L36.6719 81.4122L39.4843 79.7884L41.0971 82.5817L43.9149 80.9549L45.5214 83.7374L48.3356 82.1126L49.9473 84.9041L52.7561 83.2825L54.3688 86.0758L57.1794 84.4531L58.7911 87.2446L61.6053 85.6198L63.2181 88.4131L66.0269 86.7914L67.6385 89.583L70.4528 87.9582L72.0644 90.7497L74.8751 89.127L76.4878 91.9203L79.2966 90.2986L80.9083 93.0901L83.7928 91.4247L82.1811 88.6332L84.9845 87.0147L83.3718 84.2214L86.1824 82.5987L84.5707 79.8071L87.385 78.1824L85.7733 75.3908L88.5821 73.7692L86.9694 70.9759L89.7836 69.3511L88.1719 66.5596L90.9825 64.9369L89.3698 62.1435L92.1786 60.5219L90.5669 57.7304L93.3812 56.1056L91.7695 53.314L94.5801 51.6913L92.9674 48.898L95.7798 47.2743L94.1681 44.4828L96.9787 42.8601L95.366 40.0668L98.1748 38.4451L96.5631 35.6536L99.3774 34.0288L97.7657 31.2373L100.571 29.6177L98.9582 26.8244L101.771 25.2006L98.51 19.5531L95.6976 21.1769ZM97.2589 24.0476L98.8499 26.8033L96.0375 28.4271L97.6502 31.2204L94.8432 32.841L96.4548 35.6325L93.646 37.2542L95.2577 40.0457L92.4471 41.6684L94.0598 44.4617L91.2474 46.0855L92.8591 48.877L90.0485 50.4997L91.6612 53.293L88.847 54.9178L90.4535 57.7004L87.6447 59.322L89.2564 62.1136L86.4457 63.7363L88.0584 66.5296L85.2442 68.1544L86.8559 70.9459L84.0471 72.5675L85.6598 75.3608L82.8456 76.9856L84.4573 79.7772L81.6467 81.3999L83.2583 84.1914L80.4495 85.813L82.0623 88.6064L79.3201 90.1895L77.7074 87.3962L74.8986 89.0179L73.2869 86.2264L70.4763 87.8491L68.8646 85.0575L66.0504 86.6823L64.4377 83.889L61.6271 85.5117L60.0154 82.7202L57.203 84.344L55.5903 81.5507L52.7797 83.1734L51.168 80.3819L48.3646 82.0004L46.7529 79.2089L43.9333 80.8368L42.3205 78.0435L39.5099 79.6662L37.8982 76.8747L35.0858 78.4984L33.4731 75.7051L30.6625 77.3278L29.0508 74.5363L26.242 76.158L24.6303 73.3665L21.8161 74.9913L20.2034 72.198L17.3928 73.8207L14.2097 68.3075L17.0203 66.6848L15.4087 63.8933L18.2229 62.2685L16.6112 59.477L19.42 57.8553L17.8073 55.062L20.6179 53.4393L19.0083 50.6513L21.8207 49.0276L20.207 46.2325L23.0176 44.6098L21.4049 41.8165L69.1276 14.2637L70.7403 17.057L73.5509 15.4343L75.1647 18.2294L77.9771 16.6057L79.5867 19.3936L82.3973 17.7709L84.0101 20.5642L86.8189 18.9425L88.4306 21.734L91.2376 20.1134L92.8492 22.9049L95.6599 21.2822L97.2589 24.0476Z" fill="#260930"/>
</g>
</g>
<defs>
<clipPath id="clip0_45_6069">
<rect width="100.714" height="77.4724" fill="white" transform="translate(0 50.3571) rotate(-30)"/>
</clipPath>
</defs>
</svg>
