<svg xmlns="http://www.w3.org/2000/svg" viewBox="0 0 200 200" height="200" width="200"><title>interface-essential-notification-alert</title><g><path d="M190.4375 161.875H200v19.0625h-9.5625Z" fill="#5970e4" stroke-width="6.25"></path><path d="M190.4375 19.0625H200V38.125h-9.5625Z" fill="#5970e4" stroke-width="6.25"></path><path d="M180.9375 180.9375h9.5v9.5625h-9.5Z" fill="#5970e4" stroke-width="6.25"></path><path d="M180.9375 9.5h9.5v9.5625h-9.5Z" fill="#5970e4" stroke-width="6.25"></path><path d="M171.4375 161.875h9.5v9.5625h-9.5Z" fill="#5970e4" stroke-width="6.25"></path><path d="M171.4375 123.81249999999999h9.5v19.0625h-9.5Z" fill="#5970e4" stroke-width="6.25"></path><path d="M171.4375 28.5625h9.5V38.125h-9.5Z" fill="#5970e4" stroke-width="6.25"></path><path d="M161.875 0h19.0625v9.5H161.875Z" fill="#5970e4" stroke-width="6.25"></path><path d="M161.875 190.5h19.0625V200H161.875Z" fill="#5970e4" stroke-width="6.25"></path><path d="M161.875 171.4375h9.5625v9.5H161.875Z" fill="#5970e4" stroke-width="6.25"></path><path d="M161.875 142.875h9.5625v9.5H161.875Z" fill="#5970e4" stroke-width="6.25"></path><path d="M161.875 114.3125h9.5625v9.5H161.875Z" fill="#5970e4" stroke-width="6.25"></path><path d="M161.875 19.0625h9.5625v9.5H161.875Z" fill="#5970e4" stroke-width="6.25"></path><path d="M142.8125 152.375h19.0625v9.5h-19.0625Z" fill="#5970e4" stroke-width="6.25"></path><path d="M152.375 66.6875h9.5v47.625h-9.5Z" fill="#5970e4" stroke-width="6.25"></path><path d="M142.8125 133.3125h9.5625v9.5625h-9.5625Z" fill="#5970e4" stroke-width="6.25"></path><path d="M142.8125 47.625h9.5625v19.0625h-9.5625Z" fill="#5970e4" stroke-width="6.25"></path><path d="m57.125 133.3125 19.0625 0 0 9.5625 9.5 0 0 9.5 28.5625 0 0 -9.5 9.5625 0 0 -9.5625 19 0 0 -9.5 -85.6875 0 0 9.5z" fill="#5970e4" stroke-width="6.25"></path><path d="M133.3125 38.125h9.5v9.5h-9.5Z" fill="#5970e4" stroke-width="6.25"></path><path d="M57.125 161.875h85.6875v9.5625H57.125Z" fill="#5970e4" stroke-width="6.25"></path><path d="M114.25 28.5625h19.0625V38.125h-19.0625Z" fill="#5970e4" stroke-width="6.25"></path><path d="M85.6875 19.0625h28.5625v9.5h-28.5625Z" fill="#5970e4" stroke-width="6.25"></path><path d="M66.625 28.5625h19.0625V38.125h-19.0625Z" fill="#5970e4" stroke-width="6.25"></path><path d="M57.125 38.125h9.5v9.5H57.125Z" fill="#5970e4" stroke-width="6.25"></path><path d="M38.0625 152.375h19.0625v9.5H38.0625Z" fill="#5970e4" stroke-width="6.25"></path><path d="M47.625 133.3125h9.5v9.5625H47.625Z" fill="#5970e4" stroke-width="6.25"></path><path d="M47.625 47.625h9.5v19.0625H47.625Z" fill="#5970e4" stroke-width="6.25"></path><path d="M38.0625 66.6875h9.5625v47.625H38.0625Z" fill="#5970e4" stroke-width="6.25"></path><path d="M28.5625 171.4375h9.5v9.5H28.5625Z" fill="#5970e4" stroke-width="6.25"></path><path d="M28.5625 142.875h9.5v9.5H28.5625Z" fill="#5970e4" stroke-width="6.25"></path><path d="M28.5625 114.3125h9.5v9.5H28.5625Z" fill="#5970e4" stroke-width="6.25"></path><path d="M28.5625 19.0625h9.5v9.5H28.5625Z" fill="#5970e4" stroke-width="6.25"></path><path d="M19.0625 0h19v9.5H19.0625Z" fill="#5970e4" stroke-width="6.25"></path><path d="M19.0625 190.5h19V200H19.0625Z" fill="#5970e4" stroke-width="6.25"></path><path d="M19.0625 161.875h9.5v9.5625H19.0625Z" fill="#5970e4" stroke-width="6.25"></path><path d="M19.0625 123.81249999999999h9.5v19.0625H19.0625Z" fill="#5970e4" stroke-width="6.25"></path><path d="M19.0625 28.5625h9.5V38.125H19.0625Z" fill="#5970e4" stroke-width="6.25"></path><path d="M9.5 180.9375h9.5625v9.5625H9.5Z" fill="#5970e4" stroke-width="6.25"></path><path d="M9.5 9.5h9.5625v9.5625H9.5Z" fill="#5970e4" stroke-width="6.25"></path><path d="M0 161.875h9.5v19.0625H0Z" fill="#5970e4" stroke-width="6.25"></path><path d="M0 19.0625h9.5V38.125H0Z" fill="#5970e4" stroke-width="6.25"></path></g></svg>