<svg width="54" height="57" viewBox="0 0 54 57" fill="none" xmlns="http://www.w3.org/2000/svg">
<g id="Group">
<path id="Vector" d="M0 30.2306H5.32V27.5706H7.9975V24.8931H10.6575V22.2331H13.335V19.5731H15.995V16.8956H18.655V14.2356H21.3325V11.5581H23.9925V8.89806H29.33V11.5581H31.99V14.2356H34.6675V16.8956H37.3275V19.5731H39.9875V22.2331H42.665V24.8931H45.325V27.5706H47.985V30.2306H53.3225V24.8931H50.6625V22.2331H47.985V19.5731H45.325V16.8956H42.665V14.2356H39.9875V11.5581H37.3275V8.89806H34.6675V6.23806H31.99V3.56056H29.33V0.900558H23.9925V3.56056H21.3325V6.23806H18.655V8.89806H15.995V11.5581H13.335V14.2356H10.6575V16.8956H7.9975V19.5731H5.32V22.2331H2.66V24.8931H0V30.2306Z" fill="white"/>
<path id="Vector_2" d="M45.325 54.2406H34.6675V40.9056H31.99V56.9006H47.985V32.8906H45.325V54.2406Z" fill="white"/>
<path id="Vector_3" d="M42.665 30.2306H45.325V32.8906H42.665V30.2306Z" fill="white"/>
<path id="Vector_4" d="M39.9875 27.5706H42.6651V30.2306H39.9875V27.5706Z" fill="white"/>
<path id="Vector_5" d="M37.3274 24.8931H39.9874V27.5706H37.3274V24.8931Z" fill="white"/>
<path id="Vector_6" d="M34.6675 22.2331H37.3275V24.8931H34.6675V22.2331Z" fill="white"/>
<path id="Vector_7" d="M31.99 19.5731H34.6675V22.2331H31.99V19.5731Z" fill="white"/>
<path id="Vector_8" d="M29.3301 38.2281H31.9901V40.9056H29.3301V38.2281Z" fill="white"/>
<path id="Vector_9" d="M29.3301 16.8956H31.9901V19.5731H29.3301V16.8956Z" fill="white"/>
<path id="Vector_10" d="M23.9924 35.5681H29.3299V38.2281H23.9924V35.5681Z" fill="white"/>
<path id="Vector_11" d="M23.9924 14.2356H29.3299V16.8956H23.9924V14.2356Z" fill="white"/>
<path id="Vector_12" d="M21.3325 38.2281H23.9925V40.9056H21.3325V38.2281Z" fill="white"/>
<path id="Vector_13" d="M21.3325 16.8956H23.9925V19.5731H21.3325V16.8956Z" fill="white"/>
<path id="Vector_14" d="M21.3326 40.9056H18.6551V54.2406H7.99757V32.8906H5.32007V56.9006H21.3326V40.9056Z" fill="white"/>
<path id="Vector_15" d="M18.655 19.5731H21.3325V22.2331H18.655V19.5731Z" fill="white"/>
<path id="Vector_16" d="M15.9951 22.2331H18.6551V24.8931H15.9951V22.2331Z" fill="white"/>
<path id="Vector_17" d="M13.335 24.8931H15.995V27.5706H13.335V24.8931Z" fill="white"/>
<path id="Vector_18" d="M10.6575 27.5706H13.335V30.2306H10.6575V27.5706Z" fill="white"/>
<path id="Vector_19" d="M7.99756 30.2306H10.6576V32.8906H7.99756V30.2306Z" fill="white"/>
</g>
</svg>
