<svg width="70" height="65" viewBox="0 0 70 65" fill="none" xmlns="http://www.w3.org/2000/svg">
<g id="diamond 2" clip-path="url(#clip0_45_6080)">
<g id="__id149_sa53wlxsnp">
<path id="Vector" d="M52.4373 11.6664L51.5667 10.1584L50.0267 11.0476L49.156 9.53961L47.615 10.4293L46.7433 8.91939L45.2033 9.80851L44.3327 8.30055L42.7927 9.18967L41.9226 7.6827L40.3816 8.57239L39.5098 7.06247L37.9698 7.95159L37.0992 6.44363L35.5582 7.33333L34.0182 8.22245L32.4782 9.11158L30.9372 10.0013L29.3972 10.8904L27.8562 11.7801L26.3162 12.6692L24.7762 13.5583L23.2352 14.448L21.6952 15.3372L20.1552 16.2263L18.6142 17.116L17.0742 18.0051L15.5332 18.8948L13.9932 19.7839L12.4532 20.673L10.9122 21.5627L11.7828 23.0707L10.2428 23.9598L11.1145 25.4697L9.57355 26.3594L10.4436 27.8664L8.9036 28.7555L9.77422 30.2635L8.23421 31.1526L9.10596 32.6625L7.56497 33.5522L8.43559 35.0602L6.89558 35.9493L7.7662 37.4573L6.22422 38.3475L7.0954 39.8565L7.96602 41.3644L9.50801 40.4742L10.3798 41.9841L11.9198 41.095L12.7898 42.6019L14.3308 41.7122L15.2014 43.2202L16.7414 42.3311L17.6132 43.841L19.1532 42.9519L20.0238 44.4598L21.5648 43.5701L22.436 45.0791L23.976 44.19L24.8466 45.6979L26.3876 44.8082L27.2583 46.3162L28.7983 45.4271L29.67 46.937L31.21 46.0479L32.0801 47.5548L33.6211 46.6651L34.4928 48.1751L36.0328 47.2859L36.9035 48.7939L38.4444 47.9042L39.3151 49.4122L40.8551 48.523L41.7263 50.032L43.2663 49.1429L44.1369 50.6508L45.6779 49.7611L44.8073 48.2532L46.3473 47.364L45.4761 45.8551L47.0161 44.966L46.1455 43.458L47.6865 42.5683L46.8158 41.0604L48.3559 40.1712L47.4841 38.6613L49.0251 37.7716L48.155 36.2646L49.6951 35.3755L48.8233 33.8656L50.3633 32.9765L49.4927 31.4685L51.0337 30.5788L50.1631 29.0709L51.7031 28.1817L50.8319 26.6728L52.3729 25.7831L51.5023 24.2751L53.0423 23.386L52.1705 21.8761L53.7105 20.987L52.8399 19.479L54.3809 18.5893L53.5108 17.0823L55.0508 16.1932L54.1791 14.6833L55.7211 13.793L54.8505 12.2851L53.9793 10.7761L52.4373 11.6664Z" fill="#6A3B79"/>
</g>
<g id="__id150_sa53wlxsnp">
<path id="Vector_2" d="M51.7705 14.0475L50.2285 14.9378L48.6895 15.8264L47.1495 16.7155L45.6085 17.6052L44.0685 18.4943L42.5265 19.3846L40.9875 20.2731L41.8706 21.8027L42.7542 23.3332L41.2142 24.2223L42.0973 25.7519L42.9804 27.2814L41.4384 28.1717L42.3221 29.7022L43.2051 31.2317L41.6661 32.1203L42.5498 33.6508L43.4328 35.1804L41.8909 36.0706L42.7739 37.6002L43.6576 39.1307L42.1186 40.0192L43.0017 41.5488L43.8853 43.0793L42.3453 43.9684L43.2284 45.498L44.1115 47.0275L45.6515 46.1384L44.7684 44.6088L46.3074 43.7203L45.4243 42.1908L46.9663 41.3005L46.0827 39.77L47.6217 38.8814L46.7386 37.3519L48.2806 36.4616L47.3969 34.9311L48.9369 34.042L48.0539 32.5124L49.5929 31.6239L48.7098 30.0943L50.2518 29.2041L49.3681 27.6735L50.9081 26.7844L50.0251 25.2549L51.5661 24.3652L50.6824 22.8346L52.2224 21.9455L51.3393 20.416L52.8783 19.5274L51.9953 17.9979L53.5372 17.1076L52.6536 15.5771L54.1936 14.688L53.3105 13.1584L51.7705 14.0475Z" fill="#894EA8" fill-opacity="0.917647"/>
</g>
<g id="__id151_sa53wlxsnp">
<path id="Vector_3" d="M39.2208 17.2131L38.3377 15.6835L37.4541 14.153L35.9141 15.0421L35.031 13.5126L34.1479 11.983L32.6059 12.8733L31.7223 11.3428L30.1832 12.2313L28.6413 13.1216L27.1022 14.0101L25.5622 14.8993L24.0202 15.7895L22.4812 16.6781L20.9412 17.5672L19.3992 18.4575L17.8602 19.346L18.7439 20.8765L17.2019 21.7668L18.085 23.2964L18.968 24.8259L17.428 25.715L18.3117 27.2455L19.1948 28.7751L17.6557 29.6636L18.5388 31.1932L19.4225 32.7237L17.8805 33.614L16.3415 34.5025L14.7995 35.3928L13.2595 36.2819L11.7205 37.1705L10.1785 38.0607L8.63847 38.9499L9.52156 40.4794L11.0616 39.5903L11.9452 41.1208L13.4872 40.2305L14.3703 41.7601L15.9093 40.8715L16.7924 42.4011L18.3324 41.5119L19.216 43.0425L20.758 42.1522L21.6411 43.6817L23.1801 42.7932L24.0638 44.3237L25.6058 43.4335L26.4888 44.963L28.0279 44.0744L28.9109 45.604L30.4509 44.7149L31.3346 46.2454L32.8766 45.3551L33.7597 46.8847L35.2987 45.9961L36.1823 47.5266L37.7243 46.6364L38.6074 48.1659L40.1474 47.2768L41.0305 48.8063L42.5695 47.9178L41.6864 46.3882L40.8033 44.8587L39.2643 45.7472L38.3807 44.2167L37.4976 42.6872L35.9576 43.5763L35.0739 42.0458L34.1908 40.5162L32.6489 41.4065L31.7658 39.877L30.8821 38.3464L29.3431 39.235L28.46 37.7054L27.5764 36.1749L26.0344 37.0652L25.1513 35.5356L24.2682 34.0061L22.7282 34.8952L21.8446 33.3647L20.9615 31.8352L22.5015 30.946L24.0435 30.0558L25.5825 29.1672L27.1245 28.2769L28.6645 27.3878L30.2035 26.4993L31.7455 25.609L33.2855 24.7199L34.8245 23.8313L36.3665 22.9411L37.9055 22.0525L39.4475 21.1622L40.9875 20.2731L42.5265 19.3846L41.6429 17.854L40.7598 16.3245L39.2208 17.2131Z" fill="#FFC5DF"/>
</g>
<g id="__id152_sa53wlxsnp">
<path id="Vector_4" d="M16.3182 20.2363L14.7782 21.1254L13.2392 22.014L11.6972 22.9042L12.5809 24.4348L11.0419 25.3233L11.9249 26.8528L10.3829 27.7431L11.266 29.2727L9.72602 30.1618L10.6097 31.6923L9.07065 32.5809L9.95373 34.1104L8.41175 35.0007L9.29483 36.5302L7.75483 37.4193L8.63847 38.9499L10.1785 38.0607L11.7205 37.1705L13.2595 36.2819L14.7995 35.3928L16.3415 34.5025L17.8805 33.614L19.4225 32.7237L18.5388 31.1932L17.6557 29.6636L19.1948 28.7751L18.3117 27.2455L17.428 25.715L18.968 24.8259L18.085 23.2964L17.2019 21.7668L18.7439 20.8765L17.8602 19.346L16.3182 20.2363Z" fill="white"/>
</g>
<g id="__id153_sa53wlxsnp">
<path id="Vector_5" d="M52.4352 11.6035L51.5492 10.069L50.0122 10.9564L49.1291 9.4269L47.5871 10.3172L46.7035 8.78664L45.1645 9.67519L44.2814 8.14565L42.7414 9.03477L41.8589 7.50621L40.3179 8.39591L39.4337 6.8644L37.8936 7.75352L37.0106 6.22398L10.787 21.3642L11.6701 22.8937L10.1261 23.7851L11.0103 25.3166L9.46931 26.2063L10.3518 27.7349L8.81182 28.624L9.6949 30.1536L8.15588 31.0421L9.03953 32.5726L7.49853 33.4623L8.38162 34.9919L6.84062 35.8816L7.72653 37.416L6.18554 38.3057L7.97493 41.405L9.51592 40.5153L10.3996 42.0458L11.9406 41.1562L12.8236 42.6857L14.3646 41.796L15.2477 43.3255L16.7867 42.437L17.6704 43.9675L19.2104 43.0784L20.0935 44.6079L21.6345 43.7182L22.5181 45.2488L24.0621 44.3574L24.9423 45.882L26.4843 44.9917L27.3674 46.5213L28.9064 45.6327L29.7901 47.1632L31.3301 46.2741L32.2132 47.8037L33.7551 46.9134L34.6388 48.4439L36.1778 47.5554L37.0609 49.0849L38.6029 48.1947L39.486 49.7242L41.026 48.8351L41.9096 50.3656L43.4486 49.477L44.3317 51.0066L45.9122 50.0941L45.0291 48.5645L46.5652 47.6777L45.6815 46.1472L47.2216 45.258L46.3385 43.7285L47.8805 42.8382L46.9974 41.3087L48.5364 40.4201L47.6528 38.8896L49.1947 37.9994L48.3117 36.4698L49.8517 35.5807L48.968 34.0502L50.507 33.1616L49.6239 31.6321L51.1659 30.7418L50.2828 29.2123L51.8229 28.3231L50.9392 26.7926L52.4802 25.9029L51.5971 24.3734L53.1371 23.4842L52.2535 21.9537L53.7925 21.0652L52.9094 19.5356L54.4514 18.6454L53.5683 17.1158L55.1054 16.2284L54.2217 14.6979L55.7627 13.8082L53.9762 10.7138L52.4352 11.6035ZM53.2906 13.1764L54.1624 14.6864L52.6214 15.5761L53.505 17.1066L51.967 17.9946L52.8501 19.5241L51.3111 20.4127L52.1941 21.9422L50.6541 22.8313L51.5378 24.3618L49.9968 25.2515L50.8799 26.7811L49.3399 27.6702L50.2235 29.2007L48.6815 30.091L49.5618 31.6156L48.0228 32.5042L48.9058 34.0337L47.3658 34.9229L48.2495 36.4534L46.7075 37.3436L47.5906 38.8732L46.0516 39.7617L46.9352 41.2923L45.3932 42.1825L46.2763 43.7121L44.7363 44.6012L45.6194 46.1307L44.0804 47.0193L44.964 48.5498L43.4615 49.4173L42.5779 47.8867L41.0389 48.7753L40.1558 47.2457L38.6158 48.1349L37.7327 46.6053L36.1907 47.4956L35.3071 45.9651L33.7671 46.8542L32.884 45.3247L31.343 46.2143L30.4593 44.6838L28.9193 45.5729L28.0362 44.0434L26.5002 44.9302L25.6171 43.4007L24.0722 44.2927L23.1885 42.7622L21.6485 43.6513L20.7654 42.1217L19.2244 43.0114L18.3408 41.4809L16.8008 42.37L15.9177 40.8405L14.3787 41.729L13.4956 40.1995L11.9536 41.0898L11.07 39.5592L9.52994 40.4484L7.78587 37.4275L9.32588 36.5384L8.4428 35.0089L9.98478 34.1186L9.1017 32.5891L10.6407 31.7005L9.75707 30.17L11.2971 29.2809L10.4151 27.7533L11.9561 26.8636L11.0719 25.3321L12.6119 24.443L11.7283 22.9124L37.8768 7.81558L38.7604 9.3461L40.3004 8.45698L41.1847 9.98849L42.7257 9.09879L43.6076 10.6264L45.1476 9.73725L46.0313 11.2678L47.5703 10.3792L48.4534 11.9088L49.9914 11.0208L50.8745 12.5503L52.4145 11.6612L53.2906 13.1764Z" fill="#260930"/>
</g>
</g>
<defs>
<clipPath id="clip0_45_6080">
<rect width="55.1838" height="42.4491" fill="white" transform="translate(0 27.592) rotate(-30)"/>
</clipPath>
</defs>
</svg>
