<?xml version="1.0" encoding="UTF-8"?><svg xmlns="http://www.w3.org/2000/svg" xmlns:xlink="http://www.w3.org/1999/xlink" height="75.0" preserveAspectRatio="xMidYMid meet" version="1.0" viewBox="0.0 0.0 80.0 75.0" width="80.0" zoomAndPan="magnify"><g fill="#2E1B5B" id="change1_1"><path d="M30 15L25 15 25 20 20 20 15 20 15 25 10 25 10 30 5 30 5 40 0 40 0 50 5 50 5 60 10 60 10 65 15 65 15 70 25 70 25 75 35 75 35 70 45 70 45 65 50 65 50 60 55 60 55 55 55 50 60 50 60 45 60 40 55 40 55 30 50 30 50 25 45 25 45 20 35 20 35 15 35 10 30 10z"/><path d="M35 5H45V10H35z"/><path d="M45 0H55V5H45z"/><path d="M55 5H60V10H55z"/><path d="M70 15L70 10 65 10 60 10 60 15 60 20 65 20 65 25 75 25 75 15z"/><path d="M60 25H65V30H60z"/><path d="M75 25H80V30H75z"/></g><g><g id="change2_1"><path d="M55 40L55 30 50 30 50 25 45 25 45 20 35 20 35 15 25 15 25 20 15 20 15 25 10 25 10 30 5 30 5 40 0 40 0 50 5 50 5 60 10 60 10 65 15 65 15 70 25 70 25 75 35 75 35 70 45 70 45 65 50 65 50 60 55 60 55 50 60 50 60 40z" fill="#F11C0D"/></g><g id="change1_2"><path d="M0 40H5V50H0z" fill="#2E1B5B"/></g><g id="change1_3"><path d="M5 30H10V40H5z" fill="#2E1B5B"/></g><g id="change1_4"><path d="M5 50H10V60H5z" fill="#2E1B5B"/></g><g id="change1_5"><path d="M10 25H15V30H10z" fill="#2E1B5B"/></g><g id="change1_6"><path d="M10 60H15V65H10z" fill="#2E1B5B"/></g><g id="change1_7"><path d="M15 65H25V70H15z" fill="#2E1B5B"/></g><g id="change1_8"><path d="M25 70H35V75H25z" fill="#2E1B5B"/></g><g id="change1_9"><path d="M35 65H45V70H35z" fill="#2E1B5B"/></g><g id="change1_10"><path d="M45 60H50V65H45z" fill="#2E1B5B"/></g><g id="change1_11"><path d="M5 40H10V50H5z" fill="#2E1B5B" opacity=".5"/></g><g id="change1_12"><path d="M10 50H15V60H10z" fill="#2E1B5B" opacity=".5"/></g><g id="change1_13"><path d="M17.5 57.5H22.5V67.5H17.5z" fill="#2E1B5B" opacity=".5" transform="rotate(90 20 62.5)"/></g><g id="change1_14"><path d="M27.5 62.5H32.5V72.5H27.5z" fill="#2E1B5B" opacity=".5" transform="rotate(90 30 67.5)"/></g><g id="change1_15"><path d="M37.5 57.5H42.5V67.5H37.5z" fill="#2E1B5B" opacity=".5" transform="rotate(90 40 62.5)"/></g><g id="change1_16"><path d="M47.5 52.5H52.5V62.5H47.5z" fill="#2E1B5B" opacity=".5" transform="rotate(90 50 57.5)"/></g><g id="change1_17"><path d="M10 30H15V40H10z" fill="#2E1B5B" opacity=".5"/></g><g id="change1_18"><path d="M15 20H20V30H15z" fill="#2E1B5B" opacity=".5"/></g><g id="change1_19"><path d="M15 40H20V45H15z" fill="#2E1B5B" opacity=".5"/></g><g id="change1_20"><path d="M20 50H25V55H20z" fill="#2E1B5B" opacity=".5"/></g><g id="change1_21"><path d="M15 55H20V60H15z" fill="#2E1B5B" opacity=".5"/></g><g id="change1_22"><path d="M30 55H35V60H30z" fill="#2E1B5B" opacity=".5"/></g><g id="change1_23"><path d="M40 50H45V55H40z" fill="#2E1B5B" opacity=".5"/></g><g id="change1_24"><path d="M50 50H55V55H50z" fill="#2E1B5B" opacity=".5"/></g><g id="change1_25"><path d="M55 45H60V50H55z" fill="#2E1B5B" opacity=".5"/></g><g id="change1_26"><path d="M50 40H55V45H50z" fill="#2E1B5B" opacity=".5"/></g><g id="change3_1"><path d="M35 25H40V40H35z" fill="#FFB8B8" opacity=".5"/></g><g id="change3_2"><path d="M30 30H45V35H30z" fill="#FFB8B8" opacity=".5"/></g><g id="change3_3"><path d="M35 30H40V35H35z" fill="#FFB8B8"/></g><g id="change1_27"><path d="M30 10H35V15H30z" fill="#2E1B5B"/></g><g id="change1_28"><path d="M35 5H45V10H35z" fill="#2E1B5B"/></g><g id="change1_29"><path d="M45 0H55V5H45z" fill="#2E1B5B"/></g><g id="change1_30"><path d="M55 5H60V10H55z" fill="#2E1B5B"/></g><g id="change2_2"><path d="M60 10H70V20H60z" fill="#F11C0D"/></g><g id="change2_3"><path d="M65 15H75V25H65z" fill="#F11C0D"/></g><g id="change2_4"><path d="M60 25H65V30H60z" fill="#F11C0D"/></g><g id="change2_5"><path d="M75 25H80V30H75z" fill="#F11C0D"/></g><g id="change4_1"><path d="M60 10H65V15H60z" fill="#FFE200"/></g><g id="change4_2"><path d="M65 15H70V20H65z" fill="#FFE200"/></g><g id="change5_1"><path d="M25 15H35V20H25z" fill="#727678"/></g><g id="change3_4"><path d="M25 15H30V20H25z" fill="#FFB8B8" opacity=".5"/></g></g></svg>