<?xml version="1.0" encoding="UTF-8"?><svg xmlns="http://www.w3.org/2000/svg" xmlns:xlink="http://www.w3.org/1999/xlink" data-name="Layer 1" height="464.7" preserveAspectRatio="xMidYMid meet" version="1.0" viewBox="-0.3 -0.3 448.9 464.7" width="448.9" zoomAndPan="magnify"><g id="change1_1"><path d="M429.92 176.81L429.92 175.82 429.92 160.94 414.11 160.94 414.11 159.95 414.11 145.08 398.27 145.08 382.45 145.08 366.63 145.08 350.81 145.08 335 145.08 319.16 145.08 303.35 145.08 303.35 129.21 303.35 113.36 303.35 97.51 303.35 81.64 303.35 65.77 303.35 49.9 303.35 34.04 290.02 34.04 290.02 33.35 287.51 33.35 287.51 33.05 287.51 18.19 271.69 18.19 271.69 17.2 271.69 2.32 255.88 2.32 240.05 2.32 224.24 2.32 208.41 2.32 192.6 2.32 176.78 2.32 160.95 2.32 160.95 17.2 160.95 18.19 145.13 18.19 145.13 18.49 144.76 18.49 144.76 33.35 136.85 33.35 136.85 34.04 129.3 34.04 129.3 49.9 129.3 65.77 129.3 81.64 129.3 97.51 129.3 113.36 129.3 129.21 129.3 145.08 113.48 145.08 97.67 145.08 81.84 145.08 66.02 145.08 50.21 145.08 34.37 145.08 34.37 159.95 34.37 160.94 18.56 160.94 18.56 175.82 18.56 176.81 2.73 176.81 2.73 192.67 2.73 208.52 2.73 224.39 2.73 240.25 2.73 256.12 2.73 271.98 2.73 287.83 18.56 287.83 18.56 304.06 34.37 304.06 34.37 319.56 50.21 319.56 66.02 319.56 81.84 319.56 97.67 319.56 113.48 319.56 129.3 319.56 129.3 335.41 129.3 351.28 129.3 367.14 129.3 383 129.3 398.87 129.3 414.72 129.3 430.6 136.85 430.6 136.85 430.62 144.76 430.62 145.13 430.62 145.13 446.45 160.85 446.45 160.85 446.5 160.95 446.5 160.95 462.32 176.78 462.32 192.6 462.32 208.41 462.32 224.24 462.32 240.05 462.32 255.88 462.32 271.69 462.32 271.69 446.45 271.34 446.45 271.34 445.46 271.69 445.46 271.69 446.45 287.51 446.45 287.51 430.62 290.02 430.62 290.02 430.6 303.35 430.6 303.35 414.72 303.35 398.87 303.35 383 303.35 367.14 303.35 351.28 303.35 335.41 303.35 319.56 319.16 319.56 335 319.56 350.81 319.56 366.63 319.56 382.45 319.56 398.27 319.56 414.11 319.56 414.11 304.06 430.34 304.06 430.34 287.83 445.73 287.83 445.73 271.98 445.73 256.12 445.73 240.25 445.73 224.39 445.73 208.52 445.73 192.67 445.73 176.81 429.92 176.81z" fill="#fe5c3c"/></g><g id="change1_2"><path d="M432.73,282.8h-3.92v18.84H410.35v-.25H289.5V426.63H271v15.69H252.51v-.06H179.73v.06H161.27V426.63H137.45V301.39h-99v.25H20V282.8h-.28V176.16h7.85v-7.83H137.45v-134h7.85V19.61h31.78v-.29h78.53v.29h30.95V34.29h2.94v134H415.07v7.83h17.66Z" fill="#fe5c3c"/></g><g id="change2_1"><path d="M224.16 384.13L224.16 400.18 240.16 400.18 240.16 384.13 240.16 368.08 224.16 368.08 224.16 384.13z" fill="#e2452b"/></g><g id="change2_2"><path d="M256.18 432.28H272.18V448.32H256.18z" fill="#e2452b"/></g><g id="change2_3"><path d="M16.02 271.79H32.019999999999996V287.83000000000004H16.02z" fill="#e2452b"/></g><g id="change2_4"><path d="M160.11 432.28H176.13000000000002V448.32H160.11z" fill="#e2452b"/></g><g id="change2_5"><path d="M16.02 175.5H32.019999999999996V191.55H16.02z" fill="#e2452b"/></g><g id="change2_6"><path d="M192.14 400.18L192.14 416.21 208.14 416.21 224.16 416.21 224.16 400.18 208.14 400.18 192.14 400.18z" fill="#e2452b"/></g><g id="change2_7"><path d="M240.16 79.21L256.18 79.21 256.18 63.16 256.18 47.1 240.16 47.1 240.16 63.16 240.16 79.21z" fill="#e2452b"/></g><g id="change2_8"><path d="M240.16 47.1L240.16 31.05 224.16 31.05 208.14 31.05 208.14 47.1 224.16 47.1 240.16 47.1z" fill="#e2452b"/></g><g id="change2_9"><path d="M208.14 63.16L208.14 47.1 192.14 47.1 192.14 63.16 192.14 79.21 208.14 79.21 208.14 63.16z" fill="#e2452b"/></g><g id="change2_10"><path d="M192.14 368.08L176.13 368.08 176.13 384.13 176.13 400.18 192.14 400.18 192.14 384.13 192.14 368.08z" fill="#e2452b"/></g><g id="change2_11"><path d="M416.3 271.79H432.3V287.83000000000004H416.3z" fill="#e2452b"/></g><g id="change2_12"><path d="M160.11 15.01H176.13000000000002V31.049999999999997H160.11z" fill="#e2452b"/></g><g id="change2_13"><path d="M400.27 239.69L416.3 239.69 416.3 223.65 416.3 207.59 400.27 207.59 400.27 223.65 400.27 239.69z" fill="#e2452b"/></g><g id="change2_14"><path d="M80.06 207.59L80.06 191.55 64.05 191.55 48.05 191.55 48.05 207.59 64.05 207.59 80.06 207.59z" fill="#e2452b"/></g><g id="change2_15"><path d="M48.05 207.59L32.02 207.59 32.02 223.65 32.02 239.69 48.05 239.69 48.05 223.65 48.05 207.59z" fill="#e2452b"/></g><g id="change2_16"><path d="M368.25 239.69L368.25 255.74 384.26 255.74 400.27 255.74 400.27 239.69 384.26 239.69 368.25 239.69z" fill="#e2452b"/></g><g id="change2_17"><path d="M64.05 255.74L80.06 255.74 80.06 239.69 64.05 239.69 48.05 239.69 48.05 255.74 64.05 255.74z" fill="#e2452b"/></g><g id="change2_18"><path d="M256.18 15.01H272.18V31.049999999999997H256.18z" fill="#e2452b"/></g><g id="change2_19"><path d="M400.27 159.45L384.26 159.45 368.25 159.45 352.24 159.45 336.24 159.45 320.22 159.45 304.22 159.45 288.19 159.45 288.19 143.4 288.19 127.34 288.19 111.3 288.19 95.26 288.19 79.21 288.19 63.16 288.19 47.1 288.19 31.05 272.18 31.05 272.18 47.1 272.18 63.16 272.18 79.21 272.18 95.26 272.18 111.3 272.18 127.34 272.18 143.4 272.18 159.45 256.18 159.45 256.18 175.5 240.16 175.5 240.16 191.55 224.16 191.55 224.16 207.59 208.14 207.59 208.14 191.55 192.14 191.55 192.14 175.5 176.13 175.5 176.13 159.45 160.11 159.45 160.11 143.4 160.11 127.34 160.11 111.3 160.11 95.26 160.11 79.21 160.11 63.16 160.11 47.1 160.11 31.05 144.1 31.05 144.1 47.1 144.1 63.16 144.1 79.21 144.1 95.26 144.1 111.3 144.1 127.34 144.1 143.4 144.1 159.45 128.08 159.45 112.08 159.45 96.08 159.45 80.06 159.45 64.05 159.45 48.05 159.45 32.02 159.45 32.02 175.5 48.05 175.5 64.05 175.5 80.06 175.5 96.08 175.5 112.08 175.5 128.08 175.5 144.1 175.5 144.1 191.55 160.11 191.55 160.11 207.59 176.13 207.59 176.13 223.65 192.14 223.65 192.14 239.69 176.13 239.69 176.13 255.74 160.11 255.74 160.11 271.79 144.1 271.79 144.1 287.83 128.08 287.83 112.08 287.83 96.08 287.83 80.06 287.83 64.05 287.83 48.05 287.83 32.02 287.83 32.02 303.9 48.05 303.9 64.05 303.9 80.06 303.9 96.08 303.9 112.08 303.9 128.08 303.9 144.1 303.9 144.1 319.94 144.1 335.97 144.1 352.03 144.1 368.08 144.1 384.13 144.1 400.18 144.1 416.21 144.1 432.28 160.11 432.28 160.11 416.21 160.11 400.18 160.11 384.13 160.11 368.08 160.11 352.03 160.11 335.97 160.11 319.94 160.11 303.9 176.13 303.9 176.13 287.83 192.14 287.83 192.14 271.79 208.14 271.79 208.14 255.74 224.16 255.74 224.16 271.79 240.16 271.79 240.16 287.83 256.18 287.83 256.18 303.9 272.18 303.9 272.18 319.94 272.18 335.97 272.18 352.03 272.18 368.08 272.18 384.13 272.18 400.18 272.18 416.21 272.18 432.28 288.19 432.28 288.19 416.21 288.19 400.18 288.19 384.13 288.19 368.08 288.19 352.03 288.19 335.97 288.19 319.94 288.19 303.9 304.22 303.9 320.22 303.9 336.24 303.9 352.24 303.9 368.25 303.9 384.26 303.9 400.27 303.9 416.3 303.9 416.3 287.83 400.27 287.83 384.26 287.83 368.25 287.83 352.24 287.83 336.24 287.83 320.22 287.83 304.22 287.83 288.19 287.83 288.19 271.79 272.18 271.79 272.18 255.74 256.18 255.74 256.18 239.69 240.16 239.69 240.16 223.65 256.18 223.65 256.18 207.59 272.18 207.59 272.18 191.55 288.19 191.55 288.19 175.5 304.22 175.5 320.22 175.5 336.24 175.5 352.24 175.5 368.25 175.5 384.26 175.5 400.27 175.5 416.3 175.5 416.3 159.45 400.27 159.45z" fill="#e2452b"/></g><g id="change2_20"><path d="M416.3 175.5H432.3V191.55H416.3z" fill="#e2452b"/></g><g id="change2_21"><path d="M384.26 191.55L368.25 191.55 368.25 207.59 384.26 207.59 400.27 207.59 400.27 191.55 384.26 191.55z" fill="#e2452b"/></g><g id="change3_1"><path d="M432.6,175.76v-16h-16v-16H304.52v-112h-16v-16h-16V-.3H159.81v16h-16v16h-16v112H31.72v16h-16v16H-.3V288.37h16v16h16v16h96.06v112h16v16h16v16H272.48v-16h16v-16h16v-112H416.6v-16h16v-16h16V175.76Zm-.6,16.3v95.71H416v16H287.89v128h-16v16H160.41v-16h-16v-128H32.32v-16h-16V176.36h16v-16H144.4v-128h16v-16H271.88v16h16v128H416v16h16Z" fill="#3d3b52"/></g></svg>