<?xml version="1.0" encoding="UTF-8"?>
<svg xmlns="http://www.w3.org/2000/svg" xmlns:xlink="http://www.w3.org/1999/xlink" height="325.0" preserveAspectRatio="xMidYMid meet" version="1.0" viewBox="0.0 0.0 425.0 325.0" width="425.0" zoomAndPan="magnify"><g id="change1_1"><path d="M412.5 75L412.5 62.5 400 62.5 400 50 387.5 50 375 50 362.5 50 350 50 337.5 50 325 50 312.5 50 300 50 287.5 50 275 50 262.5 50 250 50 237.5 50 237.5 37.5 225 37.5 225 25 212.5 25 212.5 12.5 200 12.5 187.5 12.5 175 12.5 162.5 12.5 150 12.5 137.5 12.5 125 12.5 112.5 12.5 112.5 25 100 25 100 37.5 87.5 37.5 87.5 50 75 50 75 62.5 75 75 75 87.5 75 100 75 112.5 62.5 112.5 50 112.5 37.5 112.5 37.5 125 25 125 25 137.5 25 150 25 162.5 37.5 162.5 37.5 175 37.5 187.5 37.5 200 50 200 50 212.5 50 225 50 237.5 62.5 237.5 62.5 250 62.5 262.5 62.5 275 75 275 75 287.5 75 300 75 312.5 87.5 312.5 87.5 325 100 325 112.5 325 125 325 137.5 325 150 325 162.5 325 175 325 187.5 325 200 325 212.5 325 225 325 237.5 325 250 325 262.5 325 275 325 287.5 325 300 325 312.5 325 325 325 337.5 325 350 325 362.5 325 375 325 387.5 325 400 325 412.5 325 412.5 312.5 425 312.5 425 300 425 287.5 425 275 425 262.5 425 250 425 237.5 425 225 425 212.5 425 200 425 187.5 425 175 425 162.5 425 150 425 137.5 425 125 425 112.5 425 100 425 87.5 425 75z" opacity=".3"/></g><g id="change2_1"><path d="M387.5 62.5L387.5 50 375 50 375 37.5 362.5 37.5 350 37.5 337.5 37.5 325 37.5 312.5 37.5 300 37.5 287.5 37.5 275 37.5 262.5 37.5 250 37.5 237.5 37.5 225 37.5 212.5 37.5 212.5 25 200 25 200 12.5 187.5 12.5 187.5 0 175 0 162.5 0 150 0 137.5 0 125 0 112.5 0 100 0 87.5 0 87.5 12.5 75 12.5 75 25 62.5 25 62.5 37.5 50 37.5 50 50 50 62.5 50 75 50 87.5 50 100 37.5 100 25 100 12.5 100 12.5 112.5 0 112.5 0 125 0 137.5 0 150 12.5 150 12.5 162.5 12.5 175 12.5 187.5 25 187.5 25 200 25 212.5 25 225 37.5 225 37.5 237.5 37.5 250 37.5 262.5 50 262.5 50 275 50 287.5 50 300 62.5 300 62.5 312.5 75 312.5 87.5 312.5 100 312.5 112.5 312.5 125 312.5 137.5 312.5 150 312.5 162.5 312.5 175 312.5 187.5 312.5 200 312.5 212.5 312.5 225 312.5 237.5 312.5 250 312.5 262.5 312.5 275 312.5 287.5 312.5 300 312.5 312.5 312.5 325 312.5 337.5 312.5 350 312.5 362.5 312.5 375 312.5 387.5 312.5 387.5 300 400 300 400 287.5 400 275 400 262.5 400 250 400 237.5 400 225 400 212.5 400 200 400 187.5 400 175 400 162.5 400 150 400 137.5 400 125 400 112.5 400 100 400 87.5 400 75 400 62.5z" fill="#d1d3d4"/></g><g id="change3_1"><path d="M25,112.5V125H12.5v-12.5H25z M50,112.5H37.5V125H50V112.5z M75,112.5H62.5V125H75V112.5z M100,112.5H87.5V125 H100V112.5z M125,112.5h-12.5V125H125V112.5z M150,112.5h-12.5V125H150V112.5z M175,112.5h-12.5V125H175V112.5z M200,112.5h-12.5 V125H200V112.5z M225,112.5h-12.5V125H225V112.5z M250,112.5h-12.5V125H250V112.5z M275,112.5h-12.5V125H275V112.5z M300,112.5 h-12.5V125H300V112.5z M62.5,100H75V87.5H62.5V100z M87.5,100H100V87.5H87.5V100z M112.5,100H125V87.5h-12.5V100z M137.5,100H150 V87.5h-12.5V100z M162.5,100H175V87.5h-12.5V100z M187.5,100H200V87.5h-12.5V100z M212.5,100H225V87.5h-12.5V100z M237.5,100H250 V87.5h-12.5V100z M262.5,100H275V87.5h-12.5V100z M287.5,100H300V87.5h-12.5V100z M312.5,87.5V100H325V87.5H312.5z M337.5,87.5V100 H350V87.5H337.5z M362.5,87.5V100H375V87.5H362.5z M75,75v12.5h12.5V75H75z M100,75v12.5h12.5V75H100z M125,75v12.5h12.5V75H125z M150,75v12.5h12.5V75H150z M175,75v12.5h12.5V75H175z M200,75v12.5h12.5V75H200z M225,75v12.5h12.5V75H225z M250,75v12.5h12.5V75 H250z M275,75v12.5h12.5V75H275z M300,75v12.5h12.5V75H300z M325,75v12.5h12.5V75H325z M350,75v12.5h12.5V75H350z M375,75V62.5 h-12.5V75H375z M387.5,87.5V75H375v12.5H387.5z M325,100v12.5h12.5V100H325z M350,112.5h12.5V100H350V112.5z M350,112.5h-12.5V125 H350V112.5z M362.5,125H375v-12.5h-12.5V125z M325,125v12.5h12.5V125H325z M350,137.5h12.5V125H350V137.5z M337.5,137.5V150H350 v-12.5H337.5z M362.5,150H375v-12.5h-12.5V150z M337.5,162.5V175H350v-12.5H337.5z M362.5,150H350v12.5h12.5V150z M362.5,175H375 v-12.5h-12.5V175z M387.5,162.5V150H375v12.5H387.5z M387.5,137.5V125H375v12.5H387.5z M387.5,112.5V100H375v12.5H387.5z M350,175 v12.5h12.5V175H350z M362.5,200H375v-12.5h-12.5V200z M362.5,225H375v-12.5h-12.5V225z M387.5,187.5V175H375v12.5H387.5z M350,200 v12.5h12.5V200H350z M387.5,212.5V200H375v12.5H387.5z M362.5,250H375v-12.5h-12.5V250z M387.5,262.5V250H375v12.5H387.5z M375,287.5h12.5V275H375V287.5z M387.5,237.5V225H375v12.5H387.5z M62.5,62.5V75H75V62.5H62.5z M87.5,62.5V75H100V62.5H87.5z M112.5,62.5V75H125V62.5H112.5z M137.5,62.5V75H150V62.5H137.5z M162.5,62.5V75H175V62.5H162.5z M187.5,62.5V75H200V62.5H187.5z M225,75V62.5h-12.5V75H225z M250,75V62.5h-12.5V75H250z M275,75V62.5h-12.5V75H275z M300,75V62.5h-12.5V75H300z M325,75V62.5h-12.5 V75H325z M350,75V62.5h-12.5V75H350z M87.5,50H75v12.5h12.5V50z M87.5,25H75v12.5h12.5V25z M100,50v12.5h12.5V50H100z M125,50v12.5 h12.5V50H125z M150,50v12.5h12.5V50H150z M187.5,62.5V50H175v12.5H187.5z M100,37.5H87.5V50H100V37.5z M62.5,37.5V50H75V37.5H62.5z M125,50V37.5h-12.5V50H125z M150,50V37.5h-12.5V50H150z M175,50V37.5h-12.5V50H175z M112.5,37.5V25H100v12.5H112.5z M137.5,37.5V25 H125v12.5H137.5z M162.5,37.5V25H150v12.5H162.5z M100,12.5H87.5V25H100V12.5z M125,12.5h-12.5V25H125V12.5z M150,12.5h-12.5V25H150 V12.5z M187.5,37.5V25H175v12.5H187.5z M200,50V37.5h-12.5V50H200z M175,12.5h-12.5V25H175V12.5z M212.5,62.5V50H200v12.5H212.5z M237.5,50H225v12.5h12.5V50z M262.5,50H250v12.5h12.5V50z M287.5,50H275v12.5h12.5V50z M312.5,50H300v12.5h12.5V50z M337.5,50H325 v12.5h12.5V50z M362.5,50H350v12.5h12.5V50z M312.5,137.5V125H300v12.5H312.5z M287.5,137.5V125H275v12.5H287.5z M262.5,137.5V125 H250v12.5H262.5z M237.5,137.5V125H225v12.5H237.5z M212.5,137.5V125H200v12.5H212.5z M187.5,137.5V125H175v12.5H187.5z M162.5,137.5V125H150v12.5H162.5z M137.5,137.5V125H125v12.5H137.5z M112.5,137.5V125H100v12.5H112.5z M87.5,137.5V125H75v12.5 H87.5z M62.5,137.5V125H50v12.5H62.5z M37.5,125H25v12.5h12.5V125z M12.5,137.5V150H25v-12.5H12.5z M37.5,137.5V150H50v-12.5H37.5z M75,150v-12.5H62.5V150H75z M100,150v-12.5H87.5V150H100z M125,150v-12.5h-12.5V150H125z M150,150v-12.5h-12.5V150H150z M175,150 v-12.5h-12.5V150H175z M200,150v-12.5h-12.5V150H200z M225,150v-12.5h-12.5V150H225z M250,150v-12.5h-12.5V150H250z M275,150v-12.5 h-12.5V150H275z M287.5,150H300v-12.5h-12.5V150z M25,150v12.5h12.5V150H25z M62.5,150H50v12.5h12.5V150z M87.5,162.5V150H75v12.5 H87.5z M112.5,162.5V150H100v12.5H112.5z M137.5,162.5V150H125v12.5H137.5z M162.5,162.5V150H150v12.5H162.5z M187.5,162.5V150H175 v12.5H187.5z M212.5,162.5V150H200v12.5H212.5z M237.5,162.5V150H225v12.5H237.5z M262.5,162.5V150H250v12.5H262.5z M275,162.5h12.5 V150H275V162.5z M312.5,162.5V150H300v12.5H312.5z M50,162.5H37.5V175H50V162.5z M75,162.5H62.5V175H75V162.5z M100,175v-12.5H87.5 V175H100z M125,175v-12.5h-12.5V175H125z M150,175v-12.5h-12.5V175H150z M175,175v-12.5h-12.5V175H175z M200,175v-12.5h-12.5V175 H200z M225,175v-12.5h-12.5V175H225z M250,175v-12.5h-12.5V175H250z M262.5,175H275v-12.5h-12.5V175z M300,175v-12.5h-12.5V175H300z M325,175v-12.5h-12.5V175H325z M25,175v12.5h12.5V175H25z M62.5,175H50v12.5h12.5V175z M75,175v12.5h12.5V175H75z M100,175v12.5 h12.5V175H100z M137.5,187.5V175H125v12.5H137.5z M162.5,187.5V175H150v12.5H162.5z M187.5,187.5V175H175v12.5H187.5z M212.5,187.5 V175H200v12.5H212.5z M237.5,187.5V175H225v12.5H237.5z M250,187.5h12.5V175H250V187.5z M287.5,187.5V175H275v12.5H287.5z M300,187.5h12.5V175H300V187.5z M50,187.5H37.5V200H50V187.5z M62.5,187.5V200H75v-12.5H62.5z M87.5,187.5V200H100v-12.5H87.5z M125,187.5h-12.5V200H125V187.5z M150,200v-12.5h-12.5V200H150z M175,200v-12.5h-12.5V200H175z M200,200v-12.5h-12.5V200H200z M225,200v-12.5h-12.5V200H225z M237.5,200H250v-12.5h-12.5V200z M275,200v-12.5h-12.5V200H275z M287.5,200H300v-12.5h-12.5V200z M325,200v-12.5h-12.5V200H325z M25,200v12.5h12.5V200H25z M50,200v12.5h12.5V200H50z M75,200v12.5h12.5V200H75z M112.5,200H100 v12.5h12.5V200z M137.5,200H125v12.5h12.5V200z M150,200v12.5h12.5V200H150z M175,200v12.5h12.5V200H175z M200,200v12.5h12.5V200 H200z M225,212.5h12.5V200H225V212.5z M262.5,212.5V200H250v12.5H262.5z M275,212.5h12.5V200H275V212.5z M312.5,212.5V200H300v12.5 H312.5z M337.5,212.5V200H325v12.5H337.5z M37.5,212.5V225H50v-12.5H37.5z M62.5,212.5V225H75v-12.5H62.5z M100,212.5H87.5V225H100 V212.5z M125,212.5h-12.5V225H125V212.5z M137.5,212.5V225H150v-12.5H137.5z M162.5,212.5V225H175v-12.5H162.5z M187.5,212.5V225 H200v-12.5H187.5z M212.5,212.5V225H225v-12.5H212.5z M237.5,212.5V225H250v-12.5H237.5z M262.5,225H275v-12.5h-12.5V225z M300,225 v-12.5h-12.5V225H300z M312.5,225H325v-12.5h-12.5V225z M50,225v12.5h12.5V225H50z M87.5,225H75v12.5h12.5V225z M112.5,225H100v12.5 h12.5V225z M125,225v12.5h12.5V225H125z M150,225v12.5h12.5V225H150z M175,225v12.5h12.5V225H175z M200,225v12.5h12.5V225H200z M225,225v12.5h12.5V225H225z M250,225v12.5h12.5V225H250z M287.5,237.5V225H275v12.5H287.5z M300,237.5h12.5V225H300V237.5z M337.5,237.5V225H325v12.5H337.5z M75,237.5H62.5V250H75V237.5z M100,237.5H87.5V250H100V237.5z M112.5,237.5V250H125v-12.5H112.5z M137.5,237.5V250H150v-12.5H137.5z M162.5,237.5V250H175v-12.5H162.5z M187.5,237.5V250H200v-12.5H187.5z M212.5,237.5V250H225 v-12.5H212.5z M237.5,237.5V250H250v-12.5H237.5z M262.5,237.5V250H275v-12.5H262.5z M287.5,250H300v-12.5h-12.5V250z M325,250 v-12.5h-12.5V250H325z M350,250v-12.5h-12.5V250H350z M50,250v12.5h12.5V250H50z M87.5,250H75v12.5h12.5V250z M100,250v12.5h12.5 V250H100z M125,250v12.5h12.5V250H125z M150,250v12.5h12.5V250H150z M175,250v12.5h12.5V250H175z M200,250v12.5h12.5V250H200z M225,250v12.5h12.5V250H225z M250,250v12.5h12.5V250H250z M275,250v12.5h12.5V250H275z M300,250v12.5h12.5V250H300z M325,262.5 h12.5V250H325V262.5z M75,262.5H62.5V275H75V262.5z M87.5,262.5V275H100v-12.5H87.5z M112.5,262.5V275H125v-12.5H112.5z M137.5,262.5V275H150v-12.5H137.5z M162.5,262.5V275H175v-12.5H162.5z M187.5,262.5V275H200v-12.5H187.5z M212.5,262.5V275H225 v-12.5H212.5z M237.5,262.5V275H250v-12.5H237.5z M262.5,262.5V275H275v-12.5H262.5z M287.5,262.5V275H300v-12.5H287.5z M312.5,262.5V275H325v-12.5H312.5z M350,275v-12.5h-12.5V275H350z M50,275v12.5h12.5V275H50z M75,275v12.5h12.5V275H75z M100,275 v12.5h12.5V275H100z M125,275v12.5h12.5V275H125z M150,275v12.5h12.5V275H150z M175,275v12.5h12.5V275H175z M200,275v12.5h12.5V275 H200z M225,275v12.5h12.5V275H225z M250,275v12.5h12.5V275H250z M275,275v12.5h12.5V275H275z M300,275v12.5h12.5V275H300z M325,275 v12.5h12.5V275H325z M350,287.5h12.5V275H350V287.5z M62.5,300H75v-12.5H62.5V300z M87.5,300H100v-12.5H87.5V300z M112.5,300H125 v-12.5h-12.5V300z M137.5,300H150v-12.5h-12.5V300z M162.5,300H175v-12.5h-12.5V300z M187.5,300H200v-12.5h-12.5V300z M212.5,300 H225v-12.5h-12.5V300z M237.5,300H250v-12.5h-12.5V300z M262.5,300H275v-12.5h-12.5V300z M287.5,300H300v-12.5h-12.5V300z M312.5,300H325v-12.5h-12.5V300z M337.5,300H350v-12.5h-12.5V300z" fill="#fdff00"/></g><g id="change1_2"><path d="M100,12.5H87.5V0H100h12.5H125h12.5H150h12.5H175h12.5v12.5H175h-12.5H150h-12.5H125h-12.5H100z M87.5,12.5H75V25h12.5V12.5 z M200,25V12.5h-12.5V25H200z M75,25H62.5v12.5H75V25z M212.5,37.5V25H200v12.5H212.5z M225,50h12.5H250h12.5H275h12.5H300h12.5H325 h12.5H350h12.5H375V37.5h-12.5H350h-12.5H325h-12.5H300h-12.5H275h-12.5H250h-12.5H225h-12.5V50H225z M387.5,62.5V50H375v12.5H387.5 z M387.5,62.5V75v12.5V100v12.5V125v12.5V150v12.5V175v12.5V200v12.5V225v12.5V250v12.5V275v12.5H375V275v-12.5h-12.5V275v12.5V300 H350h-12.5H325h-12.5H300h-12.5H275h-12.5H250h-12.5H225h-12.5H200h-12.5H175h-12.5H150h-12.5H125h-12.5H100H87.5H75H62.5v12.5H75 h12.5H100h12.5H125h12.5H150h12.5H175h12.5H200h12.5H225h12.5H250h12.5H275h12.5H300h12.5H325h12.5H350h12.5H375h12.5V300H400v-12.5 V275v-12.5V250v-12.5V225v-12.5V200v-12.5V175v-12.5V150v-12.5V125v-12.5V100V87.5V75V62.5H387.5z M37.5,112.5H50h12.5H75h12.5H100 h12.5H125h12.5H150h12.5H175h12.5H200h12.5H225h12.5H250h12.5H275h12.5H300h12.5V100H300h-12.5H275h-12.5H250h-12.5H225h-12.5H200 h-12.5H175h-12.5H150h-12.5H125h-12.5H100H87.5H75H62.5V87.5V75V62.5V50V37.5H50V50v12.5V75v12.5V100H37.5H25H12.5v12.5H25H37.5z M12.5,125v-12.5H0V125v12.5V150h12.5v-12.5V125z M325,125v-12.5h-12.5V125v12.5V150H325v-12.5V125z M25,162.5V150H12.5v12.5V175 v12.5H25V175V162.5z M337.5,162.5V150H325v12.5V175v12.5h12.5V175V162.5z M37.5,200v-12.5H25V200v12.5V225h12.5v-12.5V200z M350,200 v-12.5h-12.5V200v12.5V225H350v-12.5V200z M50,237.5V225H37.5v12.5V250v12.5H50V250V237.5z M362.5,237.5V225H350v12.5V250v12.5h12.5 V250V237.5z M62.5,275v-12.5H50V275v12.5V300h12.5v-12.5V275z"/></g><g id="change1_3"><path d="M325,100v12.5h-12.5V100H325z M337.5,125v-12.5H325V125v12.5V150h12.5v-12.5V125z M350,162.5V150h-12.5v12.5 V175v12.5H350V175V162.5z M362.5,200v-12.5H350V200v12.5V225h12.5v-12.5V200z M375,237.5V225h-12.5v12.5V250v12.5H375V250V237.5z M375,262.5V275v12.5h12.5V275v-12.5H375z M62.5,87.5V100h250V87.5H62.5z M12.5,112.5V150H25v-37.5H12.5z M25,150v37.5h12.5V150H25z M37.5,187.5V225H50v-37.5H37.5z M50,225v37.5h12.5V225H50z M75,262.5H62.5V300H75h275v-12.5H75V262.5z" opacity=".3"/></g><g id="change4_1"><path d="M312.5,125v25H300v-25H25v-12.5h287.5V125z M212.5,50v12.5H375V50H212.5z M312.5,150v37.5H325V150H312.5z M325,187.5V225h12.5v-37.5H325z M337.5,225v37.5H350V225H337.5z M350,300h12.5v-37.5H350V300z M375,62.5v225h12.5v-225H375z M87.5,12.5V25h100V12.5H87.5z M187.5,25v12.5H200V25H187.5z M75,37.5h12.5V25H75V37.5z M200,37.5V50h12.5V37.5H200z M62.5,87.5H75 v-50H62.5V87.5z" fill="#fff" opacity=".5"/></g></svg>