<svg xmlns="http://www.w3.org/2000/svg" xmlns:xlink="http://www.w3.org/1999/xlink" preserveAspectRatio="xMidYMid meet" version="1.0" viewBox="0.0 0.0 387.5 237.5" zoomAndPan="magnify" style="fill: rgb(0, 0, 0);" original_string_length="8852"><g id="__id279_s2cw888nuj"><path d="M387.5,0v237.5H0V0H387.5z" style="fill: rgb(248, 227, 122);"/></g><g id="__id280_s2cw888nuj"><path d="M25,12.5V25H12.5V12.5H25z M50,12.5H37.5V25H50V12.5z M75,12.5H62.5V25H75V12.5z M100,12.5H87.5V25H100V12.5z M125,12.5h-12.5V25H125V12.5z M150,12.5h-12.5V25H150V12.5z M175,12.5h-12.5V25H175V12.5z M200,12.5h-12.5V25H200V12.5z M225,12.5 h-12.5V25H225V12.5z M250,12.5h-12.5V25H250V12.5z M275,12.5h-12.5V25H275V12.5z M300,12.5h-12.5V25H300V12.5z M325,12.5h-12.5V25 H325V12.5z M350,12.5h-12.5V25H350V12.5z M375,12.5h-12.5V25H375V12.5z M37.5,25H25v12.5h12.5V25z M62.5,37.5V25H50v12.5H62.5z M87.5,37.5V25H75v12.5H87.5z M112.5,37.5V25H100v12.5H112.5z M137.5,37.5V25H125v12.5H137.5z M162.5,37.5V25H150v12.5H162.5z M187.5,37.5V25H175v12.5H187.5z M212.5,37.5V25H200v12.5H212.5z M237.5,37.5V25H225v12.5H237.5z M262.5,37.5V25H250v12.5H262.5z M287.5,37.5V25H275v12.5H287.5z M312.5,37.5V25H300v12.5H312.5z M337.5,37.5V25H325v12.5H337.5z M350,25v12.5h12.5V25H350z M12.5,37.5V50H25V37.5H12.5z M50,37.5H37.5V50H50V37.5z M75,50V37.5H62.5V50H75z M100,50V37.5H87.5V50H100z M125,50V37.5h-12.5V50 H125z M150,50V37.5h-12.5V50H150z M175,50V37.5h-12.5V50H175z M200,50V37.5h-12.5V50H200z M225,50V37.5h-12.5V50H225z M250,50V37.5 h-12.5V50H250z M275,50V37.5h-12.5V50H275z M300,50V37.5h-12.5V50H300z M325,50V37.5h-12.5V50H325z M337.5,50H350V37.5h-12.5V50z M375,50V37.5h-12.5V50H375z M37.5,50H25v12.5h12.5V50z M62.5,50H50v12.5h12.5V50z M87.5,62.5V50H75v12.5H87.5z M112.5,62.5V50H100 v12.5H112.5z M137.5,62.5V50H125v12.5H137.5z M162.5,62.5V50H150v12.5H162.5z M187.5,62.5V50H175v12.5H187.5z M212.5,62.5V50H200 v12.5H212.5z M237.5,62.5V50H225v12.5H237.5z M262.5,62.5V50H250v12.5H262.5z M287.5,62.5V50H275v12.5H287.5z M312.5,62.5V50H300 v12.5H312.5z M325,62.5h12.5V50H325V62.5z M350,62.5h12.5V50H350V62.5z M12.5,62.5V75H25V62.5H12.5z M50,62.5H37.5V75H50V62.5z M75,62.5H62.5V75H75V62.5z M100,75V62.5H87.5V75H100z M125,75V62.5h-12.5V75H125z M150,75V62.5h-12.5V75H150z M175,75V62.5h-12.5 V75H175z M200,75V62.5h-12.5V75H200z M225,75V62.5h-12.5V75H225z M250,75V62.5h-12.5V75H250z M275,75V62.5h-12.5V75H275z M300,75 V62.5h-12.5V75H300z M312.5,75H325V62.5h-12.5V75z M337.5,75H350V62.5h-12.5V75z M375,75V62.5h-12.5V75H375z M37.5,75H25v12.5h12.5 V75z M62.5,75H50v12.5h12.5V75z M87.5,75H75v12.5h12.5V75z M112.5,87.5V75H100v12.5H112.5z M137.5,87.5V75H125v12.5H137.5z M162.5,87.5V75H150v12.5H162.5z M187.5,87.5V75H175v12.5H187.5z M212.5,87.5V75H200v12.5H212.5z M237.5,87.5V75H225v12.5H237.5z M262.5,87.5V75H250v12.5H262.5z M287.5,87.5V75H275v12.5H287.5z M300,87.5h12.5V75H300V87.5z M325,87.5h12.5V75H325V87.5z M350,87.5h12.5V75H350V87.5z M12.5,87.5V100H25V87.5H12.5z M50,87.5H37.5V100H50V87.5z M75,87.5H62.5V100H75V87.5z M100,87.5H87.5 V100H100V87.5z M125,100V87.5h-12.5V100H125z M150,100V87.5h-12.5V100H150z M175,100V87.5h-12.5V100H175z M200,100V87.5h-12.5V100 H200z M225,100V87.5h-12.5V100H225z M250,100V87.5h-12.5V100H250z M275,100V87.5h-12.5V100H275z M287.5,100H300V87.5h-12.5V100z M312.5,100H325V87.5h-12.5V100z M337.5,100H350V87.5h-12.5V100z M375,100V87.5h-12.5V100H375z M37.5,100H25v12.5h12.5V100z M62.5,100H50v12.5h12.5V100z M87.5,100H75v12.5h12.5V100z M112.5,100H100v12.5h12.5V100z M137.5,112.5V100H125v12.5H137.5z M162.5,112.5V100H150v12.5H162.5z M187.5,112.5V100H175v12.5H187.5z M212.5,112.5V100H200v12.5H212.5z M237.5,112.5V100H225v12.5 H237.5z M262.5,112.5V100H250v12.5H262.5z M275,112.5h12.5V100H275V112.5z M300,112.5h12.5V100H300V112.5z M325,112.5h12.5V100H325 V112.5z M350,112.5h12.5V100H350V112.5z M12.5,112.5V125H25v-12.5H12.5z M50,112.5H37.5V125H50V112.5z M75,112.5H62.5V125H75V112.5z M100,112.5H87.5V125H100V112.5z M112.5,112.5V125H125v-12.5H112.5z M137.5,112.5V125H150v-12.5H137.5z M162.5,112.5V125H175v-12.5 H162.5z M187.5,112.5V125H200v-12.5H187.5z M212.5,112.5V125H225v-12.5H212.5z M237.5,112.5V125H250v-12.5H237.5z M262.5,125H275 v-12.5h-12.5V125z M287.5,125H300v-12.5h-12.5V125z M312.5,125H325v-12.5h-12.5V125z M337.5,125H350v-12.5h-12.5V125z M375,125 v-12.5h-12.5V125H375z M37.5,125H25v12.5h12.5V125z M62.5,125H50v12.5h12.5V125z M87.5,125H75v12.5h12.5V125z M100,125v12.5h12.5 V125H100z M125,125v12.5h12.5V125H125z M150,125v12.5h12.5V125H150z M175,125v12.5h12.5V125H175z M200,125v12.5h12.5V125H200z M225,125v12.5h12.5V125H225z M250,125v12.5h12.5V125H250z M275,137.5h12.5V125H275V137.5z M300,137.5h12.5V125H300V137.5z M325,137.5h12.5V125H325V137.5z M350,137.5h12.5V125H350V137.5z M12.5,137.5V150H25v-12.5H12.5z M50,137.5H37.5V150H50V137.5z M75,137.5H62.5V150H75V137.5z M87.5,137.5V150H100v-12.5H87.5z M112.5,137.5V150H125v-12.5H112.5z M137.5,137.5V150H150v-12.5 H137.5z M162.5,137.5V150H175v-12.5H162.5z M187.5,137.5V150H200v-12.5H187.5z M212.5,137.5V150H225v-12.5H212.5z M237.5,137.5V150 H250v-12.5H237.5z M262.5,137.5V150H275v-12.5H262.5z M287.5,150H300v-12.5h-12.5V150z M312.5,150H325v-12.5h-12.5V150z M337.5,150 H350v-12.5h-12.5V150z M375,150v-12.5h-12.5V150H375z M37.5,150H25v12.5h12.5V150z M62.5,150H50v12.5h12.5V150z M75,150v12.5h12.5 V150H75z M100,150v12.5h12.5V150H100z M125,150v12.5h12.5V150H125z M150,150v12.5h12.5V150H150z M175,150v12.5h12.5V150H175z M200,150v12.5h12.5V150H200z M225,150v12.5h12.5V150H225z M250,150v12.5h12.5V150H250z M275,150v12.5h12.5V150H275z M300,162.5 h12.5V150H300V162.5z M325,162.5h12.5V150H325V162.5z M350,162.5h12.5V150H350V162.5z M12.5,162.5V175H25v-12.5H12.5z M50,162.5 H37.5V175H50V162.5z M62.5,162.5V175H75v-12.5H62.5z M87.5,162.5V175H100v-12.5H87.5z M112.5,162.5V175H125v-12.5H112.5z M137.5,162.5V175H150v-12.5H137.5z M162.5,162.5V175H175v-12.5H162.5z M187.5,162.5V175H200v-12.5H187.5z M212.5,162.5V175H225 v-12.5H212.5z M237.5,162.5V175H250v-12.5H237.5z M262.5,162.5V175H275v-12.5H262.5z M287.5,162.5V175H300v-12.5H287.5z M312.5,175 H325v-12.5h-12.5V175z M337.5,175H350v-12.5h-12.5V175z M375,175v-12.5h-12.5V175H375z M37.5,175H25v12.5h12.5V175z M50,175v12.5 h12.5V175H50z M75,175v12.5h12.5V175H75z M100,175v12.5h12.5V175H100z M125,175v12.5h12.5V175H125z M150,175v12.5h12.5V175H150z M175,175v12.5h12.5V175H175z M200,175v12.5h12.5V175H200z M225,175v12.5h12.5V175H225z M250,175v12.5h12.5V175H250z M275,175v12.5 h12.5V175H275z M300,175v12.5h12.5V175H300z M325,187.5h12.5V175H325V187.5z M350,187.5h12.5V175H350V187.5z M12.5,187.5V200H25 v-12.5H12.5z M37.5,187.5V200H50v-12.5H37.5z M62.5,187.5V200H75v-12.5H62.5z M87.5,187.5V200H100v-12.5H87.5z M112.5,187.5V200H125 v-12.5H112.5z M137.5,187.5V200H150v-12.5H137.5z M162.5,187.5V200H175v-12.5H162.5z M187.5,187.5V200H200v-12.5H187.5z M212.5,187.5V200H225v-12.5H212.5z M237.5,187.5V200H250v-12.5H237.5z M262.5,187.5V200H275v-12.5H262.5z M287.5,187.5V200H300 v-12.5H287.5z M312.5,187.5V200H325v-12.5H312.5z M337.5,200H350v-12.5h-12.5V200z M375,200v-12.5h-12.5V200H375z M12.5,225H25 v-12.5H12.5V225z M37.5,225H50v-12.5H37.5V225z M62.5,225H75v-12.5H62.5V225z M87.5,225H100v-12.5H87.5V225z M112.5,225H125v-12.5 h-12.5V225z M137.5,225H150v-12.5h-12.5V225z M162.5,225H175v-12.5h-12.5V225z M187.5,225H200v-12.5h-12.5V225z M212.5,225H225 v-12.5h-12.5V225z M237.5,225H250v-12.5h-12.5V225z M262.5,225H275v-12.5h-12.5V225z M287.5,225H300v-12.5h-12.5V225z M312.5,225 H325v-12.5h-12.5V225z M337.5,225H350v-12.5h-12.5V225z M375,225v-12.5h-12.5V225H375z M25,200v12.5h12.5V200H25z M50,200v12.5h12.5 V200H50z M75,200v12.5h12.5V200H75z M100,200v12.5h12.5V200H100z M125,200v12.5h12.5V200H125z M150,200v12.5h12.5V200H150z M175,200 v12.5h12.5V200H175z M200,200v12.5h12.5V200H200z M225,200v12.5h12.5V200H225z M250,200v12.5h12.5V200H250z M275,200v12.5h12.5V200 H275z M300,200v12.5h12.5V200H300z M325,200v12.5h12.5V200H325z M350,212.5h12.5V200H350V212.5z" style="fill: rgb(222, 175, 95);"/></g><g id="__id281_s2cw888nuj"><path d="M362.5 25L362.5 225 375 225 375 25 375 12.5 362.5 12.5 12.5 12.5 12.5 25z" opacity=".5" style="fill: rgb(255, 255, 255);"/></g><g id="__id282_s2cw888nuj"><path d="M25 212.5L25 37.5 37.5 37.5 37.5 25 12.5 25 12.5 37.5 12.5 212.5 12.5 225 25 225 362.5 225 362.5 212.5z" opacity=".3" style="fill: inherit;"/><path d="M37.5 37.5H62.5V50H37.5z" opacity=".3" style="fill: inherit;"/><path d="M62.5 50H87.5V62.5H62.5z" opacity=".3" style="fill: inherit;"/><path d="M87.5 62.5H112.5V75H87.5z" opacity=".3" style="fill: inherit;"/><path d="M112.5 75H137.5V87.5H112.5z" opacity=".3" style="fill: inherit;"/><path d="M137.5 87.5H162.5V100H137.5z" opacity=".3" style="fill: inherit;"/><path d="M162.5 100H187.5V112.5H162.5z" opacity=".3" style="fill: inherit;"/></g><g id="__id283_s2cw888nuj"><path d="M375,0H12.5H0v12.5V225v12.5h12.5H375h12.5V225V12.5V0H375z M375,225H12.5V25h25V12.5H350V25h25V225z M37.5,37.5V25h25v12.5 H37.5z M87.5,37.5V50h-25V37.5H87.5z M112.5,50v12.5h-25V50H112.5z M137.5,62.5V75h-25V62.5H137.5z M162.5,75v12.5h-25V75H162.5z M187.5,87.5V100h-25V87.5H187.5z M200,87.5h25V100h-25V87.5z M225,75h25v12.5h-25V75z M250,62.5h25V75h-25V62.5z M275,50h25v12.5 h-25V50z M300,37.5h25V50h-25V37.5z M325,25h25v12.5h-25V25z M187.5,100H200v12.5h-12.5V100z" style="fill: inherit;"/></g></svg>