<svg width="252" height="364" viewBox="0 0 252 364" fill="none" xmlns="http://www.w3.org/2000/svg">
<g clip-path="url(#clip0_290_123)">
<path d="M251.655 43.6328V71.3189H237.695V85.1666H223.716V98.996H209.746V112.835H195.767V126.682H181.806V154.377H195.767V168.216H209.746V182.045H223.716V209.713H237.695V278.906H223.716V292.754H209.746V320.422H195.767V334.288H181.806V348.126H153.858V361.956H84.0091V348.108H56.0695V334.288H42.0907V320.422H28.13V292.754H14.1512V278.906H0.181396V209.713H14.1512V182.027H28.13V168.198H42.0907V154.377H56.0695V140.512H70.0393V126.682H56.0695V112.835H42.0907V98.996H28.13V85.1666H14.1512V71.3189H0.181396V43.6328H14.1512V29.8033H28.13V15.9648H42.0907V2.11713H209.746V15.9648H223.716V29.8033H237.695V43.6328H251.655Z" fill="#FDD181"/>
<path d="M70.1299 167.843H84.0996V181.836H70.1299V167.843Z" fill="#FAB357"/>
<path d="M98.0693 265.804H112.039V279.797H98.0693V265.804Z" fill="#FAB357"/>
<path d="M153.949 167.843H167.928V181.836H153.949V167.843Z" fill="#FAB357"/>
<path d="M112.039 167.843H126H139.979H153.949V153.859H139.979H126H112.039H98.0697H84.0908V167.843H98.0697H112.039Z" fill="#FAB357"/>
<path d="M126 237.818H139.979V251.811H126V237.818Z" fill="#FAB357"/>
<path d="M139.979 223.825H153.949V237.818H139.979V223.825Z" fill="#FAB357"/>
<path d="M112.04 251.801H126.009V265.804H112.04V251.801Z" fill="#FAB357"/>
<path d="M153.949 293.799H167.928V307.792H153.949V293.799Z" fill="#FAB357"/>
<path d="M167.927 279.797V293.799H181.897V279.797V265.804H167.927V279.797Z" fill="#FAB357"/>
<path d="M181.897 209.822V195.839V181.836H167.928V195.839V209.822H153.949V223.825H167.928H181.897V237.818V251.801V265.804H195.858V251.801V237.818V223.825V209.822H181.897Z" fill="#FAB357"/>
<path d="M56.1605 237.818V223.825V209.822H42.1816V223.825V237.818V251.801V265.804H56.1605V251.801V237.818Z" fill="#FAB357"/>
<path d="M70.1299 195.839V181.836H56.1602V195.839V209.822H70.1299V195.839Z" fill="#FAB357"/>
<path d="M126 307.783H112.039H98.0697H84.0908V321.776H98.0697H112.039H126H139.979H153.949V307.783H139.979H126Z" fill="#FAB357"/>
<path d="M98.0694 293.799V279.797H84.0906H70.1299V265.804H56.1602V279.797V293.799H70.1299V307.783H84.0906V293.799H98.0694Z" fill="#FAB357"/>
<path d="M84.3174 41.661H84.0907H70.3568V27.6771H56.387V13.6841H41.9546V27.6771H27.9939V41.8882V56.1174H41.9546V70.1104H55.9334V84.1125H69.9032V98.0965H84.3174V84.1125H98.2963V69.8833V55.6631H84.3174V41.661Z" fill="#F38AB5"/>
<path d="M210.063 27.6771V13.6841H195.631V27.6771H181.67V41.661H167.701V55.6631H153.722V69.6561H139.752V83.6582H125.773V97.6421H111.812V112.089H126H139.979H153.949H168.154V98.0965H182.115V84.1125H196.085V70.1104H210.063V56.1174H224.024V41.8882V27.6771H210.063Z" fill="#F38AB5"/>
<path d="M223.398 41.661V41.8427V42.0699V55.6359H209.429V69.5925H195.45V83.5673H181.48V97.524H167.519V111.481H153.949H139.979H126H112.039H98.4778V98.3418H112.448V97.9329V83.9762V70.4103H126H140.387V70.0014V56.4536H154.357V42.4788H168.336V28.5221H182.296V13.7477H167.927H153.949H139.979H126H112.039H98.0696H84.0908H69.7219V28.5221H83.6826V42.4788H97.6614V56.4536H111.631V69.5925H97.6614V83.5673H83.6826V97.524H70.5383V83.5673H56.5685V69.5925H42.5897V55.6359H28.6199L28.629 41.661H13.8337V56.0447V70.4103H27.8126V84.3851H41.7733V98.3418H55.7521V112.298H69.7219V126.273H84.499V112.298H97.6614V126.273H112.039H126H139.979H153.949H167.927H182.296V112.298H196.266V98.3418H210.245V84.3851H224.215V70.4103H238.194V56.0447V41.661H223.398Z" fill="#DA689D"/>
<path d="M238.057 41.9609V27.9861H224.079V14.0113H210.109V0.0273438H41.9093V14.0113H27.9486V27.9861H13.9607V41.9609H0V71.4462H13.9607V85.0758H27.9486V99.614H41.9093V113.244H55.8881V126.873H69.8579V139.839H55.8881V153.823H41.9093V167.798H27.9486V181.773H13.9607V209.714H0V280.16H13.9607V294.144H27.9486V322.094H41.9093V336.105H55.8881V350.08H83.8186V364.055H154.221V350.053H182.16V336.105H196.13V322.094H210.109V294.144H224.079V280.16H238.057V209.714H224.079V181.755H210.109V167.78H196.13V153.805H182.16V126.391H196.13V112.408H210.109V98.7053H224.079V85.0758H238.057V71.4462H252.018V41.9609H238.057ZM70.4022 14.5565H181.616V27.9861H167.655V41.9609H153.676V55.954H139.707V69.9197H112.311V55.954H98.3417V41.9609H84.3629V27.9861H70.4022V14.5565ZM56.4324 111.862V97.8876H42.4536V83.9127H28.4929V69.9197H14.514V42.5061H28.4929V28.5313H42.4536V14.5565H55.8881V28.5313H69.8579V42.5061H83.8186V56.4991H97.7974V70.4649H111.767V97.8876H97.7974V111.862H83.8186V125.846H70.4022V111.862H56.4324ZM195.586 168.325V182.3H209.565V210.259H223.534V279.615H209.565V293.599H195.586V321.567H181.616V335.551H153.676V349.526H84.3629V335.533H56.4324V321.567H42.4536V293.599H28.4929V279.615H14.514V210.259H28.4929V182.3H42.4536V168.325H56.4324V154.378H70.4022V140.366H167.655V154.378H181.616V168.352L195.586 168.325ZM237.513 56.7081V69.9197H223.534V83.9127H209.565V97.8876H195.586V111.862H181.616V125.846H98.3417V112.408H112.311V98.4327H126.272V84.4579H140.251V70.4649H154.221V56.4991H168.2V42.5061H182.16V28.5313H196.13V14.5565H209.565V28.5313H223.534V42.5061H237.513V56.7081Z" fill="black"/>
</g>
<defs>
<clipPath id="clip0_290_123">
<rect width="252" height="364" fill="white"/>
</clipPath>
</defs>
</svg>
