<svg width="100" height="94" viewBox="0 0 100 94" fill="none" xmlns="http://www.w3.org/2000/svg">
<g clip-path="url(#clip0_105_4209)">
<path d="M75.5896 17.3998L74.3346 15.226L72.1146 16.5077L70.8596 14.334L68.6382 15.6165L67.3815 13.4399L65.1616 14.7216L63.9065 12.5478L61.6866 13.8295L60.4324 11.6572L58.211 12.9397L56.9543 10.7631L54.7344 12.0448L53.4793 9.87102L51.258 11.1535L49.038 12.4352L46.818 13.7169L44.5966 14.9994L42.3767 16.2811L40.1553 17.5637L37.9353 18.8454L35.7154 20.1271L33.494 21.4096L31.274 22.6913L29.0541 23.973L26.8327 25.2555L24.6127 26.5372L22.3913 27.8197L20.1714 29.1014L17.9514 30.3831L15.73 31.6656L16.985 33.8394L14.7651 35.1211L16.0217 37.2977L13.8003 38.5802L15.0545 40.7525L12.8346 42.0342L14.0896 44.208L11.8696 45.4897L13.1263 47.6663L10.9049 48.9488L12.1599 51.1226L9.93997 52.4043L11.195 54.578L8.97218 55.8614L10.228 58.0365L11.483 60.2103L13.7059 58.927L14.9625 61.1036L17.1825 59.8219L18.4367 61.9942L20.6581 60.7117L21.9131 62.8854L24.1331 61.6038L25.3897 63.7803L27.6097 62.4986L28.8647 64.6724L31.0861 63.3899L32.3419 65.5651L34.5619 64.2834L35.8169 66.4571L38.0383 65.1746L39.2933 67.3484L41.5133 66.0667L42.7699 68.2433L44.9899 66.9616L46.2441 69.1339L48.4655 67.8514L49.7221 70.028L51.9421 68.7463L53.1971 70.9201L55.4185 69.6376L56.6735 71.8113L58.8935 70.5296L60.1493 72.7048L62.3693 71.4231L63.6243 73.5969L65.8457 72.3143L64.5907 70.1406L66.8107 68.8589L65.5548 66.6837L67.7748 65.402L66.5198 63.2282L68.7411 61.9457L67.4861 59.772L69.7061 58.4903L68.4494 56.3137L70.6708 55.0312L69.4166 52.8588L71.6366 51.5771L70.3799 49.4005L72.5999 48.1188L71.3449 45.9451L73.5662 44.6625L72.3112 42.4888L74.5312 41.2071L73.2753 39.0319L75.4967 37.7494L74.2417 35.5756L76.4617 34.2939L75.205 32.1173L77.425 30.8356L76.17 28.6619L78.3913 27.3794L77.1371 25.207L79.3571 23.9253L78.1004 21.7487L80.3233 20.4654L79.0682 18.2916L77.8124 16.1164L75.5896 17.3998Z" fill="#FF786E"/>
<path d="M74.6284 20.8323L72.4055 22.1156L70.187 23.3965L67.967 24.6782L65.7457 25.9607L63.5257 27.2424L61.3029 28.5258L59.0843 29.8066L60.3573 32.0115L61.6311 34.2178L59.4112 35.4995L60.6842 37.7044L61.9571 39.9092L59.7343 41.1926L61.0081 43.3989L62.2811 45.6038L60.0626 46.8846L61.3364 49.0909L62.6094 51.2958L60.3866 52.5791L61.6595 54.784L62.9334 56.9903L60.7148 58.2712L61.9878 60.4761L63.2616 62.6824L61.0416 63.9641L62.3146 66.1689L63.5876 68.3738L65.8076 67.0921L64.5346 64.8872L66.7531 63.6064L65.4801 61.4015L67.703 60.1181L66.4291 57.9119L68.6477 56.631L67.3747 54.4261L69.5975 53.1428L68.3237 50.9365L70.5437 49.6548L69.2707 47.4499L71.4892 46.169L70.2162 43.9641L72.439 42.6808L71.1652 40.4745L73.3852 39.1928L72.1122 36.9879L74.3336 35.7054L73.0598 33.4991L75.2798 32.2174L74.0068 30.0125L76.2253 28.7317L74.9523 26.5268L77.1751 25.2435L75.9013 23.0372L78.1213 21.7555L76.8483 19.5506L74.6284 20.8323Z" fill="#F84B90"/>
<path d="M56.5377 25.3955L55.2647 23.1906L53.9909 20.9843L51.7709 22.266L50.4979 20.0611L49.2249 17.8562L47.0021 19.1396L45.7283 16.9333L43.5098 18.2142L41.287 19.4975L39.0684 20.7784L36.8485 22.0601L34.6257 23.3434L32.4071 24.6243L30.1872 25.906L27.9644 27.1893L25.7458 28.4702L27.0196 30.6765L24.7968 31.9598L26.0698 34.1647L27.3428 36.3696L25.1228 37.6513L26.3966 39.8576L27.6696 42.0624L25.4511 43.3433L26.7241 45.5482L27.9979 47.7545L25.775 49.0378L23.5565 50.3187L21.3337 51.602L19.1137 52.8837L16.8952 54.1646L14.6724 55.4479L12.4524 56.7296L13.7254 58.9345L15.9454 57.6528L17.2192 59.8591L19.442 58.5758L20.715 60.7807L22.9335 59.4998L24.2065 61.7047L26.4265 60.423L27.7003 62.6293L29.9231 61.3459L31.1961 63.5508L33.4146 62.2699L34.6884 64.4762L36.9112 63.1929L38.1842 65.3977L40.4027 64.1169L41.6757 66.3218L43.8957 65.0401L45.1695 67.2463L47.3923 65.963L48.6653 68.1679L50.8838 66.887L52.1576 69.0933L54.3804 67.81L55.6534 70.0148L57.8734 68.7331L59.1464 70.938L61.3649 69.6571L60.0919 67.4523L58.8189 65.2474L56.6004 66.5283L55.3266 64.322L54.0536 62.1171L51.8337 63.3988L50.5598 61.1925L49.2869 58.9876L47.0641 60.271L45.7911 58.0661L44.5173 55.8598L42.2987 57.1407L41.0257 54.9358L39.7519 52.7295L37.5291 54.0128L36.2561 51.808L34.9831 49.6031L32.7632 50.8848L31.4894 48.6785L30.2164 46.4736L32.4364 45.1919L34.6592 43.9086L36.8777 42.6277L39.1005 41.3444L41.3205 40.0627L43.539 38.7818L45.7618 37.4984L47.9818 36.2168L50.2003 34.9359L52.4231 33.6525L54.6417 32.3717L56.8645 31.0883L59.0845 29.8066L61.303 28.5258L60.0292 26.3195L58.7562 24.1146L56.5377 25.3955Z" fill="#FFC5DF"/>
<path d="M23.523 29.7535L21.303 31.0352L19.0845 32.3161L16.8617 33.5994L18.1355 35.8057L15.917 37.0866L17.1899 39.2915L14.9671 40.5748L16.2401 42.7797L14.0202 44.0614L15.294 46.2677L13.0754 47.5486L14.3484 49.7534L12.1256 51.0368L13.3986 53.2417L11.1786 54.5234L12.4524 56.7296L14.6724 55.4479L16.8952 54.1646L19.1137 52.8837L21.3337 51.602L23.5565 50.3187L25.775 49.0378L27.9979 47.7545L26.7241 45.5482L25.4511 43.3433L27.6696 42.0624L26.3966 39.8576L25.1228 37.6513L27.3428 36.3696L26.0698 34.1647L24.7968 31.9598L27.0196 30.6765L25.7458 28.4702L23.523 29.7535Z" fill="white"/>
<path d="M75.5867 17.3091L74.3096 15.0972L72.094 16.3764L70.821 14.1715L68.5982 15.4548L67.3244 13.2486L65.1058 14.5294L63.8328 12.3246L61.6129 13.6062L60.3407 11.4028L58.1193 12.6853L56.8447 10.4776L54.6247 11.7593L53.3517 9.55441L15.5497 31.3794L16.8227 33.5843L14.597 34.8693L15.8717 37.077L13.6503 38.3595L14.9224 40.563L12.7025 41.8447L13.9755 44.0496L11.7569 45.3304L13.0307 47.5367L10.8093 48.8192L12.0823 51.0241L9.86094 52.3066L11.138 54.5186L8.91662 55.8011L11.4961 60.2688L13.7175 58.9863L14.9913 61.1926L17.2127 59.9101L18.4856 62.115L20.707 60.8325L21.98 63.0373L24.1986 61.7565L25.4724 63.9628L27.6923 62.6811L28.9653 64.8859L31.1867 63.6034L32.4605 65.8097L34.6862 64.5247L35.9551 66.7225L38.1779 65.4392L39.4509 67.6441L41.6694 66.3632L42.9432 68.5695L45.1632 67.2878L46.4362 69.4927L48.659 68.2093L49.9328 70.4156L52.1513 69.1347L53.4243 71.3396L55.6471 70.0563L56.9201 72.2612L59.1401 70.9795L60.4139 73.1857L62.6324 71.9049L63.9054 74.1098L66.1837 72.7944L64.9107 70.5895L67.125 69.3111L65.8512 67.1048L68.0712 65.8231L66.7982 63.6182L69.021 62.3349L67.748 60.13L69.9665 58.8491L68.6927 56.6428L70.9156 55.3595L69.6426 53.1546L71.8625 51.8729L70.5887 49.6666L72.8073 48.3857L71.5343 46.1809L73.7571 44.8975L72.4841 42.6926L74.7041 41.4109L73.4303 39.2046L75.6516 37.9221L74.3787 35.7173L76.5986 34.4356L75.3248 32.2293L77.5434 30.9484L76.2704 28.7435L78.4932 27.4602L77.2202 25.2553L79.4359 23.9761L78.1621 21.7698L80.3835 20.4873L77.8081 16.0266L75.5867 17.3091ZM76.8199 19.5766L78.0766 21.7532L75.8552 23.0357L77.129 25.242L74.9118 26.522L76.1848 28.7269L73.9663 30.0078L75.2393 32.2126L73.0193 33.4943L74.2931 35.7006L72.0717 36.9832L73.3447 39.188L71.1248 40.4697L72.3986 42.676L70.1758 43.9594L71.4447 46.1572L69.2261 47.438L70.4991 49.6429L68.2791 50.9246L69.5529 53.1309L67.3301 54.4142L68.6031 56.6191L66.3846 57.9L67.6584 60.1063L65.4356 61.3896L66.7086 63.5945L64.4886 64.8762L65.7616 67.0811L63.543 68.362L64.8168 70.5683L62.651 71.8187L61.3772 69.6124L59.1587 70.8933L57.8857 68.6884L55.6657 69.9701L54.3927 67.7652L52.1699 69.0486L50.8961 66.8423L48.6761 68.124L47.4032 65.9191L45.1818 67.2016L43.908 64.9953L41.688 66.277L40.415 64.0721L38.2007 65.3506L36.9278 63.1457L34.7007 64.4315L33.4269 62.2252L31.2069 63.5069L29.9339 61.302L27.7125 62.5845L26.4387 60.3782L24.2188 61.6599L22.9458 59.4551L20.7272 60.7359L19.4543 58.5311L17.2314 59.8144L15.9576 57.6081L13.7377 58.8898L11.2235 54.5352L13.4435 53.2535L12.1705 51.0486L14.3933 49.7653L13.1203 47.5604L15.3389 46.2795L14.0651 44.0732L16.285 42.7915L15.0137 40.5895L17.2351 39.307L15.9605 37.0993L18.1804 35.8176L16.9066 33.6113L54.6004 11.8487L55.8742 14.055L58.0942 12.7733L59.3688 14.9811L61.5902 13.6985L62.8616 15.9006L65.0815 14.6189L66.3553 16.8252L68.5739 15.5443L69.8468 17.7492L72.064 16.4691L73.3369 18.674L75.5569 17.3923L76.8199 19.5766Z" fill="#260930"/>
</g>
<defs>
<clipPath id="clip0_105_4209">
<rect width="79.549" height="61.1916" fill="white" transform="translate(0 40.3571) rotate(-30)"/>
</clipPath>
</defs>
</svg>
