<svg width="1438" height="95" viewBox="0 0 1438 95" fill="none" xmlns="http://www.w3.org/2000/svg">
<g clip-path="url(#clip0_28_3197)">
<path d="M0 0H1438V95H0V0Z" fill="#8488F4"/>
<path d="M1423.62 5V15H1366.1V5H1351.72V15H1294.2V5H1279.82V15H1222.3V5H1207.92V15H1150.4V5H1136.02V15H1078.5V5H1064.12V15H1006.6V5H992.22V15H934.7V5H920.32V15H862.8V5H848.42V15H790.9V5H776.52V15H719V5H704.62V15H647.1V5H632.72V15H575.2V5H560.82V15H503.3V5H488.92V15H431.4V5H417.02V15H359.5V5H345.12V15H287.6V5H273.22V15H215.7V5H201.32V15H143.8V5H129.42V15H71.9V5H57.52V15H0V20H28.76V30H0V35H28.76H43.14H57.52V45H0V50H28.76V60H0V65H28.76H43.14H57.52V75H0V80H28.76V90H0V95H28.76H43.14H100.66H115.04H172.56H186.94H244.46H258.84H316.36H330.74H388.26H402.64H460.16H474.54H532.06H546.44H603.96H618.34H675.86H690.24H747.76H762.14H819.66H834.04H891.56H905.94H963.46H977.84H1035.36H1049.74H1107.26H1121.64H1179.16H1193.54H1251.06H1265.44H1322.96H1337.34H1394.86H1409.24H1438V90H1409.24V80H1423.62H1438V75V65V60H1409.24V50H1423.62H1438V45V35V30H1409.24V20H1423.62H1438V15V5H1423.62ZM1279.82 20H1294.2H1322.96V30H1265.44V20H1279.82ZM1351.72 45H1294.2V35H1322.96H1337.34H1351.72V45ZM1351.72 75H1294.2V65H1322.96H1337.34H1351.72V75ZM143.8 65H172.56H186.94H201.32V75H143.8V65ZM115.04 50H129.42H143.8H172.56V60H115.04V50ZM143.8 35H172.56H186.94H201.32V45H143.8V35ZM1279.82 45H1222.3V35H1251.06H1265.44H1279.82V45ZM1251.06 60H1193.54V50H1207.92H1222.3H1251.06V60ZM186.94 50H201.32H215.7H244.46V60H186.94V50ZM258.84 50H273.22H287.6H316.36V60H258.84V50ZM330.74 50H345.12H359.5H388.26V60H330.74V50ZM402.64 50H417.02H431.4H460.16V60H402.64V50ZM474.54 50H488.92H503.3H532.06V60H474.54V50ZM546.44 50H560.82H575.2H603.96V60H546.44V50ZM618.34 50H632.72H647.1H675.86V60H618.34V50ZM690.24 50H704.62H719H747.76V60H690.24V50ZM762.14 50H776.52H790.9H819.66V60H762.14V50ZM834.04 50H848.42H862.8H891.56V60H834.04V50ZM905.94 50H920.32H934.7H963.46V60H905.94V50ZM977.84 50H992.22H1006.6H1035.36V60H977.84V50ZM1049.74 50H1064.12H1078.5H1107.26V60H1049.74V50ZM1121.64 50H1136.02H1150.4H1179.16V60H1121.64V50ZM1207.92 45H1150.4V35H1179.16H1193.54H1207.92V45ZM1136.02 45H1078.5V35H1107.26H1121.64H1136.02V45ZM1064.12 45H1006.6V35H1035.36H1049.74H1064.12V45ZM992.22 45H934.7V35H963.46H977.84H992.22V45ZM920.32 45H862.8V35H891.56H905.94H920.32V45ZM848.42 45H790.9V35H819.66H834.04H848.42V45ZM776.52 45H719V35H747.76H762.14H776.52V45ZM704.62 45H647.1V35H675.86H690.24H704.62V45ZM632.72 45H575.2V35H603.96H618.34H632.72V45ZM560.82 45H503.3V35H532.06H546.44H560.82V45ZM488.92 45H431.4V35H460.16H474.54H488.92V45ZM417.02 45H359.5V35H388.26H402.64H417.02V45ZM345.12 45H287.6V35H316.36H330.74H345.12V45ZM273.22 45H215.7V35H244.46H258.84H273.22V45ZM215.7 65H244.46H258.84H273.22V75H215.7V65ZM287.6 65H316.36H330.74H345.12V75H287.6V65ZM359.5 65H388.26H402.64H417.02V75H359.5V65ZM431.4 65H460.16H474.54H488.92V75H431.4V65ZM503.3 65H532.06H546.44H560.82V75H503.3V65ZM575.2 65H603.96H618.34H632.72V75H575.2V65ZM647.1 65H675.86H690.24H704.62V75H647.1V65ZM719 65H747.76H762.14H776.52V75H719V65ZM790.9 65H819.66H834.04H848.42V75H790.9V65ZM862.8 65H891.56H905.94H920.32V75H862.8V65ZM934.7 65H963.46H977.84H992.22V75H934.7V65ZM1006.6 65H1035.36H1049.74H1064.12V75H1006.6V65ZM1078.5 65H1107.26H1121.64H1136.02V75H1078.5V65ZM1150.4 65H1179.16H1193.54H1207.92V75H1150.4V65ZM1222.3 65H1251.06H1265.44H1279.82V75H1222.3V65ZM1322.96 60H1265.44V50H1279.82H1294.2H1322.96V60ZM1207.92 20H1222.3H1251.06V30H1193.54V20H1207.92ZM1136.02 20H1150.4H1179.16V30H1121.64V20H1136.02ZM1064.12 20H1078.5H1107.26V30H1049.74V20H1064.12ZM992.22 20H1006.6H1035.36V30H977.84V20H992.22ZM920.32 20H934.7H963.46V30H905.94V20H920.32ZM848.42 20H862.8H891.56V30H834.04V20H848.42ZM776.52 20H790.9H819.66V30H762.14V20H776.52ZM704.62 20H719H747.76V30H690.24V20H704.62ZM632.72 20H647.1H675.86V30H618.34V20H632.72ZM560.82 20H575.2H603.96V30H546.44V20H560.82ZM488.92 20H503.3H532.06V30H474.54V20H488.92ZM417.02 20H431.4H460.16V30H402.64V20H417.02ZM345.12 20H359.5H388.26V30H330.74V20H345.12ZM273.22 20H287.6H316.36V30H258.84V20H273.22ZM201.32 20H215.7H244.46V30H186.94V20H201.32ZM129.42 20H143.8H172.56V30H115.04V20H129.42ZM43.14 30V20H57.52H71.9H100.66V30H43.14ZM71.9 35H100.66H115.04H129.42V45H71.9V35ZM43.14 60V50H57.52H71.9H100.66V60H43.14ZM71.9 65H100.66H115.04H129.42V75H71.9V65ZM43.14 90V80H57.52H71.9H100.66V90H43.14ZM115.04 90V80H129.42H143.8H172.56V90H115.04ZM186.94 90V80H201.32H215.7H244.46V90H186.94ZM258.84 90V80H273.22H287.6H316.36V90H258.84ZM330.74 90V80H345.12H359.5H388.26V90H330.74ZM402.64 90V80H417.02H431.4H460.16V90H402.64ZM474.54 90V80H488.92H503.3H532.06V90H474.54ZM546.44 90V80H560.82H575.2H603.96V90H546.44ZM618.34 90V80H632.72H647.1H675.86V90H618.34ZM690.24 90V80H704.62H719H747.76V90H690.24ZM762.14 90V80H776.52H790.9H819.66V90H762.14ZM834.04 90V80H848.42H862.8H891.56V90H834.04ZM905.94 90V80H920.32H934.7H963.46V90H905.94ZM977.84 90V80H992.22H1006.6H1035.36V90H977.84ZM1049.74 90V80H1064.12H1078.5H1107.26V90H1049.74ZM1121.64 90V80H1136.02H1150.4H1179.16V90H1121.64ZM1193.54 90V80H1207.92H1222.3H1251.06V90H1193.54ZM1265.44 90V80H1279.82H1294.2H1322.96V90H1265.44ZM1394.86 90H1337.34V80H1351.72H1366.1H1394.86V90ZM1423.62 65V75H1366.1V65H1394.86H1409.24H1423.62ZM1394.86 60H1337.34V50H1351.72H1366.1H1394.86V60ZM1423.62 35V45H1366.1V35H1394.86H1409.24H1423.62ZM1394.86 30H1337.34V20H1351.72H1366.1H1394.86V30Z" fill="#585EFF"/>
<path d="M0 0H1438V5H0V0Z" fill="#21EF80"/>
<path d="M0 10H14.38V15H0V10Z" fill="#8488F4"/>
<path d="M14.38 10H28.76V15H14.38V10Z" fill="#21EF80"/>
<path d="M43.14 5H57.52V10H43.14V5Z" fill="#21EF80"/>
<path d="M0 5H14.38V10H0V5Z" fill="#21EF80"/>
<path d="M28.76 10H43.14V15H28.76V10Z" fill="#8488F4"/>
<path d="M71.9 10H86.28V15H71.9V10Z" fill="#8488F4"/>
<path d="M86.28 10H100.66V15H86.28V10Z" fill="#21EF80"/>
<path d="M115.04 5H129.42V10H115.04V5Z" fill="#21EF80"/>
<path d="M71.9 5H86.28V10H71.9V5Z" fill="#21EF80"/>
<path d="M100.66 10H115.04V15H100.66V10Z" fill="#8488F4"/>
<path d="M143.8 10H158.18V15H143.8V10Z" fill="#8488F4"/>
<path d="M158.18 10H172.56V15H158.18V10Z" fill="#21EF80"/>
<path d="M186.94 5H201.32V10H186.94V5Z" fill="#21EF80"/>
<path d="M143.8 5H158.18V10H143.8V5Z" fill="#21EF80"/>
<path d="M172.56 10H186.94V15H172.56V10Z" fill="#8488F4"/>
<path d="M215.7 10H230.08V15H215.7V10Z" fill="#8488F4"/>
<path d="M230.08 10H244.46V15H230.08V10Z" fill="#21EF80"/>
<path d="M258.84 5H273.22V10H258.84V5Z" fill="#21EF80"/>
<path d="M215.7 5H230.08V10H215.7V5Z" fill="#21EF80"/>
<path d="M244.46 10H258.84V15H244.46V10Z" fill="#8488F4"/>
<path d="M287.6 10H301.98V15H287.6V10Z" fill="#8488F4"/>
<path d="M301.98 10H316.36V15H301.98V10Z" fill="#21EF80"/>
<path d="M330.74 5H345.12V10H330.74V5Z" fill="#21EF80"/>
<path d="M287.6 5H301.98V10H287.6V5Z" fill="#21EF80"/>
<path d="M316.36 10H330.74V15H316.36V10Z" fill="#8488F4"/>
<path d="M359.5 10H373.88V15H359.5V10Z" fill="#8488F4"/>
<path d="M373.88 10H388.26V15H373.88V10Z" fill="#21EF80"/>
<path d="M402.64 5H417.02V10H402.64V5Z" fill="#21EF80"/>
<path d="M359.5 5H373.88V10H359.5V5Z" fill="#21EF80"/>
<path d="M388.26 10H402.64V15H388.26V10Z" fill="#8488F4"/>
<path d="M431.4 10H445.78V15H431.4V10Z" fill="#8488F4"/>
<path d="M445.78 10H460.16V15H445.78V10Z" fill="#21EF80"/>
<path d="M474.54 5H488.92V10H474.54V5Z" fill="#21EF80"/>
<path d="M431.4 5H445.78V10H431.4V5Z" fill="#21EF80"/>
<path d="M460.16 10H474.54V15H460.16V10Z" fill="#8488F4"/>
<path d="M503.3 10H517.68V15H503.3V10Z" fill="#8488F4"/>
<path d="M517.68 10H532.06V15H517.68V10Z" fill="#21EF80"/>
<path d="M546.44 5H560.82V10H546.44V5Z" fill="#21EF80"/>
<path d="M503.3 5H517.68V10H503.3V5Z" fill="#21EF80"/>
<path d="M532.06 10H546.44V15H532.06V10Z" fill="#8488F4"/>
<path d="M575.2 10H589.58V15H575.2V10Z" fill="#8488F4"/>
<path d="M589.58 10H603.96V15H589.58V10Z" fill="#21EF80"/>
<path d="M618.34 5H632.72V10H618.34V5Z" fill="#21EF80"/>
<path d="M575.2 5H589.58V10H575.2V5Z" fill="#21EF80"/>
<path d="M603.96 10H618.34V15H603.96V10Z" fill="#8488F4"/>
<path d="M647.1 10H661.48V15H647.1V10Z" fill="#8488F4"/>
<path d="M661.48 10H675.86V15H661.48V10Z" fill="#21EF80"/>
<path d="M690.24 5H704.62V10H690.24V5Z" fill="#21EF80"/>
<path d="M647.1 5H661.48V10H647.1V5Z" fill="#21EF80"/>
<path d="M675.86 10H690.24V15H675.86V10Z" fill="#8488F4"/>
<path d="M719 10H733.38V15H719V10Z" fill="#8488F4"/>
<path d="M733.38 10H747.76V15H733.38V10Z" fill="#21EF80"/>
<path d="M762.14 5H776.52V10H762.14V5Z" fill="#21EF80"/>
<path d="M719 5H733.38V10H719V5Z" fill="#21EF80"/>
<path d="M747.76 10H762.14V15H747.76V10Z" fill="#8488F4"/>
<path d="M790.9 10H805.28V15H790.9V10Z" fill="#8488F4"/>
<path d="M805.28 10H819.66V15H805.28V10Z" fill="#21EF80"/>
<path d="M834.04 5H848.42V10H834.04V5Z" fill="#21EF80"/>
<path d="M790.9 5H805.28V10H790.9V5Z" fill="#21EF80"/>
<path d="M819.66 10H834.04V15H819.66V10Z" fill="#8488F4"/>
<path d="M862.8 10H877.18V15H862.8V10Z" fill="#8488F4"/>
<path d="M877.18 10H891.56V15H877.18V10Z" fill="#21EF80"/>
<path d="M905.94 5H920.32V10H905.94V5Z" fill="#21EF80"/>
<path d="M862.8 5H877.18V10H862.8V5Z" fill="#21EF80"/>
<path d="M891.56 10H905.94V15H891.56V10Z" fill="#8488F4"/>
<path d="M934.7 10H949.08V15H934.7V10Z" fill="#8488F4"/>
<path d="M949.08 10H963.46V15H949.08V10Z" fill="#21EF80"/>
<path d="M977.84 5H992.22V10H977.84V5Z" fill="#21EF80"/>
<path d="M934.7 5H949.08V10H934.7V5Z" fill="#21EF80"/>
<path d="M963.46 10H977.84V15H963.46V10Z" fill="#8488F4"/>
<path d="M1006.6 10H1020.98V15H1006.6V10Z" fill="#8488F4"/>
<path d="M1020.98 10H1035.36V15H1020.98V10Z" fill="#21EF80"/>
<path d="M1049.74 5H1064.12V10H1049.74V5Z" fill="#21EF80"/>
<path d="M1006.6 5H1020.98V10H1006.6V5Z" fill="#21EF80"/>
<path d="M1035.36 10H1049.74V15H1035.36V10Z" fill="#8488F4"/>
<path d="M1078.5 10H1092.88V15H1078.5V10Z" fill="#8488F4"/>
<path d="M1092.88 10H1107.26V15H1092.88V10Z" fill="#21EF80"/>
<path d="M1121.64 5H1136.02V10H1121.64V5Z" fill="#21EF80"/>
<path d="M1078.5 5H1092.88V10H1078.5V5Z" fill="#21EF80"/>
<path d="M1107.26 10H1121.64V15H1107.26V10Z" fill="#8488F4"/>
<path d="M1150.4 10H1164.78V15H1150.4V10Z" fill="#8488F4"/>
<path d="M1164.78 10H1179.16V15H1164.78V10Z" fill="#21EF80"/>
<path d="M1193.54 5H1207.92V10H1193.54V5Z" fill="#21EF80"/>
<path d="M1150.4 5H1164.78V10H1150.4V5Z" fill="#21EF80"/>
<path d="M1179.16 10H1193.54V15H1179.16V10Z" fill="#8488F4"/>
<path d="M1222.3 10H1236.68V15H1222.3V10Z" fill="#8488F4"/>
<path d="M1236.68 10H1251.06V15H1236.68V10Z" fill="#21EF80"/>
<path d="M1265.44 5H1279.82V10H1265.44V5Z" fill="#21EF80"/>
<path d="M1222.3 5H1236.68V10H1222.3V5Z" fill="#21EF80"/>
<path d="M1251.06 10H1265.44V15H1251.06V10Z" fill="#8488F4"/>
<path d="M1294.2 10H1308.58V15H1294.2V10Z" fill="#8488F4"/>
<path d="M1308.58 10H1322.96V15H1308.58V10Z" fill="#21EF80"/>
<path d="M1337.34 5H1351.72V10H1337.34V5Z" fill="#21EF80"/>
<path d="M1294.2 5H1308.58V10H1294.2V5Z" fill="#21EF80"/>
<path d="M1322.96 10H1337.34V15H1322.96V10Z" fill="#8488F4"/>
<path d="M1366.1 10H1380.48V15H1366.1V10Z" fill="#8488F4"/>
<path d="M1380.48 10H1394.86V15H1380.48V10Z" fill="#21EF80"/>
<path d="M1409.24 5H1423.62V10H1409.24V5Z" fill="#21EF80"/>
<path d="M1366.1 5H1380.48V10H1366.1V5Z" fill="#21EF80"/>
<path d="M1394.86 10H1409.24V15H1394.86V10Z" fill="#8488F4"/>
<path d="M43.14 20H57.52V25H43.14V20Z" fill="#8488F4"/>
<path d="M57.52 25H71.9V30H57.52V25Z" fill="#21EF80"/>
<path d="M86.28 20H100.66V25H86.28V20Z" fill="#21EF80"/>
<path d="M71.9 25H86.28V30H71.9V25Z" fill="#8488F4"/>
<path d="M0 35H14.38V40H0V35Z" fill="#8488F4"/>
<path d="M43.14 40H57.52V45H43.14V40Z" fill="#21EF80"/>
<path d="M0 55H14.38V60H0V55Z" fill="#21EF80"/>
<path d="M28.76 40H43.14V45H28.76V40Z" fill="#8488F4"/>
<path d="M71.9 35H86.28V40H71.9V35Z" fill="#8488F4"/>
<path d="M115.04 40H129.42V45H115.04V40Z" fill="#21EF80"/>
<path d="M100.66 40H115.04V45H100.66V40Z" fill="#8488F4"/>
<path d="M71.9 55H86.28V60H71.9V55Z" fill="#21EF80"/>
<path d="M57.52 55H71.9V60H57.52V55Z" fill="#8488F4"/>
<path d="M14.38 70H28.76V75H14.38V70Z" fill="#8488F4"/>
<path d="M86.28 70H100.66V75H86.28V70Z" fill="#8488F4"/>
<path d="M158.18 70H172.56V75H158.18V70Z" fill="#8488F4"/>
<path d="M230.08 70H244.46V75H230.08V70Z" fill="#8488F4"/>
<path d="M301.98 70H316.36V75H301.98V70Z" fill="#8488F4"/>
<path d="M373.88 70H388.26V75H373.88V70Z" fill="#8488F4"/>
<path d="M445.78 70H460.16V75H445.78V70Z" fill="#8488F4"/>
<path d="M517.68 70H532.06V75H517.68V70Z" fill="#8488F4"/>
<path d="M589.58 70H603.96V75H589.58V70Z" fill="#8488F4"/>
<path d="M661.48 70H675.86V75H661.48V70Z" fill="#8488F4"/>
<path d="M733.38 70H747.76V75H733.38V70Z" fill="#8488F4"/>
<path d="M805.28 70H819.66V75H805.28V70Z" fill="#8488F4"/>
<path d="M877.18 70H891.56V75H877.18V70Z" fill="#8488F4"/>
<path d="M949.08 70H963.46V75H949.08V70Z" fill="#8488F4"/>
<path d="M1020.98 70H1035.36V75H1020.98V70Z" fill="#8488F4"/>
<path d="M1092.88 70H1107.26V75H1092.88V70Z" fill="#8488F4"/>
<path d="M1164.78 70H1179.16V75H1164.78V70Z" fill="#8488F4"/>
<path d="M1236.68 70H1251.06V75H1236.68V70Z" fill="#8488F4"/>
<path d="M1308.58 70H1322.96V75H1308.58V70Z" fill="#8488F4"/>
<path d="M1380.48 70H1394.86V75H1380.48V70Z" fill="#8488F4"/>
<path d="M143.8 55H158.18V60H143.8V55Z" fill="#21EF80"/>
<path d="M129.42 55H143.8V60H129.42V55Z" fill="#8488F4"/>
<path d="M215.7 55H230.08V60H215.7V55Z" fill="#21EF80"/>
<path d="M201.32 55H215.7V60H201.32V55Z" fill="#8488F4"/>
<path d="M287.6 55H301.98V60H287.6V55Z" fill="#21EF80"/>
<path d="M273.22 55H287.6V60H273.22V55Z" fill="#8488F4"/>
<path d="M359.5 55H373.88V60H359.5V55Z" fill="#21EF80"/>
<path d="M345.12 55H359.5V60H345.12V55Z" fill="#8488F4"/>
<path d="M431.4 55H445.78V60H431.4V55Z" fill="#21EF80"/>
<path d="M417.02 55H431.4V60H417.02V55Z" fill="#8488F4"/>
<path d="M503.3 55H517.68V60H503.3V55Z" fill="#21EF80"/>
<path d="M488.92 55H503.3V60H488.92V55Z" fill="#8488F4"/>
<path d="M575.2 55H589.58V60H575.2V55Z" fill="#21EF80"/>
<path d="M560.82 55H575.2V60H560.82V55Z" fill="#8488F4"/>
<path d="M647.1 55H661.48V60H647.1V55Z" fill="#21EF80"/>
<path d="M632.72 55H647.1V60H632.72V55Z" fill="#8488F4"/>
<path d="M719 55H733.38V60H719V55Z" fill="#21EF80"/>
<path d="M704.62 55H719V60H704.62V55Z" fill="#8488F4"/>
<path d="M790.9 55H805.28V60H790.9V55Z" fill="#21EF80"/>
<path d="M776.52 55H790.9V60H776.52V55Z" fill="#8488F4"/>
<path d="M862.8 55H877.18V60H862.8V55Z" fill="#21EF80"/>
<path d="M848.42 55H862.8V60H848.42V55Z" fill="#8488F4"/>
<path d="M934.7 55H949.08V60H934.7V55Z" fill="#21EF80"/>
<path d="M920.32 55H934.7V60H920.32V55Z" fill="#8488F4"/>
<path d="M1006.6 55H1020.98V60H1006.6V55Z" fill="#21EF80"/>
<path d="M992.22 55H1006.6V60H992.22V55Z" fill="#8488F4"/>
<path d="M1078.5 55H1092.88V60H1078.5V55Z" fill="#21EF80"/>
<path d="M1064.12 55H1078.5V60H1064.12V55Z" fill="#8488F4"/>
<path d="M1150.4 55H1164.78V60H1150.4V55Z" fill="#21EF80"/>
<path d="M1136.02 55H1150.4V60H1136.02V55Z" fill="#8488F4"/>
<path d="M1222.3 55H1236.68V60H1222.3V55Z" fill="#21EF80"/>
<path d="M1207.92 55H1222.3V60H1207.92V55Z" fill="#8488F4"/>
<path d="M1294.2 55H1308.58V60H1294.2V55Z" fill="#21EF80"/>
<path d="M1279.82 55H1294.2V60H1279.82V55Z" fill="#8488F4"/>
<path d="M1366.1 55H1380.48V60H1366.1V55Z" fill="#21EF80"/>
<path d="M1351.72 55H1366.1V60H1351.72V55Z" fill="#8488F4"/>
<path d="M1423.62 55H1438V60H1423.62V55Z" fill="#8488F4"/>
<path d="M143.8 35H158.18V40H143.8V35Z" fill="#8488F4"/>
<path d="M186.94 40H201.32V45H186.94V40Z" fill="#21EF80"/>
<path d="M172.56 40H186.94V45H172.56V40Z" fill="#8488F4"/>
<path d="M215.7 35H230.08V40H215.7V35Z" fill="#8488F4"/>
<path d="M258.84 40H273.22V45H258.84V40Z" fill="#21EF80"/>
<path d="M244.46 40H258.84V45H244.46V40Z" fill="#8488F4"/>
<path d="M287.6 35H301.98V40H287.6V35Z" fill="#8488F4"/>
<path d="M330.74 40H345.12V45H330.74V40Z" fill="#21EF80"/>
<path d="M316.36 40H330.74V45H316.36V40Z" fill="#8488F4"/>
<path d="M359.5 35H373.88V40H359.5V35Z" fill="#8488F4"/>
<path d="M402.64 40H417.02V45H402.64V40Z" fill="#21EF80"/>
<path d="M388.26 40H402.64V45H388.26V40Z" fill="#8488F4"/>
<path d="M431.4 35H445.78V40H431.4V35Z" fill="#8488F4"/>
<path d="M474.54 40H488.92V45H474.54V40Z" fill="#21EF80"/>
<path d="M460.16 40H474.54V45H460.16V40Z" fill="#8488F4"/>
<path d="M503.3 35H517.68V40H503.3V35Z" fill="#8488F4"/>
<path d="M546.44 40H560.82V45H546.44V40Z" fill="#21EF80"/>
<path d="M532.06 40H546.44V45H532.06V40Z" fill="#8488F4"/>
<path d="M575.2 35H589.58V40H575.2V35Z" fill="#8488F4"/>
<path d="M618.34 40H632.72V45H618.34V40Z" fill="#21EF80"/>
<path d="M603.96 40H618.34V45H603.96V40Z" fill="#8488F4"/>
<path d="M647.1 35H661.48V40H647.1V35Z" fill="#8488F4"/>
<path d="M690.24 40H704.62V45H690.24V40Z" fill="#21EF80"/>
<path d="M675.86 40H690.24V45H675.86V40Z" fill="#8488F4"/>
<path d="M719 35H733.38V40H719V35Z" fill="#8488F4"/>
<path d="M762.14 40H776.52V45H762.14V40Z" fill="#21EF80"/>
<path d="M747.76 40H762.14V45H747.76V40Z" fill="#8488F4"/>
<path d="M790.9 35H805.28V40H790.9V35Z" fill="#8488F4"/>
<path d="M834.04 40H848.42V45H834.04V40Z" fill="#21EF80"/>
<path d="M819.66 40H834.04V45H819.66V40Z" fill="#8488F4"/>
<path d="M862.8 35H877.18V40H862.8V35Z" fill="#8488F4"/>
<path d="M905.94 40H920.32V45H905.94V40Z" fill="#21EF80"/>
<path d="M891.56 40H905.94V45H891.56V40Z" fill="#8488F4"/>
<path d="M934.7 35H949.08V40H934.7V35Z" fill="#8488F4"/>
<path d="M977.84 40H992.22V45H977.84V40Z" fill="#21EF80"/>
<path d="M963.46 40H977.84V45H963.46V40Z" fill="#8488F4"/>
<path d="M1006.6 35H1020.98V40H1006.6V35Z" fill="#8488F4"/>
<path d="M1049.74 40H1064.12V45H1049.74V40Z" fill="#21EF80"/>
<path d="M1035.36 40H1049.74V45H1035.36V40Z" fill="#8488F4"/>
<path d="M1078.5 35H1092.88V40H1078.5V35Z" fill="#8488F4"/>
<path d="M1121.64 40H1136.02V45H1121.64V40Z" fill="#21EF80"/>
<path d="M1107.26 40H1121.64V45H1107.26V40Z" fill="#8488F4"/>
<path d="M1150.4 35H1164.78V40H1150.4V35Z" fill="#8488F4"/>
<path d="M1193.54 40H1207.92V45H1193.54V40Z" fill="#21EF80"/>
<path d="M1179.16 40H1193.54V45H1179.16V40Z" fill="#8488F4"/>
<path d="M1222.3 35H1236.68V40H1222.3V35Z" fill="#8488F4"/>
<path d="M1265.44 40H1279.82V45H1265.44V40Z" fill="#21EF80"/>
<path d="M1251.06 40H1265.44V45H1251.06V40Z" fill="#8488F4"/>
<path d="M1294.2 35H1308.58V40H1294.2V35Z" fill="#8488F4"/>
<path d="M1337.34 40H1351.72V45H1337.34V40Z" fill="#21EF80"/>
<path d="M1322.96 40H1337.34V45H1322.96V40Z" fill="#8488F4"/>
<path d="M1366.1 35H1380.48V40H1366.1V35Z" fill="#8488F4"/>
<path d="M1409.24 40H1423.62V45H1409.24V40Z" fill="#21EF80"/>
<path d="M1394.86 40H1409.24V45H1394.86V40Z" fill="#8488F4"/>
<path d="M115.04 20H129.42V25H115.04V20Z" fill="#8488F4"/>
<path d="M129.42 25H143.8V30H129.42V25Z" fill="#21EF80"/>
<path d="M158.18 20H172.56V25H158.18V20Z" fill="#21EF80"/>
<path d="M143.8 25H158.18V30H143.8V25Z" fill="#8488F4"/>
<path d="M186.94 20H201.32V25H186.94V20Z" fill="#8488F4"/>
<path d="M201.32 25H215.7V30H201.32V25Z" fill="#21EF80"/>
<path d="M230.08 20H244.46V25H230.08V20Z" fill="#21EF80"/>
<path d="M215.7 25H230.08V30H215.7V25Z" fill="#8488F4"/>
<path d="M258.84 20H273.22V25H258.84V20Z" fill="#8488F4"/>
<path d="M273.22 25H287.6V30H273.22V25Z" fill="#21EF80"/>
<path d="M301.98 20H316.36V25H301.98V20Z" fill="#21EF80"/>
<path d="M287.6 25H301.98V30H287.6V25Z" fill="#8488F4"/>
<path d="M330.74 20H345.12V25H330.74V20Z" fill="#8488F4"/>
<path d="M345.12 25H359.5V30H345.12V25Z" fill="#21EF80"/>
<path d="M373.88 20H388.26V25H373.88V20Z" fill="#21EF80"/>
<path d="M359.5 25H373.88V30H359.5V25Z" fill="#8488F4"/>
<path d="M402.64 20H417.02V25H402.64V20Z" fill="#8488F4"/>
<path d="M417.02 25H431.4V30H417.02V25Z" fill="#21EF80"/>
<path d="M445.78 20H460.16V25H445.78V20Z" fill="#21EF80"/>
<path d="M431.4 25H445.78V30H431.4V25Z" fill="#8488F4"/>
<path d="M474.54 20H488.92V25H474.54V20Z" fill="#8488F4"/>
<path d="M488.92 25H503.3V30H488.92V25Z" fill="#21EF80"/>
<path d="M517.68 20H532.06V25H517.68V20Z" fill="#21EF80"/>
<path d="M503.3 25H517.68V30H503.3V25Z" fill="#8488F4"/>
<path d="M546.44 20H560.82V25H546.44V20Z" fill="#8488F4"/>
<path d="M560.82 25H575.2V30H560.82V25Z" fill="#21EF80"/>
<path d="M589.58 20H603.96V25H589.58V20Z" fill="#21EF80"/>
<path d="M575.2 25H589.58V30H575.2V25Z" fill="#8488F4"/>
<path d="M618.34 20H632.72V25H618.34V20Z" fill="#8488F4"/>
<path d="M632.72 25H647.1V30H632.72V25Z" fill="#21EF80"/>
<path d="M661.48 20H675.86V25H661.48V20Z" fill="#21EF80"/>
<path d="M647.1 25H661.48V30H647.1V25Z" fill="#8488F4"/>
<path d="M690.24 20H704.62V25H690.24V20Z" fill="#8488F4"/>
<path d="M704.62 25H719V30H704.62V25Z" fill="#21EF80"/>
<path d="M733.38 20H747.76V25H733.38V20Z" fill="#21EF80"/>
<path d="M719 25H733.38V30H719V25Z" fill="#8488F4"/>
<path d="M762.14 20H776.52V25H762.14V20Z" fill="#8488F4"/>
<path d="M776.52 25H790.9V30H776.52V25Z" fill="#21EF80"/>
<path d="M805.28 20H819.66V25H805.28V20Z" fill="#21EF80"/>
<path d="M790.9 25H805.28V30H790.9V25Z" fill="#8488F4"/>
<path d="M834.04 20H848.42V25H834.04V20Z" fill="#8488F4"/>
<path d="M848.42 25H862.8V30H848.42V25Z" fill="#21EF80"/>
<path d="M877.18 20H891.56V25H877.18V20Z" fill="#21EF80"/>
<path d="M862.8 25H877.18V30H862.8V25Z" fill="#8488F4"/>
<path d="M905.94 20H920.32V25H905.94V20Z" fill="#8488F4"/>
<path d="M920.32 25H934.7V30H920.32V25Z" fill="#21EF80"/>
<path d="M949.08 20H963.46V25H949.08V20Z" fill="#21EF80"/>
<path d="M934.7 25H949.08V30H934.7V25Z" fill="#8488F4"/>
<path d="M977.84 20H992.22V25H977.84V20Z" fill="#8488F4"/>
<path d="M992.22 25H1006.6V30H992.22V25Z" fill="#21EF80"/>
<path d="M1020.98 20H1035.36V25H1020.98V20Z" fill="#21EF80"/>
<path d="M1006.6 25H1020.98V30H1006.6V25Z" fill="#8488F4"/>
<path d="M1049.74 20H1064.12V25H1049.74V20Z" fill="#8488F4"/>
<path d="M1064.12 25H1078.5V30H1064.12V25Z" fill="#21EF80"/>
<path d="M1092.88 20H1107.26V25H1092.88V20Z" fill="#21EF80"/>
<path d="M1078.5 25H1092.88V30H1078.5V25Z" fill="#8488F4"/>
<path d="M1121.64 20H1136.02V25H1121.64V20Z" fill="#8488F4"/>
<path d="M1136.02 25H1150.4V30H1136.02V25Z" fill="#21EF80"/>
<path d="M1164.78 20H1179.16V25H1164.78V20Z" fill="#21EF80"/>
<path d="M1150.4 25H1164.78V30H1150.4V25Z" fill="#8488F4"/>
<path d="M1193.54 20H1207.92V25H1193.54V20Z" fill="#8488F4"/>
<path d="M1207.92 25H1222.3V30H1207.92V25Z" fill="#21EF80"/>
<path d="M1236.68 20H1251.06V25H1236.68V20Z" fill="#21EF80"/>
<path d="M1222.3 25H1236.68V30H1222.3V25Z" fill="#8488F4"/>
<path d="M1265.44 20H1279.82V25H1265.44V20Z" fill="#8488F4"/>
<path d="M1279.82 25H1294.2V30H1279.82V25Z" fill="#21EF80"/>
<path d="M1308.58 20H1322.96V25H1308.58V20Z" fill="#21EF80"/>
<path d="M1294.2 25H1308.58V30H1294.2V25Z" fill="#8488F4"/>
<path d="M1337.34 20H1351.72V25H1337.34V20Z" fill="#8488F4"/>
<path d="M1351.72 25H1366.1V30H1351.72V25Z" fill="#21EF80"/>
<path d="M1380.48 20H1394.86V25H1380.48V20Z" fill="#21EF80"/>
<path d="M1366.1 25H1380.48V30H1366.1V25Z" fill="#8488F4"/>
<path d="M1409.24 20H1423.62V25H1409.24V20Z" fill="#8488F4"/>
<path d="M1423.62 25H1438V30H1423.62V25Z" fill="#21EF80"/>
<path d="M14.38 20H28.76V25H14.38V20Z" fill="#21EF80"/>
<path d="M0 25H14.38V30H0V25Z" fill="#8488F4"/>
<path opacity="0.2" d="M0 20H28.76V30H0V20Z" fill="#21EF80"/>
<path opacity="0.2" d="M43.14 20H100.66V30H43.14V20Z" fill="#21EF80"/>
<path opacity="0.2" d="M115.04 20H172.56V30H115.04V20Z" fill="#21EF80"/>
<path opacity="0.2" d="M186.94 20H244.46V30H186.94V20Z" fill="#21EF80"/>
<path opacity="0.2" d="M258.84 20H316.36V30H258.84V20Z" fill="#21EF80"/>
<path opacity="0.2" d="M330.74 20H388.26V30H330.74V20Z" fill="#21EF80"/>
<path opacity="0.2" d="M402.64 20H460.16V30H402.64V20Z" fill="#21EF80"/>
<path opacity="0.2" d="M474.54 20H532.06V30H474.54V20Z" fill="#21EF80"/>
<path opacity="0.2" d="M546.44 20H603.96V30H546.44V20Z" fill="#21EF80"/>
<path opacity="0.2" d="M618.34 20H675.86V30H618.34V20Z" fill="#21EF80"/>
<path opacity="0.2" d="M690.24 20H747.76V30H690.24V20Z" fill="#21EF80"/>
<path opacity="0.2" d="M762.14 20H819.66V30H762.14V20Z" fill="#21EF80"/>
<path opacity="0.2" d="M834.04 20H891.56V30H834.04V20Z" fill="#21EF80"/>
<path opacity="0.2" d="M905.94 20H963.46V30H905.94V20Z" fill="#21EF80"/>
<path opacity="0.2" d="M977.84 20H1035.36V30H977.84V20Z" fill="#21EF80"/>
<path opacity="0.2" d="M1049.74 20H1107.26V30H1049.74V20Z" fill="#21EF80"/>
<path opacity="0.2" d="M1121.64 20H1179.16V30H1121.64V20Z" fill="#21EF80"/>
<path opacity="0.2" d="M1193.54 20H1251.06V30H1193.54V20Z" fill="#21EF80"/>
<path opacity="0.2" d="M1265.44 20H1322.96V30H1265.44V20Z" fill="#21EF80"/>
<path opacity="0.2" d="M1337.34 20H1394.86V30H1337.34V20Z" fill="#21EF80"/>
<path opacity="0.2" d="M1409.24 20H1438V30H1409.24V20Z" fill="#21EF80"/>
<g opacity="0.5">
<path d="M0 5H57.52V15H0V5Z" fill="black"/>
<path d="M71.9 5H129.42V15H71.9V5Z" fill="black"/>
<path d="M143.8 5H201.32V15H143.8V5Z" fill="black"/>
<path d="M215.7 5H273.22V15H215.7V5Z" fill="black"/>
<path d="M287.6 5H345.12V15H287.6V5Z" fill="black"/>
<path d="M359.5 5H417.02V15H359.5V5Z" fill="black"/>
<path d="M431.4 5H488.92V15H431.4V5Z" fill="black"/>
<path d="M503.3 5H560.82V15H503.3V5Z" fill="black"/>
<path d="M575.2 5H632.72V15H575.2V5Z" fill="black"/>
<path d="M647.1 5H704.62V15H647.1V5Z" fill="black"/>
<path d="M719 5H776.52V15H719V5Z" fill="black"/>
<path d="M790.9 5H848.42V15H790.9V5Z" fill="black"/>
<path d="M862.8 5H920.32V15H862.8V5Z" fill="black"/>
<path d="M934.7 5H992.22V15H934.7V5Z" fill="black"/>
<path d="M1006.6 5H1064.12V15H1006.6V5Z" fill="black"/>
<path d="M1078.5 5H1136.02V15H1078.5V5Z" fill="black"/>
<path d="M1150.4 5H1207.92V15H1150.4V5Z" fill="black"/>
<path d="M1222.3 5H1279.82V15H1222.3V5Z" fill="black"/>
<path d="M1294.2 5H1351.72V15H1294.2V5Z" fill="black"/>
<path d="M1366.1 5H1423.62V15H1366.1V5Z" fill="black"/>
</g>
</g>
<defs>
<clipPath id="clip0_28_3197">
<rect width="1438" height="95" fill="white"/>
</clipPath>
</defs>
</svg>
