<svg width="156" height="315" viewBox="0 0 156 315" fill="none" xmlns="http://www.w3.org/2000/svg">
<g clip-path="url(#clip0_73_8311)">
<path d="M48 30.2885V24.2308H54V18.1731H60V12.1154H66H72V24.2308H66V30.2885H72V36.3462V42.4038H48H42V36.3462V30.2885H48Z" fill="#FF999A"/>
<path d="M126 12.1154V24.2308H132V36.3462H138V48.4615H144V175.673V181.731V187.788V284.712H150V290.769V296.827H156V302.885V315H150H126H120V302.885V296.827H126V290.769V284.712H132V84.8077V78.75V72.6923V66.6346V60.5769V54.5192V48.4615H126V36.3462H120V24.2308H108V12.1154H120H126Z" fill="#FF999A"/>
<path d="M72 0H78H102H108V12.1154H102H72V6.05769V0Z" fill="#FF999A"/>
<path d="M144 48.4615H132V290.769H144V48.4615Z" fill="#AB1D8C"/>
<path d="M138 36.3462H126V48.4615H138V36.3462Z" fill="#AB1D8C"/>
<path d="M132 24.2308H120V36.3462H132V24.2308Z" fill="#AB1D8C"/>
<path d="M126 12.1154H108V24.2308H126V12.1154Z" fill="#AB1D8C"/>
<path d="M108 0H72V12.1154H108V0Z" fill="#AB1D8C"/>
<path d="M72 12.1154H60V24.2308H72V12.1154Z" fill="#AB1D8C"/>
<path d="M60 18.1731H54V24.2308H60V18.1731Z" fill="#AB1D8C"/>
<path d="M66 24.2308H48V30.2885H66V24.2308Z" fill="#AB1D8C"/>
<path d="M72 30.2885H42V36.3461H72V30.2885Z" fill="#AB1D8C"/>
<path d="M72 36.3462H42V42.4039H72V36.3462Z" fill="#AB1D8C"/>
<path opacity="0.2" d="M72 36.3462H42V42.4039H72V36.3462Z" fill="#060035"/>
<path d="M48 30.2885H42V42.4038H48V30.2885Z" fill="#FF999A"/>
<path opacity="0.2" d="M144 48.4615H138V290.769H144V48.4615Z" fill="#060035"/>
<path opacity="0.2" d="M138 36.3462H132V48.4615H138V36.3462Z" fill="#060035"/>
<path opacity="0.2" d="M132 24.2308H126V36.3462H132V24.2308Z" fill="#060035"/>
<path opacity="0.2" d="M126 12.1154H120V24.2308H126V12.1154Z" fill="#060035"/>
<path opacity="0.2" d="M108 0H102V12.1154H108V0Z" fill="#060035"/>
<path opacity="0.5" d="M138 84.8077H132V290.769H138V84.8077Z" fill="#FF999A"/>
<path opacity="0.5" d="M138 60.5769H132V66.6346H138V60.5769Z" fill="#FF999A"/>
<path opacity="0.5" d="M138 48.4615H132V54.5192H138V48.4615Z" fill="#FF999A"/>
<path opacity="0.5" d="M138 72.6923H132V78.75H138V72.6923Z" fill="#FF999A"/>
<path opacity="0.3" d="M144 175.673H138V181.731H144V175.673Z" fill="#060035"/>
<path opacity="0.3" d="M144 187.788H138V290.769H144V187.788Z" fill="#060035"/>
<path d="M66 12.1154H60V18.1731H66V12.1154Z" fill="#FF999A"/>
<path d="M60 18.1731H54V24.2308H60V18.1731Z" fill="#FF999A"/>
<path d="M54 24.2308H48V30.2885H54V24.2308Z" fill="#FF999A"/>
<path d="M78 0H72V6.05769H78V0Z" fill="#FF999A"/>
<path d="M156 296.827H120V315H156V296.827Z" fill="#AB1D8C"/>
<path d="M150 284.712H126V296.827H150V284.712Z" fill="#AB1D8C"/>
<path opacity="0.1" d="M156 296.827H120V302.885H156V296.827Z" fill="#060035"/>
<path opacity="0.2" d="M150 284.712H144V296.827H150V284.712Z" fill="#060035"/>
<path opacity="0.2" d="M156 296.827H150V315H156V296.827Z" fill="#060035"/>
<path opacity="0.2" d="M150 284.712H126V290.769H150V284.712Z" fill="#060035"/>
<path opacity="0.2" d="M126 296.827H120V315H126V296.827Z" fill="#FF999A"/>
<path opacity="0.2" d="M132 284.712H126V296.827H132V284.712Z" fill="#FF999A"/>
<g opacity="0.8">
<path d="M102 102.981H96V109.038H102V102.981Z" fill="#FFE700"/>
<path d="M90 109.038H84V102.981H78V109.038H72V102.981H66V109.038H60V102.981H54V109.038H48V102.981H42V109.038H36V102.981H30V109.038H24V102.981H18V90.8654H24V78.75H30V66.6346H36V54.5192H42V42.4038H72V54.5192H78V66.6346H84V78.75H90V90.8654H96V102.981H90V109.038Z" fill="#FFE700"/>
<path d="M18 102.981H12V109.038H18V102.981Z" fill="#FFE700"/>
<path d="M108 115.096H102V121.154H108V115.096Z" fill="#FFE700"/>
<path d="M96 115.096H90V121.154H96V115.096Z" fill="#FFE700"/>
<path d="M84 115.096H78V121.154H84V115.096Z" fill="#FFE700"/>
<path d="M72 115.096H66V121.154H72V115.096Z" fill="#FFE700"/>
<path d="M60 115.096H54V121.154H60V115.096Z" fill="#FFE700"/>
<path d="M48 115.096H42V121.154H48V115.096Z" fill="#FFE700"/>
<path d="M36 115.096H30V121.154H36V115.096Z" fill="#FFE700"/>
<path d="M24 115.096H18V121.154H24V115.096Z" fill="#FFE700"/>
<path d="M12 115.096H6V121.154H12V115.096Z" fill="#FFE700"/>
<path d="M114 127.212H108V133.269H114V127.212Z" fill="#FFE700"/>
<path d="M102 127.212H96V133.269H102V127.212Z" fill="#FFE700"/>
<path d="M90 127.212H84V133.269H90V127.212Z" fill="#FFE700"/>
<path d="M78 127.212H72V133.269H78V127.212Z" fill="#FFE700"/>
<path d="M66 127.212H60V133.269H66V127.212Z" fill="#FFE700"/>
<path d="M54 127.212H48V133.269H54V127.212Z" fill="#FFE700"/>
<path d="M42 127.212H36V133.269H42V127.212Z" fill="#FFE700"/>
<path d="M30 127.212H24V133.269H30V127.212Z" fill="#FFE700"/>
<path d="M18 127.212H12V133.269H18V127.212Z" fill="#FFE700"/>
<path d="M6 127.212H4.76837e-07V133.269H6V127.212Z" fill="#FFE700"/>
</g>
</g>
<defs>
<clipPath id="clip0_73_8311">
<rect width="156" height="315" fill="white" transform="matrix(-1 0 0 1 156 0)"/>
</clipPath>
</defs>
</svg>
