<svg width="316" height="316" viewBox="0 0 316 316" fill="none" xmlns="http://www.w3.org/2000/svg">
<g clip-path="url(#clip0_40_172)">
<path d="M298.444 158H289.667H280.889H272.111H263.333H254.556H245.778H237H228.222H219.444H210.667H201.889H193.111H184.333H175.556H166.778H158H149.222H140.444H131.667H122.889H114.111H105.333H96.5555H87.7778H79H70.2222H61.4444H52.6667H43.8889H35.1111H26.3333H17.5556H8.77778H0V175.556H316V166.778V158H307.222H298.444Z" fill="#FF7F07"/>
<path d="M298.444 184.333H289.667H280.889H272.111H263.333H254.556H245.778H237H228.222H219.444H210.667H201.889H193.111H184.333H175.556H166.778H158H149.222H140.444H131.667H122.889H114.111H105.333H96.5555H87.7778H79H70.2222H61.4444H52.6667H43.8889H35.1111H26.3333H17.5556H8.77778H0V193.111V201.889H8.77778H17.5556H26.3333H35.1111H43.8889H52.6667H61.4444H70.2222H79H87.7778H96.5555H105.333H114.111H122.889H131.667H140.444H149.222H158H166.778H175.556H184.333H193.111H201.889H210.667H219.444H228.222H237H245.778H254.556H263.333H272.111H280.889H289.667H298.444H307.222H316V193.111V184.333H307.222H298.444Z" fill="#FF7F07"/>
<path d="M272.111 245.778H263.333H254.556H245.778H237H228.222H219.444H210.667H201.889H193.111H184.333H175.556H166.778H158H149.222H140.444H131.667H122.889H114.111H105.333H96.5555H87.7778H79H70.2222H61.4444H52.6666H43.8889H35.1111H26.3333V254.556H35.1111V263.333H43.8889H52.6666H61.4444H70.2222H79H87.7778H96.5555H105.333H114.111H122.889H131.667H140.444H149.222H158H166.778H175.556H184.333H193.111H201.889H210.667H219.444H228.222H237H245.778H254.556H263.333H272.111H280.889V254.556H289.667V245.778H280.889H272.111Z" fill="#FF7F07"/>
<path d="M237 280.889H228.222H219.444H210.667H201.889H193.111H184.333H175.556H166.778H158H149.222H140.444H131.667H122.889H114.111H105.333H96.5556H87.7778H79H70.2222H61.4445V289.667H70.2222V298.444H87.7778H228.222H245.778V289.667H254.556V280.889H245.778H237Z" fill="#FF7F07"/>
<path d="M114.111 307.222H201.889V316H114.111V307.222Z" fill="#FF7F07"/>
<path d="M307.222 114.111V105.333V96.5556V87.7778H298.444V70.2222H289.667V61.4444H280.889V52.6667H272.111V43.8889H263.333V35.1111H254.556V26.3333H245.778V17.5556H228.222V8.77778H201.889V0H114.111V8.77778H105.333H87.7778V17.5556H79H70.2222V26.3333H61.4444V35.1111H52.6667V43.8889H43.8889V52.6667H35.1111V61.4444H26.3333V70.2222H17.5556V87.7778H8.77778V96.5556V114.111H0V122.889V131.667V140.444V149.222H8.77778H17.5556H26.3333H35.1111H43.8889H52.6667H61.4444H70.2222H79H87.7778H96.5555H105.333H114.111H122.889H131.667H140.444H149.222H158H166.778H175.556H184.333H193.111H201.889H210.667H219.444H228.222H237H245.778H254.556H263.333H272.111H280.889H289.667H298.444H307.222H316V140.444V131.667V114.111H307.222Z" fill="#FF7F07"/>
<path d="M289.667 210.667H280.889H272.111H263.333H254.556H245.778H237H228.222H219.444H210.667H201.889H193.111H184.333H175.556H166.778H158H149.222H140.444H131.667H122.889H114.111H105.333H96.5555H87.7778H79H70.2222H61.4444H52.6667H43.8889H35.1111H26.3333H17.5555H8.77777V219.444H17.5555V228.222H298.444V219.444H307.222V210.667H298.444H289.667Z" fill="#FF7F07"/>
<path d="M307.222 114.111V87.7778H298.444V70.2222H289.667V61.4444H280.889V52.6667H272.111V43.8889H263.333V35.1111H254.556V26.3333H245.778V17.5556H228.222V8.77778H201.889V0H114.111V8.77778H105.333H87.7778V17.5556H79H70.2222V26.3333H61.4444V35.1111H52.6667V43.8889H43.8889V52.6667H35.1111V61.4444H26.3333V70.2222H17.5556V87.7778H8.77778V114.111H0V149.222H316V114.111H307.222Z" fill="#FFD100"/>
<path d="M17.5555 210.667V219.444H8.77776V210.667H17.5555Z" fill="#FF0070"/>
<path d="M26.3333 245.778H35.1111V254.556H26.3333V245.778Z" fill="#FF0070"/>
<path d="M35.1111 254.556H43.8889V263.333H35.1111V254.556Z" fill="#FF0070"/>
<path d="M307.222 210.667V219.444H298.444V210.667H307.222Z" fill="#FF0070"/>
<path d="M289.667 254.556H280.889V245.778H289.667V254.556Z" fill="#FF0070"/>
<path d="M280.889 263.333H272.111V254.556H280.889V263.333Z" fill="#FF0070"/>
<path d="M0 158H316V175.556H0V158Z" fill="#FF7F07"/>
<path d="M0 184.333H316V201.889H0V184.333Z" fill="#FF7F07"/>
<path d="M17.5555 210.667H307.222V219.444H17.5555V210.667Z" fill="#FF0070"/>
<path d="M17.5555 219.444H298.444V228.222H17.5555V219.444Z" fill="#FF0070"/>
<path d="M35.1111 245.778H280.889V263.333H35.1111V245.778Z" fill="#FF0070"/>
<path d="M245.778 280.889H70.2222H61.4445V289.667H70.2222V298.444H87.7778H228.222H245.778V289.667H254.556V280.889H245.778Z" fill="#F20040"/>
<path d="M114.111 307.222H201.889V316H114.111V307.222Z" fill="#F20040"/>
<path d="M0 140.444H8.77778V149.222H0V140.444Z" fill="#FF7F07"/>
<path d="M8.77777 131.667H17.5555V140.444H8.77777V131.667Z" fill="#FF7F07"/>
<path opacity="0.5" d="M0 122.889H8.77778V131.667H0V122.889Z" fill="#FF7F07"/>
<path opacity="0.5" d="M17.5555 122.889H26.3333V131.667H17.5555V122.889Z" fill="#FF7F07"/>
<path opacity="0.5" d="M35.1111 122.889H43.8889V131.667H35.1111V122.889Z" fill="#FF7F07"/>
<path opacity="0.5" d="M52.6667 122.889H61.4445V131.667H52.6667V122.889Z" fill="#FF7F07"/>
<path opacity="0.5" d="M70.2222 122.889H79V131.667H70.2222V122.889Z" fill="#FF7F07"/>
<path opacity="0.5" d="M87.7778 122.889H96.5555V131.667H87.7778V122.889Z" fill="#FF7F07"/>
<path opacity="0.5" d="M105.333 122.889H114.111V131.667H105.333V122.889Z" fill="#FF7F07"/>
<path opacity="0.5" d="M122.889 122.889H131.667V131.667H122.889V122.889Z" fill="#FF7F07"/>
<path opacity="0.5" d="M140.444 122.889H149.222V131.667H140.444V122.889Z" fill="#FF7F07"/>
<path opacity="0.5" d="M158 122.889H166.778V131.667H158V122.889Z" fill="#FF7F07"/>
<path opacity="0.5" d="M175.556 122.889H184.333V131.667H175.556V122.889Z" fill="#FF7F07"/>
<path opacity="0.5" d="M193.111 122.889H201.889V131.667H193.111V122.889Z" fill="#FF7F07"/>
<path opacity="0.5" d="M210.667 122.889H219.444V131.667H210.667V122.889Z" fill="#FF7F07"/>
<path opacity="0.5" d="M228.222 122.889H237V131.667H228.222V122.889Z" fill="#FF7F07"/>
<path opacity="0.5" d="M245.778 122.889H254.556V131.667H245.778V122.889Z" fill="#FF7F07"/>
<path opacity="0.5" d="M263.333 122.889H272.111V131.667H263.333V122.889Z" fill="#FF7F07"/>
<path opacity="0.5" d="M280.889 122.889H289.667V131.667H280.889V122.889Z" fill="#FF7F07"/>
<path opacity="0.5" d="M298.444 122.889H307.222V131.667H298.444V122.889Z" fill="#FF7F07"/>
<path opacity="0.5" d="M17.5555 105.333H26.3333V114.111H17.5555V105.333Z" fill="#FF7F07"/>
<path opacity="0.5" d="M35.1111 105.333H43.8889V114.111H35.1111V105.333Z" fill="#FF7F07"/>
<path opacity="0.5" d="M52.6667 105.333H61.4445V114.111H52.6667V105.333Z" fill="#FF7F07"/>
<path opacity="0.5" d="M70.2222 105.333H79V114.111H70.2222V105.333Z" fill="#FF7F07"/>
<path opacity="0.5" d="M87.7778 105.333H96.5555V114.111H87.7778V105.333Z" fill="#FF7F07"/>
<path opacity="0.5" d="M105.333 105.333H114.111V114.111H105.333V105.333Z" fill="#FF7F07"/>
<path opacity="0.5" d="M122.889 105.333H131.667V114.111H122.889V105.333Z" fill="#FF7F07"/>
<path opacity="0.5" d="M140.444 105.333H149.222V114.111H140.444V105.333Z" fill="#FF7F07"/>
<path opacity="0.5" d="M158 105.333H166.778V114.111H158V105.333Z" fill="#FF7F07"/>
<path opacity="0.5" d="M175.556 105.333H184.333V114.111H175.556V105.333Z" fill="#FF7F07"/>
<path opacity="0.5" d="M193.111 105.333H201.889V114.111H193.111V105.333Z" fill="#FF7F07"/>
<path opacity="0.5" d="M210.667 105.333H219.444V114.111H210.667V105.333Z" fill="#FF7F07"/>
<path opacity="0.5" d="M228.222 105.333H237V114.111H228.222V105.333Z" fill="#FF7F07"/>
<path opacity="0.5" d="M245.778 105.333H254.556V114.111H245.778V105.333Z" fill="#FF7F07"/>
<path opacity="0.5" d="M263.333 105.333H272.111V114.111H263.333V105.333Z" fill="#FF7F07"/>
<path opacity="0.5" d="M280.889 105.333H289.667V114.111H280.889V105.333Z" fill="#FF7F07"/>
<path opacity="0.5" d="M298.444 105.333H307.222V114.111H298.444V105.333Z" fill="#FF7F07"/>
<path opacity="0.25" d="M17.5555 87.7778H26.3333V96.5555H17.5555V87.7778Z" fill="#FF7F07"/>
<path opacity="0.25" d="M35.1111 87.7778H43.8889V96.5555H35.1111V87.7778Z" fill="#FF7F07"/>
<path opacity="0.25" d="M52.6667 87.7778H61.4445V96.5555H52.6667V87.7778Z" fill="#FF7F07"/>
<path opacity="0.25" d="M70.2222 87.7778H79V96.5555H70.2222V87.7778Z" fill="#FF7F07"/>
<path opacity="0.25" d="M87.7778 87.7778H96.5555V96.5555H87.7778V87.7778Z" fill="#FF7F07"/>
<path opacity="0.25" d="M105.333 87.7778H114.111V96.5555H105.333V87.7778Z" fill="#FF7F07"/>
<path opacity="0.25" d="M122.889 87.7778H131.667V96.5555H122.889V87.7778Z" fill="#FF7F07"/>
<path opacity="0.25" d="M140.444 87.7778H149.222V96.5555H140.444V87.7778Z" fill="#FF7F07"/>
<path opacity="0.25" d="M158 87.7778H166.778V96.5555H158V87.7778Z" fill="#FF7F07"/>
<path opacity="0.25" d="M175.556 87.7778H184.333V96.5555H175.556V87.7778Z" fill="#FF7F07"/>
<path opacity="0.25" d="M193.111 87.7778H201.889V96.5555H193.111V87.7778Z" fill="#FF7F07"/>
<path opacity="0.25" d="M210.667 87.7778H219.444V96.5555H210.667V87.7778Z" fill="#FF7F07"/>
<path opacity="0.25" d="M228.222 87.7778H237V96.5555H228.222V87.7778Z" fill="#FF7F07"/>
<path opacity="0.25" d="M245.778 87.7778H254.556V96.5555H245.778V87.7778Z" fill="#FF7F07"/>
<path opacity="0.25" d="M263.333 87.7778H272.111V96.5555H263.333V87.7778Z" fill="#FF7F07"/>
<path opacity="0.25" d="M280.889 87.7778H289.667V96.5555H280.889V87.7778Z" fill="#FF7F07"/>
<path opacity="0.25" d="M298.444 87.7778H307.222V96.5555H298.444V87.7778Z" fill="#FF7F07"/>
<path d="M26.3333 131.667H35.1111V140.444H26.3333V131.667Z" fill="#FF7F07"/>
<path d="M43.8889 131.667H52.6667V140.444H43.8889V131.667Z" fill="#FF7F07"/>
<path d="M61.4445 131.667H70.2222V140.444H61.4445V131.667Z" fill="#FF7F07"/>
<path d="M79 131.667H87.7778V140.444H79V131.667Z" fill="#FF7F07"/>
<path d="M96.5555 131.667H105.333V140.444H96.5555V131.667Z" fill="#FF7F07"/>
<path d="M114.111 131.667H122.889V140.444H114.111V131.667Z" fill="#FF7F07"/>
<path d="M131.667 131.667H140.444V140.444H131.667V131.667Z" fill="#FF7F07"/>
<path d="M149.222 131.667H158V140.444H149.222V131.667Z" fill="#FF7F07"/>
<path d="M166.778 131.667H175.556V140.444H166.778V131.667Z" fill="#FF7F07"/>
<path d="M184.333 131.667H193.111V140.444H184.333V131.667Z" fill="#FF7F07"/>
<path d="M201.889 131.667H210.667V140.444H201.889V131.667Z" fill="#FF7F07"/>
<path d="M219.444 131.667H228.222V140.444H219.444V131.667Z" fill="#FF7F07"/>
<path d="M237 131.667H245.778V140.444H237V131.667Z" fill="#FF7F07"/>
<path d="M254.556 131.667H263.333V140.444H254.556V131.667Z" fill="#FF7F07"/>
<path d="M272.111 131.667H280.889V140.444H272.111V131.667Z" fill="#FF7F07"/>
<path d="M289.667 131.667H298.444V140.444H289.667V131.667Z" fill="#FF7F07"/>
<path d="M307.222 131.667H316V140.444H307.222V131.667Z" fill="#FF7F07"/>
<path d="M17.5555 140.444H26.3333V149.222H17.5555V140.444Z" fill="#FF7F07"/>
<path d="M35.1111 140.444H43.8889V149.222H35.1111V140.444Z" fill="#FF7F07"/>
<path d="M52.6667 140.444H61.4445V149.222H52.6667V140.444Z" fill="#FF7F07"/>
<path d="M70.2222 140.444H79V149.222H70.2222V140.444Z" fill="#FF7F07"/>
<path d="M87.7778 140.444H96.5555V149.222H87.7778V140.444Z" fill="#FF7F07"/>
<path d="M105.333 140.444H114.111V149.222H105.333V140.444Z" fill="#FF7F07"/>
<path d="M122.889 140.444H131.667V149.222H122.889V140.444Z" fill="#FF7F07"/>
<path d="M140.444 140.444H149.222V149.222H140.444V140.444Z" fill="#FF7F07"/>
<path d="M158 140.444H166.778V149.222H158V140.444Z" fill="#FF7F07"/>
<path d="M175.556 140.444H184.333V149.222H175.556V140.444Z" fill="#FF7F07"/>
<path d="M193.111 140.444H201.889V149.222H193.111V140.444Z" fill="#FF7F07"/>
<path d="M210.667 140.444H219.444V149.222H210.667V140.444Z" fill="#FF7F07"/>
<path d="M228.222 140.444H237V149.222H228.222V140.444Z" fill="#FF7F07"/>
<path d="M245.778 140.444H254.556V149.222H245.778V140.444Z" fill="#FF7F07"/>
<path d="M263.333 140.444H272.111V149.222H263.333V140.444Z" fill="#FF7F07"/>
<path d="M280.889 140.444H289.667V149.222H280.889V140.444Z" fill="#FF7F07"/>
<path d="M298.444 140.444H307.222V149.222H298.444V140.444Z" fill="#FF7F07"/>
<path opacity="0.5" d="M0 131.667H316V149.222H0V131.667Z" fill="#FF7F07"/>
<path opacity="0.2" d="M0 114.111H316V131.667H0V114.111Z" fill="#FF7F07"/>
<path opacity="0.1" d="M8.77777 96.5555H307.222V114.111H8.77777V96.5555Z" fill="#FF7F07"/>
<path d="M0 193.111H8.77778V201.889H0V193.111Z" fill="#FF0070"/>
<path d="M8.77777 184.333H17.5555V193.111H8.77777V184.333Z" fill="#FF0070"/>
<path d="M26.3333 184.333H35.1111V193.111H26.3333V184.333Z" fill="#FF0070"/>
<path d="M43.8889 184.333H52.6667V193.111H43.8889V184.333Z" fill="#FF0070"/>
<path d="M61.4445 184.333H70.2222V193.111H61.4445V184.333Z" fill="#FF0070"/>
<path d="M79 184.333H87.7778V193.111H79V184.333Z" fill="#FF0070"/>
<path d="M96.5555 184.333H105.333V193.111H96.5555V184.333Z" fill="#FF0070"/>
<path d="M114.111 184.333H122.889V193.111H114.111V184.333Z" fill="#FF0070"/>
<path d="M131.667 184.333H140.444V193.111H131.667V184.333Z" fill="#FF0070"/>
<path d="M149.222 184.333H158V193.111H149.222V184.333Z" fill="#FF0070"/>
<path d="M166.778 184.333H175.556V193.111H166.778V184.333Z" fill="#FF0070"/>
<path d="M184.333 184.333H193.111V193.111H184.333V184.333Z" fill="#FF0070"/>
<path d="M201.889 184.333H210.667V193.111H201.889V184.333Z" fill="#FF0070"/>
<path d="M219.444 184.333H228.222V193.111H219.444V184.333Z" fill="#FF0070"/>
<path d="M237 184.333H245.778V193.111H237V184.333Z" fill="#FF0070"/>
<path d="M254.556 184.333H263.333V193.111H254.556V184.333Z" fill="#FF0070"/>
<path d="M272.111 184.333H280.889V193.111H272.111V184.333Z" fill="#FF0070"/>
<path d="M289.667 184.333H298.444V193.111H289.667V184.333Z" fill="#FF0070"/>
<path d="M307.222 184.333H316V193.111H307.222V184.333Z" fill="#FF0070"/>
<path d="M17.5555 193.111H26.3333V201.889H17.5555V193.111Z" fill="#FF0070"/>
<path d="M35.1111 193.111H43.8889V201.889H35.1111V193.111Z" fill="#FF0070"/>
<path d="M52.6667 193.111H61.4445V201.889H52.6667V193.111Z" fill="#FF0070"/>
<path d="M70.2222 193.111H79V201.889H70.2222V193.111Z" fill="#FF0070"/>
<path d="M87.7778 193.111H96.5555V201.889H87.7778V193.111Z" fill="#FF0070"/>
<path d="M105.333 193.111H114.111V201.889H105.333V193.111Z" fill="#FF0070"/>
<path d="M122.889 193.111H131.667V201.889H122.889V193.111Z" fill="#FF0070"/>
<path d="M140.444 193.111H149.222V201.889H140.444V193.111Z" fill="#FF0070"/>
<path d="M158 193.111H166.778V201.889H158V193.111Z" fill="#FF0070"/>
<path d="M175.556 193.111H184.333V201.889H175.556V193.111Z" fill="#FF0070"/>
<path d="M193.111 193.111H201.889V201.889H193.111V193.111Z" fill="#FF0070"/>
<path d="M210.667 193.111H219.444V201.889H210.667V193.111Z" fill="#FF0070"/>
<path d="M228.222 193.111H237V201.889H228.222V193.111Z" fill="#FF0070"/>
<path d="M245.778 193.111H254.556V201.889H245.778V193.111Z" fill="#FF0070"/>
<path d="M263.333 193.111H272.111V201.889H263.333V193.111Z" fill="#FF0070"/>
<path d="M280.889 193.111H289.667V201.889H280.889V193.111Z" fill="#FF0070"/>
<path d="M298.444 193.111H307.222V201.889H298.444V193.111Z" fill="#FF0070"/>
<path d="M43.8889 254.556H52.6667V263.333H43.8889V254.556Z" fill="#F20040"/>
<path d="M52.6667 245.778H61.4445V254.556H52.6667V245.778Z" fill="#F20040"/>
<path d="M70.2222 245.778H79V254.556H70.2222V245.778Z" fill="#F20040"/>
<path d="M87.7778 245.778H96.5555V254.556H87.7778V245.778Z" fill="#F20040"/>
<path d="M105.333 245.778H114.111V254.556H105.333V245.778Z" fill="#F20040"/>
<path d="M122.889 245.778H131.667V254.556H122.889V245.778Z" fill="#F20040"/>
<path d="M140.444 245.778H149.222V254.556H140.444V245.778Z" fill="#F20040"/>
<path d="M158 245.778H166.778V254.556H158V245.778Z" fill="#F20040"/>
<path d="M175.556 245.778H184.333V254.556H175.556V245.778Z" fill="#F20040"/>
<path d="M193.111 245.778H201.889V254.556H193.111V245.778Z" fill="#F20040"/>
<path d="M210.667 245.778H219.444V254.556H210.667V245.778Z" fill="#F20040"/>
<path d="M228.222 245.778H237V254.556H228.222V245.778Z" fill="#F20040"/>
<path d="M245.778 245.778H254.556V254.556H245.778V245.778Z" fill="#F20040"/>
<path d="M263.333 245.778H272.111V254.556H263.333V245.778Z" fill="#F20040"/>
<path d="M280.889 245.778H289.667V254.556H280.889V245.778Z" fill="#F20040"/>
<path d="M35.1111 245.778H43.8889V254.556H35.1111V245.778Z" fill="#F20040"/>
<path d="M61.4445 254.556H70.2222V263.333H61.4445V254.556Z" fill="#F20040"/>
<path d="M79 254.556H87.7778V263.333H79V254.556Z" fill="#F20040"/>
<path d="M96.5555 254.556H105.333V263.333H96.5555V254.556Z" fill="#F20040"/>
<path d="M114.111 254.556H122.889V263.333H114.111V254.556Z" fill="#F20040"/>
<path d="M131.667 254.556H140.444V263.333H131.667V254.556Z" fill="#F20040"/>
<path d="M149.222 254.556H158V263.333H149.222V254.556Z" fill="#F20040"/>
<path d="M166.778 254.556H175.556V263.333H166.778V254.556Z" fill="#F20040"/>
<path d="M184.333 254.556H193.111V263.333H184.333V254.556Z" fill="#F20040"/>
<path d="M201.889 254.556H210.667V263.333H201.889V254.556Z" fill="#F20040"/>
<path d="M219.444 254.556H228.222V263.333H219.444V254.556Z" fill="#F20040"/>
<path d="M237 254.556H245.778V263.333H237V254.556Z" fill="#F20040"/>
<path d="M254.556 254.556H263.333V263.333H254.556V254.556Z" fill="#F20040"/>
<path d="M272.111 254.556H280.889V263.333H272.111V254.556Z" fill="#F20040"/>
<path d="M8.77777 210.667H17.5555V219.444H8.77777V210.667Z" fill="#FF7F07"/>
<path d="M26.3333 210.667H35.1111V219.444H26.3333V210.667Z" fill="#FF7F07"/>
<path d="M43.8889 210.667H52.6667V219.444H43.8889V210.667Z" fill="#FF7F07"/>
<path d="M61.4445 210.667H70.2222V219.444H61.4445V210.667Z" fill="#FF7F07"/>
<path d="M79 210.667H87.7778V219.444H79V210.667Z" fill="#FF7F07"/>
<path d="M96.5555 210.667H105.333V219.444H96.5555V210.667Z" fill="#FF7F07"/>
<path d="M114.111 210.667H122.889V219.444H114.111V210.667Z" fill="#FF7F07"/>
<path d="M131.667 210.667H140.444V219.444H131.667V210.667Z" fill="#FF7F07"/>
<path d="M149.222 210.667H158V219.444H149.222V210.667Z" fill="#FF7F07"/>
<path d="M166.778 210.667H175.556V219.444H166.778V210.667Z" fill="#FF7F07"/>
<path d="M184.333 210.667H193.111V219.444H184.333V210.667Z" fill="#FF7F07"/>
<path d="M201.889 210.667H210.667V219.444H201.889V210.667Z" fill="#FF7F07"/>
<path d="M219.444 210.667H228.222V219.444H219.444V210.667Z" fill="#FF7F07"/>
<path d="M237 210.667H245.778V219.444H237V210.667Z" fill="#FF7F07"/>
<path d="M254.556 210.667H263.333V219.444H254.556V210.667Z" fill="#FF7F07"/>
<path d="M272.111 210.667H280.889V219.444H272.111V210.667Z" fill="#FF7F07"/>
<path d="M289.667 210.667H298.444V219.444H289.667V210.667Z" fill="#FF7F07"/>
<path d="M70.2222 280.889H79V289.667H70.2222V280.889Z" fill="#FF0070"/>
<path d="M87.7778 280.889H96.5555V289.667H87.7778V280.889Z" fill="#FF0070"/>
<path d="M105.333 280.889H114.111V289.667H105.333V280.889Z" fill="#FF0070"/>
<path d="M122.889 280.889H131.667V289.667H122.889V280.889Z" fill="#FF0070"/>
<path d="M140.444 280.889H149.222V289.667H140.444V280.889Z" fill="#FF0070"/>
<path d="M158 280.889H166.778V289.667H158V280.889Z" fill="#FF0070"/>
<path d="M175.556 280.889H184.333V289.667H175.556V280.889Z" fill="#FF0070"/>
<path d="M193.111 280.889H201.889V289.667H193.111V280.889Z" fill="#FF0070"/>
<path d="M210.667 280.889H219.444V289.667H210.667V280.889Z" fill="#FF0070"/>
<path d="M228.222 280.889H237V289.667H228.222V280.889Z" fill="#FF0070"/>
<path d="M245.778 280.889H254.556V289.667H245.778V280.889Z" fill="#FF0070"/>
<path d="M8.77777 158H17.5555V166.778H8.77777V158Z" fill="#FFD100"/>
<path d="M26.3333 158H35.1111V166.778H26.3333V158Z" fill="#FFD100"/>
<path d="M43.8889 158H52.6667V166.778H43.8889V158Z" fill="#FFD100"/>
<path d="M61.4445 158H70.2222V166.778H61.4445V158Z" fill="#FFD100"/>
<path d="M79 158H87.7778V166.778H79V158Z" fill="#FFD100"/>
<path d="M96.5555 158H105.333V166.778H96.5555V158Z" fill="#FFD100"/>
<path d="M114.111 158H122.889V166.778H114.111V158Z" fill="#FFD100"/>
<path d="M131.667 158H140.444V166.778H131.667V158Z" fill="#FFD100"/>
<path d="M149.222 158H158V166.778H149.222V158Z" fill="#FFD100"/>
<path d="M166.778 158H175.556V166.778H166.778V158Z" fill="#FFD100"/>
<path d="M184.333 158H193.111V166.778H184.333V158Z" fill="#FFD100"/>
<path d="M201.889 158H210.667V166.778H201.889V158Z" fill="#FFD100"/>
<path d="M219.444 158H228.222V166.778H219.444V158Z" fill="#FFD100"/>
<path d="M237 158H245.778V166.778H237V158Z" fill="#FFD100"/>
<path d="M254.556 158H263.333V166.778H254.556V158Z" fill="#FFD100"/>
<path d="M272.111 158H280.889V166.778H272.111V158Z" fill="#FFD100"/>
<path d="M289.667 158H298.444V166.778H289.667V158Z" fill="#FFD100"/>
<path d="M307.222 158H316V166.778H307.222V158Z" fill="#FFD100"/>
</g>
<defs>
<clipPath id="clip0_40_172">
<rect width="316" height="316" fill="white"/>
</clipPath>
</defs>
</svg>
