<svg width="61" height="74" viewBox="0 0 61 74" fill="none" xmlns="http://www.w3.org/2000/svg">
<rect x="31.0546" width="2.21818" height="2.21818" fill="#FFB366"/>
<rect x="28.8363" y="2.21814" width="2.21818" height="2.21818" fill="#FFD1A2"/>
<rect x="31.0546" y="2.21814" width="2.21818" height="2.21818" fill="#FAB876"/>
<rect x="28.8363" y="3.32727" width="2.21818" height="2.21818" fill="#FBA152"/>
<rect x="31.0546" y="3.32727" width="2.21818" height="2.21818" fill="#F9B46B"/>
<rect x="28.8363" y="5.5455" width="2.21818" height="2.21818" fill="#FDA54E"/>
<rect x="31.0546" y="5.5455" width="2.21818" height="2.21818" fill="#FEAC58"/>
<rect x="28.8363" y="6.65451" width="2.21818" height="2.21818" fill="#FEB55E"/>
<rect x="31.0546" y="6.65451" width="2.21818" height="2.21818" fill="#FFBA61"/>
<rect x="28.8363" y="8.87274" width="2.21818" height="2.21818" fill="#FEBD64"/>
<rect x="31.0546" y="8.87274" width="2.21818" height="2.21818" fill="#FFBF6B"/>
<rect x="28.8363" y="9.98187" width="2.21818" height="2.21818" fill="#FEC569"/>
<rect x="31.0546" y="9.98187" width="2.21818" height="2.21818" fill="#FFC369"/>
<rect x="28.8363" y="12.2" width="2.21818" height="2.21818" fill="#FFCC69"/>
<rect x="31.0546" y="12.2" width="2.21818" height="2.21818" fill="#FFC754"/>
<rect x="28.8363" y="13.3091" width="2.21818" height="2.21818" fill="#FFD05D"/>
<rect x="31.0546" y="13.3091" width="2.21818" height="2.21818" fill="#FFC543"/>
<rect x="32.1637" y="13.3091" width="2.21818" height="2.21818" fill="#F49B4E"/>
<rect x="26.6182" y="15.5273" width="2.21818" height="2.21818" fill="#F99A3B"/>
<rect x="28.8363" y="15.5273" width="2.21818" height="2.21818" fill="#FFD058"/>
<rect x="31.0546" y="15.5273" width="2.21818" height="2.21818" fill="#FFC737"/>
<rect x="32.1637" y="15.5273" width="2.21818" height="2.21818" fill="#F69B3D"/>
<rect x="26.6182" y="16.6364" width="2.21818" height="2.21818" fill="#FA9E38"/>
<rect x="28.8363" y="16.6364" width="2.21818" height="2.21818" fill="#FFD653"/>
<rect x="31.0546" y="16.6364" width="2.21818" height="2.21818" fill="#FFCB36"/>
<rect x="32.1637" y="16.6364" width="2.21818" height="2.21818" fill="#FAA944"/>
<rect x="26.6182" y="18.8546" width="2.21818" height="2.21818" fill="#FCAE44"/>
<rect x="28.8363" y="18.8546" width="2.21818" height="2.21818" fill="#FFEB6D"/>
<rect x="31.0546" y="18.8546" width="2.21818" height="2.21818" fill="#FFD646"/>
<rect x="32.1637" y="18.8546" width="2.21818" height="2.21818" fill="#FDBE5C"/>
<rect x="26.6182" y="19.9636" width="2.21818" height="2.21818" fill="#FDB94C"/>
<rect x="28.8363" y="19.9636" width="2.21818" height="2.21818" fill="#FFEE6A"/>
<rect x="31.0546" y="19.9636" width="2.21818" height="2.21818" fill="#FFE253"/>
<rect x="32.1637" y="19.9636" width="2.21818" height="2.21818" fill="#FED277"/>
<rect x="26.6182" y="22.1818" width="2.21818" height="2.21818" fill="#FFD376"/>
<rect x="28.8363" y="22.1818" width="2.21818" height="2.21818" fill="#FFE044"/>
<rect x="31.0546" y="22.1818" width="2.21818" height="2.21818" fill="#FFDD3C"/>
<rect x="32.1637" y="22.1818" width="2.21818" height="2.21818" fill="#FFE394"/>
<rect x="25.5091" y="23.291" width="2.21818" height="2.21818" fill="#FFB137"/>
<rect x="26.6182" y="23.291" width="2.21818" height="2.21818" fill="#FFE993"/>
<rect x="28.8363" y="23.291" width="2.21818" height="2.21818" fill="#FFE03F"/>
<rect x="31.0546" y="23.291" width="2.21818" height="2.21818" fill="#FFDF3A"/>
<rect x="32.1637" y="23.291" width="2.21818" height="2.21818" fill="#FFEBA3"/>
<rect x="34.3818" y="23.291" width="2.21818" height="2.21818" fill="#F9A939"/>
<rect x="25.5091" y="25.5091" width="2.21818" height="2.21818" fill="#FEB63A"/>
<rect x="26.6182" y="25.5091" width="2.21818" height="2.21818" fill="#FFEA7A"/>
<rect x="28.8363" y="25.5091" width="2.21818" height="2.21818" fill="#FFE23D"/>
<rect x="31.0546" y="25.5091" width="2.21818" height="2.21818" fill="#FFE33D"/>
<rect x="32.1637" y="25.5091" width="2.21818" height="2.21818" fill="#FFEB7E"/>
<rect x="34.3818" y="25.5091" width="2.21818" height="2.21818" fill="#FFCC6F"/>
<rect x="23.291" y="26.6182" width="2.21818" height="2.21818" fill="#FCB851"/>
<rect x="25.5091" y="26.6182" width="2.21818" height="2.21818" fill="#FFE79F"/>
<rect x="26.6182" y="26.6182" width="2.21818" height="2.21818" fill="#FFE64F"/>
<rect x="28.8363" y="26.6182" width="2.21818" height="2.21818" fill="#FFE43E"/>
<rect x="31.0546" y="26.6182" width="2.21818" height="2.21818" fill="#FFE33D"/>
<rect x="32.1637" y="26.6182" width="2.21818" height="2.21818" fill="#FFDC38"/>
<rect x="34.3818" y="26.6182" width="2.21818" height="2.21818" fill="#FFEDA8"/>
<rect x="35.491" y="26.6182" width="2.21818" height="2.21818" fill="#FEAD2C"/>
<rect x="19.9636" y="28.8363" width="2.21818" height="2.21818" fill="#FFB34D"/>
<rect x="22.1818" y="28.8363" width="2.21818" height="2.21818" fill="#FEAC30"/>
<rect x="23.291" y="28.8363" width="2.21818" height="2.21818" fill="#FFDD7D"/>
<rect x="25.5091" y="28.8363" width="2.21818" height="2.21818" fill="#FFEC76"/>
<rect x="26.6182" y="28.8363" width="2.21818" height="2.21818" fill="#FFE33E"/>
<rect x="28.8363" y="28.8363" width="2.21818" height="2.21818" fill="#FFE33D"/>
<rect x="31.0546" y="28.8363" width="2.21818" height="2.21818" fill="#FFE23C"/>
<rect x="32.1637" y="28.8363" width="2.21818" height="2.21818" fill="#FFE23D"/>
<rect x="34.3818" y="28.8363" width="2.21818" height="2.21818" fill="#FFDA39"/>
<rect x="35.491" y="28.8363" width="2.21818" height="2.21818" fill="#FFE56A"/>
<rect x="37.7091" y="28.8363" width="2.21818" height="2.21818" fill="#FFA624"/>
<rect x="38.8181" y="28.8363" width="2.21818" height="2.21818" fill="#FFAA40"/>
<rect x="15.5272" y="31.0546" width="2.21818" height="2.21818" fill="#FF9730"/>
<rect x="16.6364" y="31.0546" width="2.21818" height="2.21818" fill="#FFB54D"/>
<rect x="18.8546" y="31.0546" width="2.21818" height="2.21818" fill="#FFAF39"/>
<rect x="19.9636" y="31.0546" width="2.21818" height="2.21818" fill="#FFC74C"/>
<rect x="22.1818" y="31.0546" width="2.21818" height="2.21818" fill="#FFEA70"/>
<rect x="23.291" y="31.0546" width="2.21818" height="2.21818" fill="#FFE446"/>
<rect x="25.5091" y="31.0546" width="2.21818" height="2.21818" fill="#FFE440"/>
<rect x="26.6182" y="31.0546" width="2.21818" height="2.21818" fill="#FFE43E"/>
<rect x="28.8363" y="31.0546" width="2.21818" height="2.21818" fill="#FFE23D"/>
<rect x="31.0546" y="31.0546" width="2.21818" height="2.21818" fill="#FFE03B"/>
<rect x="32.1637" y="31.0546" width="2.21818" height="2.21818" fill="#FFE13C"/>
<rect x="34.3818" y="31.0546" width="2.21818" height="2.21818" fill="#FFE23C"/>
<rect x="35.491" y="31.0546" width="2.21818" height="2.21818" fill="#FFDC3C"/>
<rect x="37.7091" y="31.0546" width="2.21818" height="2.21818" fill="#FFD23F"/>
<rect x="38.8181" y="31.0546" width="2.21818" height="2.21818" fill="#FFBB2F"/>
<rect x="41.0364" y="31.0546" width="2.21818" height="2.21818" fill="#FFA72E"/>
<rect x="42.1454" y="31.0546" width="2.21818" height="2.21818" fill="#FDA032"/>
<rect x="44.3636" y="31.0546" width="2.21818" height="2.21818" fill="#FFA142"/>
<rect x="45.4728" y="31.0546" width="2.21818" height="2.21818" fill="#FFBB66"/>
<rect x="2.21814" y="32.1637" width="2.21818" height="2.21818" fill="#FCBA7C"/>
<rect x="3.32727" y="32.1637" width="2.21818" height="2.21818" fill="#FBA760"/>
<rect x="5.54547" y="32.1637" width="2.21818" height="2.21818" fill="#FCAC68"/>
<rect x="6.65448" y="32.1637" width="2.21818" height="2.21818" fill="#FCA04D"/>
<rect x="8.87274" y="32.1637" width="2.21818" height="2.21818" fill="#FDA24E"/>
<rect x="9.98187" y="32.1637" width="2.21818" height="2.21818" fill="#FEAD58"/>
<rect x="12.2" y="32.1637" width="2.21818" height="2.21818" fill="#FFA749"/>
<rect x="13.3091" y="32.1637" width="2.21818" height="2.21818" fill="#FFAC39"/>
<rect x="15.5272" y="32.1637" width="2.21818" height="2.21818" fill="#FFB72D"/>
<rect x="16.6364" y="32.1637" width="2.21818" height="2.21818" fill="#FFE57A"/>
<rect x="18.8546" y="32.1637" width="2.21818" height="2.21818" fill="#FFE758"/>
<rect x="19.9636" y="32.1637" width="2.21818" height="2.21818" fill="#FFDF42"/>
<rect x="22.1818" y="32.1637" width="2.21818" height="2.21818" fill="#FFE340"/>
<rect x="23.291" y="32.1637" width="2.21818" height="2.21818" fill="#FFE53F"/>
<rect x="25.5091" y="32.1637" width="2.21818" height="2.21818" fill="#FFE33F"/>
<rect x="26.6182" y="32.1637" width="2.21818" height="2.21818" fill="#FFE13D"/>
<rect x="28.8363" y="32.1637" width="2.21818" height="2.21818" fill="#FEE03C"/>
<rect x="31.0546" y="32.1637" width="2.21818" height="2.21818" fill="#FDDF3B"/>
<rect x="32.1637" y="32.1637" width="2.21818" height="2.21818" fill="#FDE03B"/>
<rect x="34.3818" y="32.1637" width="2.21818" height="2.21818" fill="#FEE13B"/>
<rect x="35.491" y="32.1637" width="2.21818" height="2.21818" fill="#FFE23B"/>
<rect x="37.7091" y="32.1637" width="2.21818" height="2.21818" fill="#FFE13C"/>
<rect x="38.8181" y="32.1637" width="2.21818" height="2.21818" fill="#FFDB3C"/>
<rect x="41.0364" y="32.1637" width="2.21818" height="2.21818" fill="#FFD33C"/>
<rect x="42.1454" y="32.1637" width="2.21818" height="2.21818" fill="#FFC83C"/>
<rect x="44.3636" y="32.1637" width="2.21818" height="2.21818" fill="#FFB831"/>
<rect x="45.4728" y="32.1637" width="2.21818" height="2.21818" fill="#FFAF2A"/>
<rect x="47.6909" y="32.1637" width="2.21818" height="2.21818" fill="#FFA62F"/>
<rect x="48.8" y="32.1637" width="2.21818" height="2.21818" fill="#FF9930"/>
<rect x="51.0182" y="32.1637" width="2.21818" height="2.21818" fill="#FF9032"/>
<rect x="52.1273" y="32.1637" width="2.21818" height="2.21818" fill="#FF8731"/>
<rect x="54.3455" y="32.1637" width="2.21818" height="2.21818" fill="#FD842D"/>
<rect x="55.4545" y="32.1637" width="2.21818" height="2.21818" fill="#FB8536"/>
<rect x="57.6727" y="32.1637" width="2.21818" height="2.21818" fill="#F9A65C"/>
<rect x="9.98187" y="34.3818" width="2.21818" height="2.21818" fill="#FFAA55"/>
<rect x="12.2" y="34.3818" width="2.21818" height="2.21818" fill="#F4A659"/>
<rect x="13.3091" y="34.3818" width="2.21818" height="2.21818" fill="#F4A842"/>
<rect x="15.5272" y="34.3818" width="2.21818" height="2.21818" fill="#FDD86F"/>
<rect x="16.6364" y="34.3818" width="2.21818" height="2.21818" fill="#FEE66A"/>
<rect x="18.8546" y="34.3818" width="2.21818" height="2.21818" fill="#FDE87E"/>
<rect x="19.9636" y="34.3818" width="2.21818" height="2.21818" fill="#FCE34E"/>
<rect x="22.1818" y="34.3818" width="2.21818" height="2.21818" fill="#FCE140"/>
<rect x="23.291" y="34.3818" width="2.21818" height="2.21818" fill="#FCDF3D"/>
<rect x="25.5091" y="34.3818" width="2.21818" height="2.21818" fill="#FCE03C"/>
<rect x="26.6182" y="34.3818" width="2.21818" height="2.21818" fill="#FCDF3B"/>
<rect x="28.8363" y="34.3818" width="2.21818" height="2.21818" fill="#FCDF3B"/>
<rect x="31.0546" y="34.3818" width="2.21818" height="2.21818" fill="#FBDE3A"/>
<rect x="32.1637" y="34.3818" width="2.21818" height="2.21818" fill="#FCDE3A"/>
<rect x="34.3818" y="34.3818" width="2.21818" height="2.21818" fill="#FBDE39"/>
<rect x="35.491" y="34.3818" width="2.21818" height="2.21818" fill="#FBDE3A"/>
<rect x="37.7091" y="34.3818" width="2.21818" height="2.21818" fill="#FBDE3A"/>
<rect x="38.8181" y="34.3818" width="2.21818" height="2.21818" fill="#FCDE3D"/>
<rect x="41.0364" y="34.3818" width="2.21818" height="2.21818" fill="#FDDA38"/>
<rect x="42.1454" y="34.3818" width="2.21818" height="2.21818" fill="#FCD22E"/>
<rect x="44.3636" y="34.3818" width="2.21818" height="2.21818" fill="#FCCB32"/>
<rect x="45.4728" y="34.3818" width="2.21818" height="2.21818" fill="#FCC238"/>
<rect x="47.6909" y="34.3818" width="2.21818" height="2.21818" fill="#F6A72E"/>
<rect x="48.8" y="34.3818" width="2.21818" height="2.21818" fill="#F09332"/>
<rect x="51.0182" y="34.3818" width="2.21818" height="2.21818" fill="#F5933B"/>
<rect x="52.1273" y="34.3818" width="2.21818" height="2.21818" fill="#FFAA55"/>
<rect x="16.6364" y="35.4909" width="2.21818" height="2.21818" fill="#F29827"/>
<rect x="18.8546" y="35.4909" width="2.21818" height="2.21818" fill="#FAC84B"/>
<rect x="19.9636" y="35.4909" width="2.21818" height="2.21818" fill="#FDE68D"/>
<rect x="22.1818" y="35.4909" width="2.21818" height="2.21818" fill="#FDEB83"/>
<rect x="23.291" y="35.4909" width="2.21818" height="2.21818" fill="#FCEB5C"/>
<rect x="25.5091" y="35.4909" width="2.21818" height="2.21818" fill="#FBE74A"/>
<rect x="26.6182" y="35.4909" width="2.21818" height="2.21818" fill="#FBE140"/>
<rect x="28.8363" y="35.4909" width="2.21818" height="2.21818" fill="#FBDE3C"/>
<rect x="31.0546" y="35.4909" width="2.21818" height="2.21818" fill="#FADD3A"/>
<rect x="32.1637" y="35.4909" width="2.21818" height="2.21818" fill="#FADC39"/>
<rect x="34.3818" y="35.4909" width="2.21818" height="2.21818" fill="#F9DB39"/>
<rect x="35.491" y="35.4909" width="2.21818" height="2.21818" fill="#F7DA3A"/>
<rect x="37.7091" y="35.4909" width="2.21818" height="2.21818" fill="#F9DE38"/>
<rect x="38.8181" y="35.4909" width="2.21818" height="2.21818" fill="#FBE644"/>
<rect x="41.0364" y="35.4909" width="2.21818" height="2.21818" fill="#FBD740"/>
<rect x="42.1454" y="35.4909" width="2.21818" height="2.21818" fill="#F7AC23"/>
<rect x="44.3636" y="35.4909" width="2.21818" height="2.21818" fill="#ED9323"/>
<rect x="45.4728" y="35.4909" width="2.21818" height="2.21818" fill="#FFB66D"/>
<rect x="19.9636" y="37.7091" width="2.21818" height="2.21818" fill="#F3A12C"/>
<rect x="22.1818" y="37.7091" width="2.21818" height="2.21818" fill="#FDE570"/>
<rect x="23.291" y="37.7091" width="2.21818" height="2.21818" fill="#FDEB85"/>
<rect x="25.5091" y="37.7091" width="2.21818" height="2.21818" fill="#FCEF67"/>
<rect x="26.6182" y="37.7091" width="2.21818" height="2.21818" fill="#FCE94B"/>
<rect x="28.8363" y="37.7091" width="2.21818" height="2.21818" fill="#FADE3D"/>
<rect x="31.0546" y="37.7091" width="2.21818" height="2.21818" fill="#FADC3A"/>
<rect x="32.1637" y="37.7091" width="2.21818" height="2.21818" fill="#F8DA39"/>
<rect x="34.3818" y="37.7091" width="2.21818" height="2.21818" fill="#F7DA3B"/>
<rect x="35.491" y="37.7091" width="2.21818" height="2.21818" fill="#FAE03A"/>
<rect x="37.7091" y="37.7091" width="2.21818" height="2.21818" fill="#FBE242"/>
<rect x="38.8181" y="37.7091" width="2.21818" height="2.21818" fill="#F9BA29"/>
<rect x="41.0364" y="37.7091" width="2.21818" height="2.21818" fill="#EE9C2A"/>
<rect x="22.1818" y="38.8182" width="2.21818" height="2.21818" fill="#F2A430"/>
<rect x="23.291" y="38.8182" width="2.21818" height="2.21818" fill="#FDE05F"/>
<rect x="25.5091" y="38.8182" width="2.21818" height="2.21818" fill="#FCEB70"/>
<rect x="26.6182" y="38.8182" width="2.21818" height="2.21818" fill="#FCED56"/>
<rect x="28.8363" y="38.8182" width="2.21818" height="2.21818" fill="#FBE242"/>
<rect x="31.0546" y="38.8182" width="2.21818" height="2.21818" fill="#F9DB3B"/>
<rect x="32.1637" y="38.8182" width="2.21818" height="2.21818" fill="#F7DA3A"/>
<rect x="34.3818" y="38.8182" width="2.21818" height="2.21818" fill="#FAD92F"/>
<rect x="35.491" y="38.8182" width="2.21818" height="2.21818" fill="#FBD939"/>
<rect x="37.7091" y="38.8182" width="2.21818" height="2.21818" fill="#F6AB1F"/>
<rect x="38.8181" y="38.8182" width="2.21818" height="2.21818" fill="#F0AA3E"/>
<rect x="23.291" y="41.0363" width="2.21818" height="2.21818" fill="#F4A635"/>
<rect x="25.5091" y="41.0363" width="2.21818" height="2.21818" fill="#FDE65A"/>
<rect x="26.6182" y="41.0363" width="2.21818" height="2.21818" fill="#FCEC63"/>
<rect x="28.8363" y="41.0363" width="2.21818" height="2.21818" fill="#FCE647"/>
<rect x="31.0546" y="41.0363" width="2.21818" height="2.21818" fill="#F9DC3C"/>
<rect x="32.1637" y="41.0363" width="2.21818" height="2.21818" fill="#F7D935"/>
<rect x="34.3818" y="41.0363" width="2.21818" height="2.21818" fill="#FBD22C"/>
<rect x="35.491" y="41.0363" width="2.21818" height="2.21818" fill="#F8B11F"/>
<rect x="37.7091" y="41.0363" width="2.21818" height="2.21818" fill="#EDB649"/>
<rect x="25.5091" y="42.1454" width="2.21818" height="2.21818" fill="#F9A61E"/>
<rect x="26.6182" y="42.1454" width="2.21818" height="2.21818" fill="#FDEA51"/>
<rect x="28.8363" y="42.1454" width="2.21818" height="2.21818" fill="#FCEA4E"/>
<rect x="31.0546" y="42.1454" width="2.21818" height="2.21818" fill="#FADE3E"/>
<rect x="32.1637" y="42.1454" width="2.21818" height="2.21818" fill="#FAD429"/>
<rect x="34.3818" y="42.1454" width="2.21818" height="2.21818" fill="#FAC025"/>
<rect x="35.491" y="42.1454" width="2.21818" height="2.21818" fill="#EEA538"/>
<rect x="25.5091" y="44.3637" width="2.21818" height="2.21818" fill="#F4AA48"/>
<rect x="26.6182" y="44.3637" width="2.21818" height="2.21818" fill="#FCDB42"/>
<rect x="28.8363" y="44.3637" width="2.21818" height="2.21818" fill="#FBEA55"/>
<rect x="31.0546" y="44.3637" width="2.21818" height="2.21818" fill="#F9E041"/>
<rect x="32.1637" y="44.3637" width="2.21818" height="2.21818" fill="#F9CF28"/>
<rect x="34.3818" y="44.3637" width="2.21818" height="2.21818" fill="#F7A81B"/>
<rect x="25.5091" y="45.4727" width="2.21818" height="2.21818" fill="#FFBF60"/>
<rect x="26.6182" y="45.4727" width="2.21818" height="2.21818" fill="#FCBC2C"/>
<rect x="28.8363" y="45.4727" width="2.21818" height="2.21818" fill="#FDE950"/>
<rect x="31.0546" y="45.4727" width="2.21818" height="2.21818" fill="#FAE03C"/>
<rect x="32.1637" y="45.4727" width="2.21818" height="2.21818" fill="#F9C725"/>
<rect x="34.3818" y="45.4727" width="2.21818" height="2.21818" fill="#F19B21"/>
<rect x="26.6182" y="47.6909" width="2.21818" height="2.21818" fill="#FBA319"/>
<rect x="28.8363" y="47.6909" width="2.21818" height="2.21818" fill="#FDE64B"/>
<rect x="31.0546" y="47.6909" width="2.21818" height="2.21818" fill="#FBDF3E"/>
<rect x="32.1637" y="47.6909" width="2.21818" height="2.21818" fill="#FBBE24"/>
<rect x="34.3818" y="47.6909" width="2.21818" height="2.21818" fill="#EF992D"/>
<rect x="26.6182" y="48.8" width="2.21818" height="2.21818" fill="#F99D20"/>
<rect x="28.8363" y="48.8" width="2.21818" height="2.21818" fill="#FDE446"/>
<rect x="31.0546" y="48.8" width="2.21818" height="2.21818" fill="#FCE242"/>
<rect x="32.1637" y="48.8" width="2.21818" height="2.21818" fill="#FAB422"/>
<rect x="34.3818" y="48.8" width="2.21818" height="2.21818" fill="#E8973A"/>
<rect x="26.6182" y="51.0182" width="2.21818" height="2.21818" fill="#FA9C26"/>
<rect x="28.8363" y="51.0182" width="2.21818" height="2.21818" fill="#FDDF46"/>
<rect x="31.0546" y="51.0182" width="2.21818" height="2.21818" fill="#FCE143"/>
<rect x="32.1637" y="51.0182" width="2.21818" height="2.21818" fill="#F9A81D"/>
<rect x="26.6182" y="52.1273" width="2.21818" height="2.21818" fill="#F79E35"/>
<rect x="28.8363" y="52.1273" width="2.21818" height="2.21818" fill="#FDDA49"/>
<rect x="31.0546" y="52.1273" width="2.21818" height="2.21818" fill="#FCDE49"/>
<rect x="32.1637" y="52.1273" width="2.21818" height="2.21818" fill="#F79C1B"/>
<rect x="26.6182" y="54.3454" width="2.21818" height="2.21818" fill="#F2AE51"/>
<rect x="28.8363" y="54.3454" width="2.21818" height="2.21818" fill="#FDD347"/>
<rect x="31.0546" y="54.3454" width="2.21818" height="2.21818" fill="#FDE250"/>
<rect x="32.1637" y="54.3454" width="2.21818" height="2.21818" fill="#F5931B"/>
<rect x="28.8363" y="55.4545" width="2.21818" height="2.21818" fill="#FCC33C"/>
<rect x="31.0546" y="55.4545" width="2.21818" height="2.21818" fill="#FDDC49"/>
<rect x="32.1637" y="55.4545" width="2.21818" height="2.21818" fill="#F48F1D"/>
<rect x="28.8363" y="57.6728" width="2.21818" height="2.21818" fill="#FBB332"/>
<rect x="31.0546" y="57.6728" width="2.21818" height="2.21818" fill="#FDD245"/>
<rect x="32.1637" y="57.6728" width="2.21818" height="2.21818" fill="#F19233"/>
<rect x="28.8363" y="58.7818" width="2.21818" height="2.21818" fill="#F9A62C"/>
<rect x="31.0546" y="58.7818" width="2.21818" height="2.21818" fill="#FDC942"/>
<rect x="32.1637" y="58.7818" width="2.21818" height="2.21818" fill="#E3AA71"/>
<rect x="28.8363" y="61" width="2.21818" height="2.21818" fill="#F89C2F"/>
<rect x="31.0546" y="61" width="2.21818" height="2.21818" fill="#FCBC41"/>
<rect x="28.8363" y="63.2181" width="2.21818" height="2.21818" fill="#F6A452"/>
<rect x="31.0546" y="63.2181" width="2.21818" height="2.21818" fill="#FBAB42"/>
<rect x="28.8363" y="64.3273" width="2.21818" height="2.21818" fill="#FFBF95"/>
<rect x="31.0546" y="64.3273" width="2.21818" height="2.21818" fill="#FA9C3F"/>
<rect x="31.0546" y="66.5455" width="2.21818" height="2.21818" fill="#F8923F"/>
<rect x="31.0546" y="67.6545" width="2.21818" height="2.21818" fill="#F6994F"/>
<rect x="31.0546" y="69.8727" width="2.21818" height="2.21818" fill="#F5B782"/>
</svg>
