<svg width="333" height="369" viewBox="0 0 333 369" fill="none" xmlns="http://www.w3.org/2000/svg">
<g clip-path="url(#clip0_40_2)">
<path d="M221.64 201.906H228.6V208.868H221.64V201.906Z" fill="#2E1B5B"/>
<path d="M228.6 208.868H235.56V215.83H228.6V208.868Z" fill="#2E1B5B"/>
<path d="M235.56 215.83H263.4V222.792H235.56V215.83Z" fill="#2E1B5B"/>
<path d="M47.64 187.981H54.6V194.943H47.64V187.981Z" fill="#2E1B5B"/>
<path d="M54.6 181.019H61.56V187.981H54.6V181.019Z" fill="#2E1B5B"/>
<path d="M326.04 181.019V167.094H319.08V160.132H312.12V153.17H305.16V146.208H298.2V153.17H284.28V160.132H263.4V167.094H256.44H242.52V160.132H263.4V153.17H270.36V146.208H277.32H284.28V139.245H291.24V132.283H298.2V118.358H291.24V111.396H298.2H305.16V104.434V97.4717H312.12V83.5472V69.6226H305.16V62.6604H298.2V55.6981H291.24H284.28V48.7358H277.32V41.7736H270.36V34.8113H263.4V20.8868H256.44V6.96226H242.52V0H228.6V6.96226H221.64H207.72V0H186.84V6.96226H172.92V0H165.96H152.04H131.16V6.96226H124.2H110.28V13.9245H96.36V20.8868V27.8491H89.4V48.7358H96.36V55.6981V62.6604H89.4V55.6981H75.48V62.6604H68.52H61.56V55.6981V48.7358H54.6V41.7736H47.64V34.8113H33.72V27.8491H26.76H19.8H12.84V34.8113H5.88V41.7736H-1.08V48.7358H-8.04V55.6981V62.6604V69.6226H-1.08V83.5472H5.88V90.5094H12.84H26.76V97.4717H5.88V104.434H-1.08V111.396V118.358H5.88H12.84V125.321H-8.04V132.283H-15V153.17H-8.04V160.132H-1.08V167.094H5.88V174.057H12.84V181.019H19.8V187.981H40.68H47.64V181.019H54.6V174.057H61.56V167.094H82.44V174.057H68.52H61.56V181.019H68.52H75.48V187.981H82.44V194.943H96.36V201.906H103.32V208.868H110.28V215.83H117.24V222.792H124.2H131.16V229.755H138.12V236.717H145.08V243.679H152.04V250.642H159V257.604V264.566V271.528H165.96V278.491V285.453V292.415H159V299.377V306.34H152.04V313.302H145.08V320.264H131.16V327.226H124.2V334.189H131.16V341.151H124.2V348.113H103.32V355.075H117.24V362.038H124.2V369H200.76V362.038H214.68V369H256.44H263.4H284.28V362.038H298.2H305.16V355.075H312.12V348.113H305.16V341.151H298.2V334.189V327.226H291.24V320.264H284.28V313.302H270.36V306.34H242.52V313.302H228.6V306.34H221.64V299.377V292.415V285.453H214.68V278.491V271.528V264.566V257.604H207.72V250.642H200.76V243.679H186.84V236.717H179.88V229.755H172.92V222.792H179.88V215.83H186.84V208.868H193.8V201.906H200.76H221.64V194.943H235.56V201.906H249.48H263.4V208.868V215.83H270.36V208.868H284.28V215.83H298.2H305.16V208.868H312.12H319.08V201.906H326.04V194.943H333V181.019H326.04ZM124.2 201.906H110.28V194.943H103.32V187.981H96.36V181.019V174.057H103.32V181.019H110.28V187.981H117.24V194.943H124.2V201.906ZM159 201.906V208.868H152.04V201.906H145.08V194.943H138.12V187.981H152.04V194.943H159V201.906Z" fill="#2E1B5B"/>
<path d="M54.6 181.019H61.56V187.981H54.6V181.019Z" fill="#007D2A"/>
<path d="M47.64 187.981H54.6V194.943H47.64V187.981Z" fill="#007D2A"/>
<path d="M221.64 201.906H228.6V208.868H221.64V201.906Z" fill="#007D2A"/>
<path d="M228.6 208.868H235.56V215.83H228.6V208.868Z" fill="#007D2A"/>
<path d="M235.56 215.83H263.4V222.792H235.56V215.83Z" fill="#007D2A"/>
<path d="M326.04 181.019V167.094H319.08V160.132H312.12V153.17H305.16V146.208H298.2V153.17H284.28V160.132H263.4V167.094H242.52V160.132H263.4V153.17H270.36V146.208H277.32H284.28V139.245H291.24V132.283H298.2V118.358H291.24V111.396H298.2H305.16V97.4717H312.12V69.6226H305.16V62.6604H298.2V55.6981H291.24H284.28V48.7358H277.32V41.7736H270.36V34.8113H263.4V20.8868H256.44V6.96226H242.52V0H228.6V6.96226H207.72V0H186.84V6.96226H172.92V0H131.16V6.96226H110.28V13.9245H96.36V27.8491H89.4V48.7358H96.36V62.6604H89.4V55.6981H75.48V62.6604H61.56V55.6981V48.7358H54.6V41.7736H47.64V34.8113H33.72V27.8491H12.84V34.8113H5.88V41.7736H-1.08V48.7358H-8.04V55.6981V62.6604V69.6226H-1.08V83.5472H5.88V90.5094H26.76V97.4717H5.88V104.434H-1.08V111.396V118.358H5.88H12.84V125.321H-8.04V132.283H-15V153.17H-8.04V160.132H-1.08V167.094H5.88V174.057H12.84V181.019H19.8V187.981H40.68H47.64V181.019H54.6V174.057H61.56V167.094H82.44V174.057H68.52H61.56V181.019H68.52H75.48V187.981H82.44V194.943H96.36V201.906H103.32V208.868H110.28V215.83H117.24V222.792H131.16V229.755H138.12V236.717H145.08V243.679H152.04V250.642H159V257.604V264.566V271.528H165.96V278.491V285.453V292.415H159V299.377V306.34H152.04V313.302H145.08V320.264H131.16V327.226H124.2V334.189H131.16V341.151H124.2V348.113H103.32V355.075H117.24V362.038H124.2V369H200.76V362.038H214.68V369H284.28V362.038H305.16V355.075H312.12V348.113H305.16V341.151H298.2V334.189V327.226H291.24V320.264H284.28V313.302H270.36V306.34H242.52V313.302H228.6V306.34H221.64V299.377V292.415V285.453H214.68V278.491V271.528V264.566V257.604H207.72V250.642H200.76V243.679H186.84V236.717H179.88V229.755H172.92V222.792H179.88V215.83H186.84V208.868H193.8V201.906H200.76H221.64V194.943H235.56V201.906H263.4V208.868V215.83H270.36V208.868H284.28V215.83H298.2H305.16V208.868H312.12H319.08V201.906H326.04V194.943H333V181.019H326.04ZM124.2 201.906H110.28V194.943H103.32V187.981H96.36V181.019V174.057H103.32V181.019H110.28V187.981H117.24V194.943H124.2V201.906ZM159 208.868H152.04V201.906H145.08V194.943H138.12V187.981H152.04V194.943H159V201.906V208.868Z" fill="#007D2A"/>
<path d="M19.8 153.17H33.72V160.132H19.8V153.17Z" fill="#00C49C"/>
<path d="M33.72 160.132H40.68V167.094H33.72V160.132Z" fill="#00C49C"/>
<path d="M40.68 146.208H47.64V153.17H40.68V146.208Z" fill="#00C49C"/>
<path d="M47.64 153.17H54.6V160.132H47.64V153.17Z" fill="#00C49C"/>
<path d="M40.68 132.283H33.72V125.321H26.76V132.283V139.245H40.68V132.283Z" fill="#00C49C"/>
<path d="M54.6 97.4717H61.56V104.434H54.6V97.4717Z" fill="#00C49C"/>
<path d="M75.48 104.434H82.44V97.4717H89.4V83.5472H68.52V97.4717H75.48V104.434Z" fill="#00C49C"/>
<path d="M89.4 104.434H96.36V111.396H89.4V104.434Z" fill="#00C49C"/>
<path d="M96.36 90.5094H110.28V97.4717H96.36V90.5094Z" fill="#00C49C"/>
<path d="M82.44 118.358H103.32V125.321H82.44V118.358Z" fill="#00C49C"/>
<path d="M75.48 125.321H82.44V132.283H75.48V125.321Z" fill="#00C49C"/>
<path d="M138.12 6.96226H152.04V0H131.16V6.96226H124.2V20.8868H138.12V6.96226Z" fill="#00C49C"/>
<path d="M110.28 20.8868H117.24V27.849H110.28V20.8868Z" fill="#00C49C"/>
<path d="M117.24 27.8491H131.16V34.8113H117.24V27.8491Z" fill="#00C49C"/>
<path d="M145.08 20.8868H152.04V34.8113H145.08V20.8868Z" fill="#00C49C"/>
<path d="M186.84 6.96225H193.8V20.8868H186.84V6.96225Z" fill="#00C49C"/>
<path d="M179.88 20.8868H186.84V27.849H179.88V20.8868Z" fill="#00C49C"/>
<path d="M207.72 34.8113V27.8491H214.68V20.8868H221.64V13.9245H207.72V20.8868H193.8V34.8113H207.72Z" fill="#00C49C"/>
<path d="M179.88 34.8113H186.84V41.7736H179.88V34.8113Z" fill="#00C49C"/>
<path d="M193.8 41.7736H200.76V48.7359H193.8V41.7736Z" fill="#00C49C"/>
<path d="M207.72 41.7736H214.68V48.7359H207.72V41.7736Z" fill="#00C49C"/>
<path d="M221.64 34.8113H214.68V41.7736H221.64H235.56V34.8113H242.52V20.8868H235.56V27.849H221.64V34.8113Z" fill="#00C49C"/>
<path d="M221.64 48.7358H228.6V55.6981H221.64V48.7358Z" fill="#00C49C"/>
<path d="M172.92 48.7358H179.88V55.6981H172.92V48.7358Z" fill="#00C49C"/>
<path d="M152.04 111.396H124.2V118.359V125.321H117.24V132.283H131.16V125.321H138.12V118.359H152.04V111.396Z" fill="#00C49C"/>
<path d="M145.08 125.321H159V139.245H145.08V125.321Z" fill="#00C49C"/>
<path d="M291.24 62.6604H298.2V55.6981H284.28V62.6604H270.36V76.5849H291.24V62.6604Z" fill="#00C49C"/>
<path d="M298.2 69.6227H305.16V76.5849H298.2V69.6227Z" fill="#00C49C"/>
<path d="M256.44 76.5849H270.36V83.5472H256.44V76.5849Z" fill="#00C49C"/>
<path d="M270.36 83.5472H284.28V90.5094H270.36V83.5472Z" fill="#00C49C"/>
<path d="M138.12 69.6226H124.2V76.5849H145.08V69.6226H159V62.6604H138.12V69.6226Z" fill="#00C49C"/>
<path d="M165.96 76.5849H172.92V83.5472H165.96V76.5849Z" fill="#00C49C"/>
<path d="M235.56 111.396V97.4717H228.6V90.5094H200.76V97.4717H221.64V111.396H235.56Z" fill="#00C49C"/>
<path d="M242.52 104.434H256.44V111.396H242.52V104.434Z" fill="#00C49C"/>
<path d="M200.76 111.396H207.72V118.359H200.76V111.396Z" fill="#00C49C"/>
<path d="M228.6 125.321H249.48V132.283H228.6V125.321Z" fill="#00C49C"/>
<path d="M249.48 118.358H256.44V125.321H249.48V118.358Z" fill="#00C49C"/>
<path d="M186.84 153.17H193.8V160.132H186.84V153.17Z" fill="#00C49C"/>
<path d="M214.68 146.208H221.64V153.17H214.68V146.208Z" fill="#00C49C"/>
<path d="M221.64 132.283H228.6V139.245H221.64V132.283Z" fill="#00C49C"/>
<path d="M172.92 118.358H193.8V132.283H172.92V118.358Z" fill="#00C49C"/>
<path d="M298.2 160.132H305.16V153.17V146.208H298.2V153.17H284.28V160.132V167.094H298.2V160.132Z" fill="#00C49C"/>
<path d="M305.16 160.132H312.12V167.094H305.16V160.132Z" fill="#00C49C"/>
<path d="M270.36 167.094H284.28V174.057H270.36V167.094Z" fill="#00C49C"/>
<path d="M291.24 181.019H312.12V187.981H291.24V181.019Z" fill="#00C49C"/>
<path d="M312.12 174.057H319.08V181.019H312.12V174.057Z" fill="#00C49C"/>
<path d="M26.76 34.8113H47.64V41.7736H26.76V34.8113Z" fill="#00C49C"/>
<path d="M26.76 48.7358H33.72V55.6981H26.76V48.7358Z" fill="#00C49C"/>
<path d="M40.68 48.7358H54.6V62.6604H40.68V48.7358Z" fill="#00C49C"/>
<path d="M12.84 34.8113H19.8V41.7736H12.84V34.8113Z" fill="#00C49C"/>
<path d="M152.04 0H165.96V6.96226H152.04V0Z" fill="#FC85FF"/>
<path d="M145.08 13.9245H152.04V20.8868H145.08V13.9245Z" fill="#FC85FF"/>
<path d="M221.64 6.96225H235.56V13.9245H221.64V6.96225Z" fill="#FC85FF"/>
<path d="M249.48 20.8868H256.44V27.849H249.48V20.8868Z" fill="#FC85FF"/>
<path d="M256.44 34.8113H270.36V41.7736H256.44V34.8113Z" fill="#FC85FF"/>
<path d="M277.32 48.7358H284.28V55.6981H277.32V48.7358Z" fill="#FC85FF"/>
<path d="M40.68 118.358H47.64V125.321H40.68V118.358Z" fill="#FC85FF"/>
<path d="M47.64 139.245H54.6V146.208H47.64V139.245Z" fill="#FC85FF"/>
<path d="M110.28 139.245H131.16V146.208H110.28V139.245Z" fill="#FC85FF"/>
<path d="M193.8 111.396H200.76V118.359H193.8V111.396Z" fill="#FC85FF"/>
<path d="M124.2 104.434H138.12V111.396H124.2V104.434Z" fill="#FC85FF"/>
<path d="M117.24 83.5472H124.2V90.5094H117.24V83.5472Z" fill="#FC85FF"/>
<path d="M214.68 118.358H221.64V125.321H214.68V118.358Z" fill="#FC85FF"/>
<path d="M298.2 167.094H312.12V174.057H298.2V167.094Z" fill="#FC85FF"/>
<path d="M54.6 83.5472H61.56V90.5094H54.6V83.5472Z" fill="#FC85FF"/>
<path d="M61.56 76.5849H68.52V83.5472H61.56V76.5849Z" fill="#FC85FF"/>
<path d="M19.8 41.7736H26.76V48.7359H19.8V41.7736Z" fill="#FC85FF"/>
<path d="M19.8 27.8491H26.76V34.8113H19.8V27.8491Z" fill="#FC85FF"/>
<path d="M249.48 69.6227H256.44V76.5849H249.48V69.6227Z" fill="#FC85FF"/>
<path d="M214.68 48.7358H221.64V55.6981H214.68V48.7358Z" fill="#FC85FF"/>
<path d="M131.16 27.8491H138.12V34.8113H131.16V27.8491Z" fill="#FC85FF"/>
<path d="M165.96 97.4717H179.88V104.434H165.96V97.4717Z" fill="#FC85FF"/>
<path d="M172.92 111.396H179.88V118.359H172.92V111.396Z" fill="#FC85FF"/>
<path d="M138.12 20.8868H145.08V27.849H138.12V20.8868Z" fill="#1279C6"/>
<path d="M110.28 34.8113H117.24V41.7736H110.28V34.8113Z" fill="#1279C6"/>
<path d="M165.96 13.9245H179.88V20.8868H165.96V13.9245Z" fill="#1279C6"/>
<path d="M186.84 27.8491H193.8V34.8113H186.84V27.8491Z" fill="#1279C6"/>
<path d="M221.64 41.7736H235.56V48.7359H221.64V41.7736Z" fill="#1279C6"/>
<path d="M263.4 55.6981H277.32V62.6604H263.4V55.6981Z" fill="#1279C6"/>
<path d="M284.28 76.5849H291.24V83.5472H284.28V76.5849Z" fill="#1279C6"/>
<path d="M200.76 118.358H214.68V125.321H200.76V118.358Z" fill="#1279C6"/>
<path d="M179.88 160.132H193.8V167.094H179.88V160.132Z" fill="#1279C6"/>
<path d="M193.8 153.17H200.76V160.132H193.8V153.17Z" fill="#1279C6"/>
<path d="M186.84 125.321H193.8V132.283H186.84V125.321Z" fill="#1279C6"/>
<path d="M131.16 111.396H138.12V118.359H131.16V111.396Z" fill="#1279C6"/>
<path d="M214.68 90.5094H228.6V97.4717H214.68V90.5094Z" fill="#1279C6"/>
<path d="M270.36 69.6227H277.32V76.5849H270.36V69.6227Z" fill="#1279C6"/>
<path d="M249.48 139.245H270.36V146.208H249.48V139.245Z" fill="#1279C6"/>
<path d="M235.56 146.208H242.52V160.132H235.56V146.208Z" fill="#1279C6"/>
<path d="M47.64 187.981H54.6V194.943H47.64V187.981Z" fill="#2E1B5B"/>
<path d="M54.6 181.019H61.56V187.981H54.6V181.019Z" fill="#2E1B5B"/>
<path d="M152.04 355.075H165.96V362.038H152.04V355.075Z" fill="#2E1B5B"/>
<path d="M284.28 341.151H291.24V348.113H284.28V341.151Z" fill="#2E1B5B"/>
<path d="M270.36 348.113V341.151H284.28V334.189H270.36V327.226H249.48V334.189H235.56V327.226H242.52V320.264H228.6V327.226H221.64V334.189H228.6V341.151H214.68V348.113H200.76V362.038H235.56V348.113H242.52V341.151H249.48V348.113V355.075H242.52V362.038H256.44V355.075H284.28V348.113H270.36ZM256.44 334.189H263.4V341.151H256.44V334.189Z" fill="#2E1B5B"/>
<path d="M256.44 362.038H263.4V369H256.44V362.038Z" fill="#2E1B5B"/>
<path d="M284.28 355.075V362.038H298.2H305.16V355.075H298.2H284.28Z" fill="#2E1B5B"/>
<path d="M186.84 341.151H200.76V348.113H186.84V341.151Z" fill="#2E1B5B"/>
<path d="M179.88 348.113H186.84V355.075H179.88V348.113Z" fill="#2E1B5B"/>
<path d="M103.32 55.6981V48.7358H96.36V55.6981V69.6226H110.28V55.6981H103.32Z" fill="#2E1B5B"/>
<path d="M75.48 69.6226H96.36V76.5849H75.48V69.6226Z" fill="#2E1B5B"/>
<path d="M68.52 62.6604H75.48V69.6226H68.52V62.6604Z" fill="#2E1B5B"/>
<path d="M103.32 34.8113V27.849H96.36H89.4V48.7358H96.36V34.8113H103.32Z" fill="#2E1B5B"/>
<path d="M96.36 13.9245H110.28V20.8868H96.36V13.9245Z" fill="#2E1B5B"/>
<path d="M249.48 194.943V187.981H242.52V181.019H249.48V187.981H263.4V181.019V174.057V167.094H256.44V174.057H242.52V160.132H235.56V167.094H228.6V174.057H221.64V167.094V160.132H214.68V153.17H207.72V160.132V167.094H214.68V174.057H207.72V181.019H200.76V174.057H193.8H186.84V181.019H193.8V187.981H172.92V181.019H165.96V174.057H159V160.132H152.04V167.094H138.12V181.019H124.2V174.057H131.16V167.094H117.24V160.132H110.28V153.17H117.24V146.208H110.28V139.245H103.32V146.208V153.17H96.36V160.132H82.44V153.17H68.52V146.208H61.56V139.245H54.6V146.208V153.17H61.56V167.094H82.44V174.057H61.56V181.019H75.48V187.981H82.44V194.943H96.36V201.906H110.28V194.943H103.32V187.981H89.4V181.019H96.36V174.057H103.32V181.019H110.28V187.981H117.24V194.943H124.2V201.906H110.28V208.868V215.83H124.2V222.792H131.16V229.755H145.08V236.717H152.04V243.679H159V250.641V264.566V271.528H165.96V292.415V306.34H152.04V313.302H145.08V320.264H131.16V334.189V341.151H124.2V348.113H103.32V355.075H124.2V362.038H145.08V355.075H152.04V348.113H159V341.151H172.92V334.189H179.88H186.84H200.76V327.226V320.264H193.8V327.226H186.84V320.264H193.8V313.302H200.76V320.264H214.68V313.302H221.64V306.34V292.415H214.68V271.528V264.566H207.72V250.641H200.76V243.679H179.88V236.717V229.755H172.92V236.717H165.96V229.755H172.92V222.792V215.83H186.84V208.868H193.8V201.906H221.64V187.981H235.56V194.943V201.906H249.48H263.4V194.943H249.48ZM159 208.868H138.12V201.906H145.08V194.943H138.12V187.981H152.04V194.943H159V201.906V208.868Z" fill="#2E1B5B"/>
<path d="M312.12 201.906H298.2V208.868H284.28V215.83H305.16V208.868H319.08V201.906H326.04V194.943H312.12V201.906Z" fill="#2E1B5B"/>
<path d="M326.04 181.019H333V194.943H326.04V181.019Z" fill="#2E1B5B"/>
<path d="M263.4 187.981H270.36V194.943H263.4V187.981Z" fill="#2E1B5B"/>
<path d="M172.92 6.96225H186.84V13.9245H172.92V6.96225Z" fill="#2E1B5B"/>
<path d="M165.96 27.849H172.92V34.8113H165.96V27.849Z" fill="#2E1B5B"/>
<path d="M165.96 48.7358H172.92V55.6981H165.96V48.7358Z" fill="#2E1B5B"/>
<path d="M228.6 153.17H235.56V160.132H228.6V153.17Z" fill="#2E1B5B"/>
<path d="M165.96 62.6604V55.6981H159V48.7358H165.96V41.7736V34.8113H159V41.7736H152.04V48.7358H145.08V55.6981H138.12V48.7358H124.2V55.6981H131.16V62.6604H117.24V69.6226H110.28V76.5849H124.2V69.6226H138.12V62.6604H145.08H159V69.6226H172.92V62.6604H165.96Z" fill="#2E1B5B"/>
<path d="M263.4 153.17H270.36V146.208H256.44V153.17H242.52V160.132H263.4V153.17Z" fill="#2E1B5B"/>
<path d="M-1.08 83.5472H5.88V90.5094H12.84H26.76V97.4717H33.72V90.5094H47.64V76.5849H33.72V83.5472H26.76H12.84V76.5849H5.88V69.6226V48.7358H-8.04V69.6226H-1.08V83.5472Z" fill="#2E1B5B"/>
<path d="M47.64 69.6226H54.6V76.5849H47.64V69.6226Z" fill="#2E1B5B"/>
<path d="M54.6 62.6604H61.56V69.6226H54.6V62.6604Z" fill="#2E1B5B"/>
<path d="M159 153.17H165.96V160.132H159V153.17Z" fill="#2E1B5B"/>
<path d="M165.96 146.208H172.92V153.17H165.96V146.208Z" fill="#2E1B5B"/>
<path d="M172.92 174.057H179.88V181.019H172.92V174.057Z" fill="#2E1B5B"/>
<path d="M200.76 167.094H207.72V174.057H200.76V167.094Z" fill="#2E1B5B"/>
<path d="M12.84 167.094V153.17H5.88V160.132H-1.08V167.094H5.88V174.057H12.84V181.019H19.8V167.094H12.84Z" fill="#2E1B5B"/>
<path d="M19.8 181.019H47.64V187.981H19.8V181.019Z" fill="#2E1B5B"/>
<path d="M5.88 104.434H-1.08V118.358H5.88H12.84V132.283H19.8V118.358H26.76V97.4717H5.88V104.434Z" fill="#2E1B5B"/>
<path d="M242.52 55.6981H249.48V69.6226H242.52V55.6981Z" fill="#2E1B5B"/>
<path d="M298.2 201.906V194.943H277.32V201.906H263.4V208.868V215.83H270.36V208.868H284.28V201.906H298.2Z" fill="#2E1B5B"/>
<path d="M75.48 139.245V125.321V118.358H68.52V125.321H54.6V132.283H61.56V139.245H68.52H75.48Z" fill="#2E1B5B"/>
<path d="M75.48 139.245H82.44V146.208H75.48V139.245Z" fill="#2E1B5B"/>
<path d="M117.24 132.283V125.321V118.358H103.32V125.321H110.28V132.283V139.245H117.24V132.283Z" fill="#2E1B5B"/>
<path d="M145.08 153.17H152.04V160.132H145.08V153.17Z" fill="#2E1B5B"/>
<path d="M138.12 160.132V153.17H131.16V160.132V167.094H138.12V160.132Z" fill="#2E1B5B"/>
<path d="M200.76 146.208H207.72V153.17H200.76V146.208Z" fill="#2E1B5B"/>
<path d="M207.72 139.245H214.68V146.208H207.72V139.245Z" fill="#2E1B5B"/>
<path d="M200.76 132.283H207.72V139.245H200.76V132.283Z" fill="#2E1B5B"/>
<path d="M284.28 139.245H291.24V132.283H298.2V118.358H291.24V111.396H305.16V104.434V97.4717H312.12V83.5471H305.16V90.5094H298.2V97.4717H291.24V104.434H284.28H270.36V97.4717H263.4V90.5094H256.44V83.5471H249.48V76.5849H242.52V69.6226H235.56V76.5849H221.64V83.5471H214.68V76.5849H207.72V69.6226H214.68V55.6981H207.72V62.6604H200.76H193.8V69.6226H200.76V76.5849H193.8V69.6226H172.92V83.5471H193.8H207.72V90.5094H214.68H228.6V83.5471H235.56H242.52V90.5094H228.6V97.4717H242.52H256.44V104.434H263.4V111.396H270.36V118.358H277.32V125.321V132.283H270.36V146.208H284.28V139.245Z" fill="#2E1B5B"/>
<path d="M270.36 90.5094H277.32V97.4717H270.36V90.5094Z" fill="#2E1B5B"/>
<path d="M284.28 90.5094H291.24V97.4717H284.28V90.5094Z" fill="#2E1B5B"/>
<path d="M249.48 48.7358H256.44V55.6981H249.48V48.7358Z" fill="#2E1B5B"/>
<path d="M159 90.5094V97.4717H165.96V90.5094H172.92V83.5471H159V90.5094Z" fill="#2E1B5B"/>
<path d="M145.08 97.4717H159V104.434H145.08V97.4717Z" fill="#2E1B5B"/>
<path d="M131.16 90.5094H145.08V97.4717H131.16V90.5094Z" fill="#2E1B5B"/>
<path d="M124.2 83.5471H131.16V90.5094H124.2V83.5471Z" fill="#2E1B5B"/>
<path d="M172.92 90.5094H179.88V97.4717H172.92V90.5094Z" fill="#2E1B5B"/>
<path d="M159 139.245H165.96V146.208H159V139.245Z" fill="#2E1B5B"/>
<path d="M165.96 132.283H172.92V139.245H165.96V132.283Z" fill="#2E1B5B"/>
<path d="M242.52 41.7736H249.48V48.7358H242.52V41.7736Z" fill="#2E1B5B"/>
<path d="M249.48 34.8113H256.44V41.7736H249.48V34.8113Z" fill="#2E1B5B"/>
<path d="M256.44 20.8868H263.4V34.8113H256.44V20.8868Z" fill="#2E1B5B"/>
<path d="M298.2 76.5849H305.16V83.5472H298.2V76.5849Z" fill="#2E1B5B"/>
<path d="M263.4 125.321H270.36V132.283H263.4V125.321Z" fill="#2E1B5B"/>
</g>
<defs>
<clipPath id="clip0_40_2">
<rect width="348" height="369" fill="white" transform="translate(-15)"/>
</clipPath>
</defs>
</svg>
