<svg xmlns="http://www.w3.org/2000/svg" viewBox="0 0 24 24" height="24" width="24"><title>interface-essential-crown</title><g><path d="M22.28625 6.85875h1.1400000000000001v2.2800000000000002h-1.1400000000000001Z" fill="#333c54" stroke-width="0.75"></path><path d="M19.99875 5.71125h2.2874999999999996v1.1475h-2.2874999999999996Z" fill="#333c54" stroke-width="0.75"></path><path d="m19.99875 13.713750000000001 1.1475 0 0 -3.4275 1.1400000000000001 0 0 -1.1475 -2.2874999999999996 0 0 -2.2800000000000002 -1.1400000000000001 0 0 3.4275 1.1400000000000001 0 0 3.4275z" fill="#333c54" stroke-width="0.75"></path><path d="m18.85875 14.85375 -1.1475 0 0 1.1475 1.1475 0 0 1.1400000000000001 -13.7175 0 0 -1.1400000000000001 1.1475 0 0 -1.1475 -1.1475 0 0 -1.1400000000000001 -1.1400000000000001 0 0 5.715 1.1400000000000001 0 0 1.1400000000000001 13.7175 0 0 -1.1400000000000001 1.1400000000000001 0 0 -5.715 -1.1400000000000001 0 0 1.1400000000000001z" fill="#333c54" stroke-width="0.75"></path><path d="M17.71125 10.286249999999999h1.1475v1.1400000000000001h-1.1475Z" fill="#333c54" stroke-width="0.75"></path><path d="M16.57125 11.42625h1.1400000000000001v1.1475h-1.1400000000000001Z" fill="#333c54" stroke-width="0.75"></path><path d="M15.431249999999999 12.57375h1.1400000000000001v1.1400000000000001h-1.1400000000000001Z" fill="#333c54" stroke-width="0.75"></path><path d="M14.283750000000001 14.85375h2.2874999999999996v1.1475h-2.2874999999999996Z" fill="#333c54" stroke-width="0.75"></path><path d="M14.283750000000001 10.286249999999999h1.1475v2.2874999999999996h-1.1475Z" fill="#333c54" stroke-width="0.75"></path><path d="M13.143749999999999 7.998749999999999h1.1400000000000001v2.2874999999999996h-1.1400000000000001Z" fill="#333c54" stroke-width="0.75"></path><path d="M13.143749999999999 4.57125h1.1400000000000001v2.2874999999999996h-1.1400000000000001Z" fill="#333c54" stroke-width="0.75"></path><path d="M10.85625 6.85875h2.2874999999999996v1.1400000000000001h-2.2874999999999996Z" fill="#333c54" stroke-width="0.75"></path><path d="M10.85625 3.4312500000000004h2.2874999999999996v1.1400000000000001h-2.2874999999999996Z" fill="#333c54" stroke-width="0.75"></path><path d="M10.85625 13.713750000000001h2.2874999999999996v2.2874999999999996h-2.2874999999999996Z" fill="#333c54" stroke-width="0.75"></path><path d="M9.71625 7.998749999999999h1.1400000000000001v2.2874999999999996h-1.1400000000000001Z" fill="#333c54" stroke-width="0.75"></path><path d="M9.71625 4.57125h1.1400000000000001v2.2874999999999996h-1.1400000000000001Z" fill="#333c54" stroke-width="0.75"></path><path d="M8.568750000000001 10.286249999999999h1.1475v2.2874999999999996h-1.1475Z" fill="#333c54" stroke-width="0.75"></path><path d="M7.428749999999999 14.85375h2.2874999999999996v1.1475h-2.2874999999999996Z" fill="#333c54" stroke-width="0.75"></path><path d="M7.428749999999999 12.57375h1.1400000000000001v1.1400000000000001h-1.1400000000000001Z" fill="#333c54" stroke-width="0.75"></path><path d="M6.28875 11.42625h1.1400000000000001v1.1475h-1.1400000000000001Z" fill="#333c54" stroke-width="0.75"></path><path d="M5.14125 10.286249999999999h1.1475v1.1400000000000001h-1.1475Z" fill="#333c54" stroke-width="0.75"></path><path d="m1.71375 9.13875 0 1.1475 1.1475 0 0 3.4275 1.1400000000000001 0 0 -3.4275 1.1400000000000001 0 0 -3.4275 -1.1400000000000001 0 0 2.2800000000000002 -2.2874999999999996 0z" fill="#333c54" stroke-width="0.75"></path><path d="M1.71375 5.71125h2.2874999999999996v1.1475h-2.2874999999999996Z" fill="#333c54" stroke-width="0.75"></path><path d="M0.57375 6.85875h1.1400000000000001v2.2800000000000002H0.57375Z" fill="#333c54" stroke-width="0.75"></path></g></svg>