<svg xmlns="http://www.w3.org/2000/svg" viewBox="0 0 24 24" height="24" width="24"><title>interface-essential-stop-sign-2</title><g><path d="M22.86 4.5675h-1.1475V3.4275h-1.1400000000000001V2.2874999999999996h-1.1400000000000001V1.1400000000000001h-1.1475V0H5.715v1.1400000000000001H4.574999999999999v1.1475H3.4275v1.1400000000000001H2.2874999999999996v1.1400000000000001H1.1475v1.1475H0v12.57h1.1475v1.1400000000000001h1.1400000000000001v1.1475h1.1400000000000001v1.1400000000000001H4.574999999999999v1.1475h1.1400000000000001V24h12.57v-1.1400000000000001h1.1475v-1.1475h1.1400000000000001v-1.1400000000000001h1.1400000000000001V19.424999999999997h1.1475v-1.1400000000000001H24V5.715h-1.1400000000000001Zm-1.1475 13.7175h-1.1400000000000001v1.1400000000000001h-1.1400000000000001v1.1475h-1.1475v1.1400000000000001H5.715v-1.1400000000000001H4.574999999999999V19.424999999999997H3.4275v-1.1400000000000001H2.2874999999999996V5.715h1.1400000000000001V4.5675H4.574999999999999V3.4275h1.1400000000000001V2.2874999999999996h12.57v1.1400000000000001h1.1475v1.1400000000000001h1.1400000000000001v1.1475h1.1400000000000001Z" fill="#333c54" stroke-width="0.75"></path><path d="M20.572499999999998 5.715h-1.1400000000000001V4.5675h-1.1475V3.4275H5.715v1.1400000000000001H4.574999999999999v1.1475H3.4275v12.57H4.574999999999999v1.1400000000000001h1.1400000000000001v1.1475h12.57V19.424999999999997h1.1475v-1.1400000000000001h1.1400000000000001Zm-3.4275 12.57h-1.1400000000000001v1.1400000000000001h-6.862500000000001v-1.1400000000000001h-1.1400000000000001v-2.2874999999999996H6.862500000000001v-1.1400000000000001H5.715v-1.1475H4.574999999999999v-2.2800000000000002h2.2874999999999996v1.1400000000000001h1.1400000000000001v1.1400000000000001h1.1400000000000001V5.715h1.1475v6.855h1.1400000000000001V4.5675h1.1400000000000001v8.0025h1.1475V5.715h1.1400000000000001v6.855h1.1475v-4.5675h1.1400000000000001Z" fill="#333c54" stroke-width="0.75"></path><path d="M13.7175 15.997499999999999h1.1400000000000001v1.1475h-1.1400000000000001Z" fill="#333c54" stroke-width="0.75"></path><path d="M13.7175 13.71h1.1400000000000001v1.1475h-1.1400000000000001Z" fill="#333c54" stroke-width="0.75"></path><path d="M11.43 17.145h2.2874999999999996v1.1400000000000001h-2.2874999999999996Z" fill="#333c54" stroke-width="0.75"></path><path d="M10.290000000000001 15.997499999999999h1.1400000000000001v1.1475h-1.1400000000000001Z" fill="#333c54" stroke-width="0.75"></path><path d="M10.290000000000001 13.71h1.1400000000000001v1.1475h-1.1400000000000001Z" fill="#333c54" stroke-width="0.75"></path></g></svg>