<svg xmlns="http://www.w3.org/2000/svg" viewBox="0 0 24 24" height="24" width="24"><title>interface-essential-alarm-bell-off</title><g><path d="M22.86 2.2874999999999996H24v19.424999999999997h-1.1400000000000001Z" fill="#333c54" stroke-width="0.75"></path><path d="M21.72 21.7125h1.1400000000000001v1.1400000000000001h-1.1400000000000001Z" fill="#333c54" stroke-width="0.75"></path><path d="M20.572499999999998 14.857499999999998h1.1475v2.2800000000000002h-1.1475Z" fill="#333c54" stroke-width="0.75"></path><path d="M2.2874999999999996 22.8525h19.4325V24H2.2874999999999996Z" fill="#333c54" stroke-width="0.75"></path><path d="M19.4325 17.137500000000003h1.1400000000000001v1.1475h-1.1400000000000001Z" fill="#333c54" stroke-width="0.75"></path><path d="M19.4325 13.71h1.1400000000000001v1.1475h-1.1400000000000001Z" fill="#333c54" stroke-width="0.75"></path><path d="M18.285 7.995h1.1475v5.715h-1.1475Z" fill="#333c54" stroke-width="0.75"></path><path d="M17.145 18.285h2.2874999999999996v1.1400000000000001h-2.2874999999999996Z" fill="#333c54" stroke-width="0.75"></path><path d="M17.145 15.997499999999999h1.1400000000000001v1.1400000000000001h-1.1400000000000001Z" fill="#333c54" stroke-width="0.75"></path><path d="M6.862500000000001 19.424999999999997h10.2825v1.1475H6.862500000000001Z" fill="#333c54" stroke-width="0.75"></path><path d="M14.857499999999998 3.4275h1.1475v1.1400000000000001h-1.1475Z" fill="#333c54" stroke-width="0.75"></path><path d="m13.7175 18.285 0 -1.1475 1.1400000000000001 0 0 -1.1400000000000001 2.2874999999999996 0 0 -1.1400000000000001 -5.715 0 0 1.1400000000000001 -1.1400000000000001 0 0 2.2874999999999996 3.4275 0z" fill="#333c54" stroke-width="0.75"></path><path d="M10.290000000000001 2.2874999999999996h4.5675v1.1400000000000001h-4.5675Z" fill="#333c54" stroke-width="0.75"></path><path d="M8.0025 3.4275h2.2874999999999996v1.1400000000000001h-2.2874999999999996Z" fill="#333c54" stroke-width="0.75"></path><path d="M6.862500000000001 4.5675h1.1400000000000001v1.1475H6.862500000000001Z" fill="#333c54" stroke-width="0.75"></path><path d="M5.715 5.715h1.1475v2.2800000000000002H5.715Z" fill="#333c54" stroke-width="0.75"></path><path d="M4.574999999999999 7.995h1.1400000000000001v5.715H4.574999999999999Z" fill="#333c54" stroke-width="0.75"></path><path d="M3.435 13.71H4.574999999999999v1.1475H3.435Z" fill="#333c54" stroke-width="0.75"></path><path d="m3.435 21.7125 0 -1.1400000000000001 1.1400000000000001 0 0 -1.1475 1.1400000000000001 0 0 -1.1400000000000001 1.1475 0 0 -1.1475 1.1400000000000001 0 0 -1.1400000000000001 1.1400000000000001 0 0 -1.1400000000000001 1.1475 0 0 -1.1475 1.1400000000000001 0 0 -1.1400000000000001 1.1475 0 0 -1.1400000000000001 1.1400000000000001 0 0 -1.1475 1.1400000000000001 0 0 -1.1400000000000001 1.1475 0 0 -1.1475 1.1400000000000001 0 0 -1.1400000000000001 1.1400000000000001 0 0 -1.1400000000000001 1.1475 0 0 -1.1475 1.1400000000000001 0 0 -1.1400000000000001 1.1475 0 0 -1.1400000000000001 1.1400000000000001 0 0 -1.1475 -1.1400000000000001 0 0 -1.1400000000000001L2.2874999999999996 0l0 1.1400000000000001 18.285 0 0 1.1475 -1.1400000000000001 0 0 1.1400000000000001 -1.1475 0 0 1.1400000000000001 -1.1400000000000001 0 0 1.1475 -1.1400000000000001 0 0 1.1400000000000001 -1.1475 0 0 1.1400000000000001 -1.1400000000000001 0 0 1.1475 -1.1400000000000001 0 0 1.1400000000000001 -1.1475 0 0 1.1475 -1.1400000000000001 0 0 1.1400000000000001 -1.1475 0 0 1.1400000000000001 -1.1400000000000001 0 0 1.1475 -1.1400000000000001 0 0 1.1400000000000001 -1.1475 0 0 1.1400000000000001 -1.1400000000000001 0 0 1.1475 -1.1400000000000001 0 0 1.1400000000000001 -1.1475 0 0 1.1475 -1.1400000000000001 0 0 -18.285 -1.1475 0 0 19.424999999999997 1.1475 0 0 1.1400000000000001 1.1400000000000001 0 0 -1.1400000000000001 1.1475 0z" fill="#333c54" stroke-width="0.75"></path><path d="M2.2874999999999996 14.857499999999998h1.1475v2.2800000000000002H2.2874999999999996Z" fill="#333c54" stroke-width="0.75"></path><path d="M1.1475 1.1400000000000001h1.1400000000000001v1.1475H1.1475Z" fill="#333c54" stroke-width="0.75"></path></g></svg>