<svg xmlns="http://www.w3.org/2000/svg" viewBox="0 0 24 24" height="24" width="24"><title>entertainment-events-hobbies-chess-rook</title><g><path d="M19.42875 19.424999999999997h1.1400000000000001v2.2874999999999996h-1.1400000000000001Z" fill="#333c54" stroke-width="0.75"></path><path d="M4.57125 21.7125h14.857499999999998v1.1475H4.57125Z" fill="#333c54" stroke-width="0.75"></path><path d="M16.00125 14.857499999999998h1.1400000000000001v1.1400000000000001h-1.1400000000000001Z" fill="#333c54" stroke-width="0.75"></path><path d="M14.85375 13.7175h1.1475v1.1400000000000001h-1.1475Z" fill="#333c54" stroke-width="0.75"></path><path d="M10.286249999999999 13.7175v-5.715h3.4275v5.715h1.1400000000000001v-5.715h2.2874999999999996V6.855h1.1475V1.1400000000000001h-2.2874999999999996v1.1475h-2.2874999999999996V1.1400000000000001h-3.4275v1.1475h-2.2874999999999996V1.1400000000000001h-2.2874999999999996v5.715h1.1475v1.1475H9.149999999999999v5.715ZM9.149999999999999 4.574999999999999h5.7075000000000005v1.1400000000000001H9.149999999999999Z" fill="#333c54" stroke-width="0.75"></path><path d="M7.998749999999999 13.7175h1.1475v1.1400000000000001h-1.1475Z" fill="#333c54" stroke-width="0.75"></path><path d="M6.85875 14.857499999999998h1.1400000000000001v1.1400000000000001h-1.1400000000000001Z" fill="#333c54" stroke-width="0.75"></path><path d="m6.85875 18.285 0 -2.2874999999999996 -1.1475 0 0 2.2874999999999996 -1.1400000000000001 0 0 1.1400000000000001 14.857499999999998 0 0 -1.1400000000000001 -1.1400000000000001 0 0 -2.2874999999999996 -1.1475 0 0 2.2874999999999996 -10.2825 0z" fill="#333c54" stroke-width="0.75"></path><path d="M3.4312500000000004 19.424999999999997h1.1400000000000001v2.2874999999999996h-1.1400000000000001Z" fill="#333c54" stroke-width="0.75"></path></g></svg>